<svg xmlns="http://www.w3.org/2000/svg" viewBox="0 0 468.54 406.55"><defs><style>.cls-1{fill:#98a3a5;}.cls-2{fill:#4c5253;}.cls-3{fill:#d4f8f2;}.cls-12,.cls-4,.cls-8{fill:#fff;}.cls-5{fill:#37474f;}.cls-6{fill:#263238;}.cls-7{fill:#455a64;}.cls-8{opacity:0.07;}.cls-9{fill:#27debf;}.cls-10{opacity:0.1;}.cls-11{opacity:0.2;}.cls-12,.cls-13{opacity:0.3;}.cls-14{opacity:0.4;}.cls-15{opacity:0.55;}.cls-16{fill:#34444b;opacity:0.63;}.cls-17{opacity:0.15;}</style></defs><g id="Floor"><ellipse id="Floor-2" data-name="Floor" class="cls-1" cx="234.27" cy="271.29" rx="234.27" ry="135.26"/></g><g id="Shadows"><path id="Shadow" class="cls-2" d="M335.58,400.87,258.09,356a2.37,2.37,0,0,0-2.17,0l-70.81,40.79a.66.66,0,0,0,0,1.25l77.5,44.87a2.35,2.35,0,0,0,2.16,0l70.82-40.79C336.18,401.78,336.18,401.22,335.58,400.87Z" transform="translate(-2.26 -40.38)"/><path id="Shadow-2" data-name="Shadow" class="cls-2" d="M454.58,324.87,377.09,280a2.37,2.37,0,0,0-2.17,0l-70.81,40.79a.66.66,0,0,0,0,1.25l77.5,44.87a2.35,2.35,0,0,0,2.16,0l70.82-40.79C455.18,325.78,455.18,325.22,454.58,324.87Z" transform="translate(-2.26 -40.38)"/><path id="Shadow-3" data-name="Shadow" class="cls-2" d="M362,260.68l-77.5-44.87a2.41,2.41,0,0,0-2.16,0L72.17,336.92c-.6.34-.6.9,0,1.25L149.66,383a2.38,2.38,0,0,0,2.16,0L362,261.93A.66.66,0,0,0,362,260.68Z" transform="translate(-2.26 -40.38)"/></g><g id="Plants"><g id="Plant"><path class="cls-3" d="M85.73,341.14a33.61,33.61,0,0,1-17.09,3.33c-10.19-.57-13.52-6.22-13.52-6.22s5.87-8.41,12-9.79c0,0-9.91-.11-18.62,3.32,0,0-6-1.2-6.46-10.91,0,0,4.76-4.76,17.37-5.16,0,0-6.88-3.4-17.95-3-.85.14-1.65-12.46-1.48-18.16s2.36-5.16,6.88-5.38,19.22,2.2,21.39,5.13,1.79,11.25,1.79,11.25a25.61,25.61,0,0,0,4.65-10s2.87-.41,8.77,3c10.87,6.27,11.7,13.59,11.81,19.15C95.42,323.87,93.53,335.37,85.73,341.14Z" transform="translate(-2.26 -40.38)"/><path class="cls-4" d="M85.61,341.7a.59.59,0,0,1-.43-.42c-4.39-18.25-29.82-43.83-40-48.17a.57.57,0,0,1,.45-1.05C56,296.48,81.83,322.48,86.28,341a.55.55,0,0,1-.41.68A.46.46,0,0,1,85.61,341.7Z" transform="translate(-2.26 -40.38)"/></g><g id="Plant-2" data-name="Plant"><path class="cls-3" d="M348,250.65a24.83,24.83,0,0,1-1.34-4.86,20.67,20.67,0,0,1,.91-11.11,13.77,13.77,0,0,1,7.67-7.86,8.21,8.21,0,0,0,3.32-1.7,10.54,10.54,0,0,0,2-3.69A39.32,39.32,0,0,1,363,215a11.58,11.58,0,0,1,14.33-4.51c1.14.53,2.18,1.24,3.35,1.67,3.73,1.37,7.83-2.2,11.23-3.38,4.05-1.4,8.78-2.1,12.72,0,4.93,2.64,5.33,8.15,1.52,12.14-1.79,1.87-4,3.58-4.64,6.09-.9,3.63,2,7.29,1.49,11-.5,3.94-2.76,5.39-6.4,6.51l-4.09,1.27a9.07,9.07,0,0,0-4.44,2.35c-1.71,2-1.67,5.18-2.34,7.6a9.51,9.51,0,0,1-5.1,5.79A25.32,25.32,0,0,1,366,264a24.81,24.81,0,0,1-8.85-2.45c-4-2.12-7.24-6.38-9-10.47Z" transform="translate(-2.26 -40.38)"/><path class="cls-4" d="M352.56,255c1.18.67,3.18-3.68,3.76-4.49,1.47-2.09,3-4.11,4.65-6.08a100,100,0,0,1,9.51-10A95.85,95.85,0,0,1,387.2,222a52.75,52.75,0,0,1,7.7-3.86.6.6,0,0,0,.35-.77.58.58,0,0,0-.76-.35c-8.66,3.27-16.72,9.26-23.57,15.34a101.46,101.46,0,0,0-10.09,10.33c-1.22,1.43-9.55,11.2-8.35,12.2Z" transform="translate(-2.26 -40.38)"/><path class="cls-4" d="M368.65,235.74h.14c8.42-.91,21.44,1.67,21.57,1.69a.6.6,0,0,0,.7-.47.59.59,0,0,0-.47-.7c-.54-.11-13.32-2.63-21.93-1.71a.59.59,0,0,0,0,1.18Z" transform="translate(-2.26 -40.38)"/><path class="cls-4" d="M373,231.82h0a.59.59,0,0,0,.63-.56,45.16,45.16,0,0,0-1.16-12.81.6.6,0,0,0-1.16.3,45,45,0,0,1,1.13,12.44A.6.6,0,0,0,373,231.82Z" transform="translate(-2.26 -40.38)"/></g></g><g id="Blocks"><g id="Black_Block" data-name="Black Block"><polygon class="cls-5" points="353.1 221.04 287.14 259.12 287.14 219.04 353.1 180.96 353.1 221.04"/><polygon class="cls-6" points="221.18 221.04 287.14 259.12 287.14 219.04 221.18 180.96 221.18 221.04"/><polygon points="353.1 180.96 287.14 142.88 221.18 180.96 287.14 219.04 353.1 180.96"/><path class="cls-5" d="M301,228.79c3.21,1.85,4.81,4.28,4.81,6.71V242c0,2.43-1.6,4.86-4.81,6.71a23.81,23.81,0,0,1-11.63,2.78V226A23.7,23.7,0,0,1,301,228.79Z" transform="translate(-2.26 -40.38)"/><path class="cls-6" d="M277.77,228.79c-3.21,1.85-4.81,4.28-4.81,6.71V242c0,2.43,1.6,4.86,4.81,6.71a23.81,23.81,0,0,0,11.63,2.78V226A23.7,23.7,0,0,0,277.77,228.79Z" transform="translate(-2.26 -40.38)"/><path class="cls-7" d="M277.77,228.79c-6.42,3.7-6.42,9.71,0,13.42s16.83,3.71,23.26,0,6.42-9.72,0-13.42S284.19,225.08,277.77,228.79Z" transform="translate(-2.26 -40.38)"/><path class="cls-8" d="M277.77,228.79c-6.42,3.7-6.42,9.71,0,13.42s16.83,3.71,23.26,0,6.42-9.72,0-13.42S284.19,225.08,277.77,228.79Z" transform="translate(-2.26 -40.38)"/><path class="cls-5" d="M301,191.64c3.21,1.85,4.81,4.28,4.81,6.71v6.49c0,2.43-1.6,4.86-4.81,6.71a23.7,23.7,0,0,1-11.63,2.78V188.86A23.81,23.81,0,0,1,301,191.64Z" transform="translate(-2.26 -40.38)"/><path class="cls-6" d="M277.77,191.64c-3.21,1.85-4.81,4.28-4.81,6.71v6.49c0,2.43,1.6,4.86,4.81,6.71a23.7,23.7,0,0,0,11.63,2.78V188.86A23.81,23.81,0,0,0,277.77,191.64Z" transform="translate(-2.26 -40.38)"/><path class="cls-7" d="M277.77,191.64c-6.42,3.71-6.42,9.72,0,13.43s16.83,3.7,23.26,0,6.42-9.72,0-13.43S284.19,187.93,277.77,191.64Z" transform="translate(-2.26 -40.38)"/><path class="cls-8" d="M277.77,191.64c-6.42,3.71-6.42,9.72,0,13.43s16.83,3.7,23.26,0,6.42-9.72,0-13.43S284.19,187.93,277.77,191.64Z" transform="translate(-2.26 -40.38)"/><path class="cls-5" d="M333.18,210.22c3.21,1.85,4.82,4.28,4.82,6.71v6.49c0,2.43-1.61,4.86-4.82,6.71a23.77,23.77,0,0,1-11.62,2.78V207.44A23.66,23.66,0,0,1,333.18,210.22Z" transform="translate(-2.26 -40.38)"/><path class="cls-6" d="M309.93,210.22c-3.21,1.85-4.81,4.28-4.81,6.71v6.49c0,2.43,1.6,4.86,4.81,6.71a23.81,23.81,0,0,0,11.63,2.78V207.44A23.7,23.7,0,0,0,309.93,210.22Z" transform="translate(-2.26 -40.38)"/><path class="cls-7" d="M309.93,210.22c-6.42,3.7-6.42,9.71,0,13.42s16.83,3.71,23.25,0,6.43-9.72,0-13.42S316.35,206.51,309.93,210.22Z" transform="translate(-2.26 -40.38)"/><path class="cls-8" d="M309.93,210.22c-6.42,3.7-6.42,9.71,0,13.42s16.83,3.71,23.25,0,6.43-9.72,0-13.42S316.35,206.51,309.93,210.22Z" transform="translate(-2.26 -40.38)"/><path class="cls-5" d="M268.87,210.2c3.21,1.86,4.81,4.29,4.81,6.72v6.49c0,2.42-1.6,4.85-4.81,6.71a23.81,23.81,0,0,1-11.63,2.78V207.42A23.81,23.81,0,0,1,268.87,210.2Z" transform="translate(-2.26 -40.38)"/><path class="cls-6" d="M245.61,210.2c-3.21,1.86-4.81,4.29-4.81,6.72v6.49c0,2.42,1.6,4.85,4.81,6.71a23.81,23.81,0,0,0,11.63,2.78V207.42A23.81,23.81,0,0,0,245.61,210.2Z" transform="translate(-2.26 -40.38)"/><path class="cls-7" d="M245.61,210.2c-6.42,3.71-6.42,9.72,0,13.43s16.84,3.71,23.26,0,6.42-9.72,0-13.43S252,206.5,245.61,210.2Z" transform="translate(-2.26 -40.38)"/><path class="cls-8" d="M245.61,210.2c-6.42,3.71-6.42,9.72,0,13.43s16.84,3.71,23.26,0,6.42-9.72,0-13.43S252,206.5,245.61,210.2Z" transform="translate(-2.26 -40.38)"/></g><g id="Color_Block" data-name="Color Block"><polygon class="cls-9" points="327.39 359.68 261.43 397.76 261.43 357.67 327.39 319.59 327.39 359.68"/><polygon class="cls-10" points="327.39 359.68 261.43 397.76 261.43 357.67 327.39 319.59 327.39 359.68"/><polygon class="cls-9" points="195.47 359.68 261.43 397.76 261.43 357.67 195.47 319.59 195.47 359.68"/><polygon class="cls-11" points="195.47 359.68 261.43 397.76 261.43 357.67 195.47 319.59 195.47 359.68"/><polygon class="cls-9" points="327.39 319.59 261.43 281.51 195.47 319.59 261.43 357.67 327.39 319.59"/><path class="cls-9" d="M280.13,337c0-2.43-1.6-4.86-4.81-6.71-6.42-3.71-16.83-3.71-23.25,0-3.21,1.85-4.82,4.28-4.82,6.71v6.49c0,2.43,1.61,4.85,4.82,6.71,6.42,3.71,16.83,3.71,23.25,0,3.21-1.86,4.82-4.28,4.81-6.71Z" transform="translate(-2.26 -40.38)"/><path class="cls-10" d="M275.32,330.28c3.21,1.85,4.82,4.28,4.81,6.71v6.49c0,2.43-1.6,4.85-4.81,6.71A23.81,23.81,0,0,1,263.69,353V327.5A23.7,23.7,0,0,1,275.32,330.28Z" transform="translate(-2.26 -40.38)"/><path class="cls-11" d="M252.07,330.28c-3.21,1.85-4.82,4.28-4.82,6.71v6.49c0,2.43,1.61,4.85,4.82,6.71A23.8,23.8,0,0,0,263.69,353V327.5A23.69,23.69,0,0,0,252.07,330.28Z" transform="translate(-2.26 -40.38)"/><path class="cls-9" d="M252.07,330.28c-6.42,3.7-6.42,9.71,0,13.42s16.83,3.71,23.25,0,6.42-9.72,0-13.42S258.49,326.57,252.07,330.28Z" transform="translate(-2.26 -40.38)"/><path class="cls-12" d="M252.07,330.28c-6.42,3.7-6.42,9.71,0,13.42s16.83,3.71,23.25,0,6.42-9.72,0-13.42S258.49,326.57,252.07,330.28Z" transform="translate(-2.26 -40.38)"/><path class="cls-9" d="M280.13,374.13c0-2.42-1.6-4.85-4.81-6.71-6.42-3.71-16.83-3.71-23.25,0-3.21,1.86-4.82,4.28-4.82,6.71v6.49c0,2.43,1.61,4.86,4.82,6.71,6.42,3.71,16.83,3.71,23.25,0,3.21-1.85,4.82-4.28,4.81-6.71Z" transform="translate(-2.26 -40.38)"/><path class="cls-10" d="M275.32,367.42c3.21,1.86,4.82,4.28,4.81,6.71v6.49c0,2.43-1.6,4.86-4.81,6.71a23.71,23.71,0,0,1-11.63,2.79V364.64A23.81,23.81,0,0,1,275.32,367.42Z" transform="translate(-2.26 -40.38)"/><path class="cls-11" d="M252.07,367.42c-3.21,1.86-4.82,4.28-4.82,6.71v6.49c0,2.43,1.61,4.86,4.82,6.71a23.7,23.7,0,0,0,11.62,2.79V364.64A23.8,23.8,0,0,0,252.07,367.42Z" transform="translate(-2.26 -40.38)"/><path class="cls-9" d="M252.07,367.42c-6.42,3.71-6.42,9.72,0,13.43s16.83,3.7,23.25,0,6.42-9.72,0-13.43S258.49,363.71,252.07,367.42Z" transform="translate(-2.26 -40.38)"/><path class="cls-12" d="M252.07,367.42c-6.42,3.71-6.42,9.72,0,13.43s16.83,3.7,23.25,0,6.42-9.72,0-13.43S258.49,363.71,252.07,367.42Z" transform="translate(-2.26 -40.38)"/><path class="cls-9" d="M248,355.55c0-2.43-1.61-4.86-4.82-6.71-6.42-3.71-16.83-3.71-23.25,0-3.21,1.85-4.82,4.28-4.82,6.71V362c0,2.43,1.61,4.86,4.82,6.71,6.42,3.71,16.83,3.71,23.25,0,3.21-1.85,4.82-4.28,4.82-6.71C248,360.24,248,357.35,248,355.55Z" transform="translate(-2.26 -40.38)"/><path class="cls-10" d="M243.16,348.84c3.21,1.85,4.82,4.28,4.82,6.71,0,1.8,0,4.69,0,6.49,0,2.43-1.61,4.86-4.82,6.71a23.7,23.7,0,0,1-11.63,2.78V346.06A23.81,23.81,0,0,1,243.16,348.84Z" transform="translate(-2.26 -40.38)"/><path class="cls-11" d="M219.91,348.84c-3.21,1.85-4.82,4.28-4.82,6.71V362c0,2.43,1.61,4.86,4.82,6.71a23.69,23.69,0,0,0,11.62,2.78V346.06A23.8,23.8,0,0,0,219.91,348.84Z" transform="translate(-2.26 -40.38)"/><path class="cls-9" d="M219.91,348.84c-6.42,3.71-6.42,9.72,0,13.42s16.83,3.71,23.25,0,6.42-9.71,0-13.42S226.33,345.13,219.91,348.84Z" transform="translate(-2.26 -40.38)"/><path class="cls-12" d="M219.91,348.84c-6.42,3.71-6.42,9.72,0,13.42s16.83,3.71,23.25,0,6.42-9.71,0-13.42S226.33,345.13,219.91,348.84Z" transform="translate(-2.26 -40.38)"/><path class="cls-9" d="M312.29,355.56c0-2.43-1.6-4.85-4.81-6.71-6.42-3.71-16.83-3.71-23.25,0-3.22,1.85-4.82,4.28-4.82,6.71v6.49c0,2.43,1.6,4.86,4.81,6.71,6.43,3.71,16.84,3.71,23.26,0,3.21-1.85,4.81-4.28,4.81-6.71Z" transform="translate(-2.26 -40.38)"/><path class="cls-10" d="M307.48,348.85c3.21,1.85,4.81,4.28,4.81,6.71v6.49c0,2.43-1.6,4.86-4.81,6.71a23.7,23.7,0,0,1-11.63,2.78V346.07A23.81,23.81,0,0,1,307.48,348.85Z" transform="translate(-2.26 -40.38)"/><path class="cls-11" d="M284.23,348.85c-3.22,1.85-4.82,4.28-4.82,6.71v6.49c0,2.43,1.6,4.86,4.81,6.71a23.73,23.73,0,0,0,11.63,2.78V346.07A23.77,23.77,0,0,0,284.23,348.85Z" transform="translate(-2.26 -40.38)"/><path class="cls-9" d="M284.23,348.85c-6.43,3.71-6.43,9.72,0,13.43s16.84,3.7,23.26,0,6.42-9.72,0-13.43S290.65,345.14,284.23,348.85Z" transform="translate(-2.26 -40.38)"/><path class="cls-12" d="M284.23,348.85c-6.43,3.71-6.43,9.72,0,13.43s16.84,3.7,23.26,0,6.42-9.72,0-13.43S290.65,345.14,284.23,348.85Z" transform="translate(-2.26 -40.38)"/></g><g id="Dark_Color_Block" data-name="Dark Color Block"><polygon class="cls-9" points="353.1 178.05 287.14 216.13 287.14 176.04 353.1 137.96 353.1 178.05"/><polygon class="cls-13" points="353.1 178.05 287.14 216.13 287.14 176.04 353.1 137.96 353.1 178.05"/><polygon class="cls-9" points="221.18 178.05 287.14 216.13 287.14 176.04 221.18 137.96 221.18 178.05"/><polygon class="cls-14" points="221.18 178.05 287.14 216.13 287.14 176.04 221.18 137.96 221.18 178.05"/><polygon class="cls-9" points="353.1 137.96 287.14 99.88 221.18 137.96 287.14 176.04 353.1 137.96"/><polygon class="cls-15" points="353.1 137.96 287.14 99.88 221.18 137.96 287.14 176.04 353.1 137.96"/><path class="cls-9" d="M305.84,155.36c0-2.43-1.6-4.86-4.81-6.71-6.42-3.71-16.84-3.71-23.26,0-3.21,1.85-4.81,4.28-4.81,6.71v6.49c0,2.43,1.6,4.86,4.81,6.71,6.42,3.71,16.83,3.71,23.26,0,3.21-1.85,4.81-4.28,4.81-6.71Z" transform="translate(-2.26 -40.38)"/><path class="cls-13" d="M301,148.65c3.21,1.85,4.81,4.28,4.81,6.71v6.49c0,2.43-1.6,4.86-4.81,6.71a23.81,23.81,0,0,1-11.63,2.78V145.87A23.7,23.7,0,0,1,301,148.65Z" transform="translate(-2.26 -40.38)"/><path class="cls-14" d="M277.77,148.65c-3.21,1.85-4.81,4.28-4.81,6.71v6.49c0,2.43,1.6,4.86,4.81,6.71a23.81,23.81,0,0,0,11.63,2.78V145.87A23.7,23.7,0,0,0,277.77,148.65Z" transform="translate(-2.26 -40.38)"/><path class="cls-9" d="M277.77,148.65c-6.42,3.7-6.42,9.71,0,13.42s16.83,3.71,23.26,0,6.42-9.72,0-13.42S284.19,144.94,277.77,148.65Z" transform="translate(-2.26 -40.38)"/><path class="cls-12" d="M277.77,148.65c-6.42,3.7-6.42,9.71,0,13.42s16.83,3.71,23.26,0,6.42-9.72,0-13.42S284.19,144.94,277.77,148.65Z" transform="translate(-2.26 -40.38)"/><path class="cls-9" d="M305.84,192.51c0-2.43-1.6-4.86-4.81-6.72-6.42-3.7-16.84-3.7-23.26,0-3.21,1.86-4.81,4.29-4.81,6.71V199c0,2.43,1.6,4.86,4.81,6.72,6.42,3.7,16.83,3.7,23.26,0,3.21-1.86,4.81-4.29,4.81-6.72Z" transform="translate(-2.26 -40.38)"/><path class="cls-13" d="M301,185.79c3.21,1.86,4.81,4.29,4.81,6.71V199c0,2.43-1.6,4.86-4.81,6.72a23.81,23.81,0,0,1-11.63,2.78V183A23.81,23.81,0,0,1,301,185.79Z" transform="translate(-2.26 -40.38)"/><path class="cls-14" d="M277.77,185.79c-3.21,1.86-4.81,4.29-4.81,6.71V199c0,2.43,1.6,4.86,4.81,6.72a23.81,23.81,0,0,0,11.63,2.78V183A23.81,23.81,0,0,0,277.77,185.79Z" transform="translate(-2.26 -40.38)"/><path class="cls-9" d="M277.77,185.79c-6.42,3.71-6.42,9.72,0,13.43s16.83,3.71,23.26,0,6.42-9.72,0-13.43S284.19,182.09,277.77,185.79Z" transform="translate(-2.26 -40.38)"/><path class="cls-12" d="M277.77,185.79c-6.42,3.71-6.42,9.72,0,13.43s16.83,3.71,23.26,0,6.42-9.72,0-13.43S284.19,182.09,277.77,185.79Z" transform="translate(-2.26 -40.38)"/><path class="cls-9" d="M273.68,173.92c0-2.43-1.6-4.86-4.81-6.71-6.42-3.71-16.83-3.71-23.26,0-3.21,1.85-4.81,4.28-4.81,6.71v6.49c0,2.43,1.6,4.86,4.81,6.71,6.42,3.71,16.84,3.71,23.26,0,3.21-1.85,4.81-4.28,4.81-6.71Z" transform="translate(-2.26 -40.38)"/><path class="cls-13" d="M268.87,167.21c3.21,1.85,4.81,4.28,4.81,6.71v6.49c0,2.43-1.6,4.86-4.81,6.71a23.7,23.7,0,0,1-11.63,2.78V164.43A23.81,23.81,0,0,1,268.87,167.21Z" transform="translate(-2.26 -40.38)"/><path class="cls-14" d="M245.61,167.21c-3.21,1.85-4.81,4.28-4.81,6.71v6.49c0,2.43,1.6,4.86,4.81,6.71a23.7,23.7,0,0,0,11.63,2.78V164.43A23.81,23.81,0,0,0,245.61,167.21Z" transform="translate(-2.26 -40.38)"/><path class="cls-9" d="M245.61,167.21c-6.42,3.71-6.42,9.72,0,13.43s16.84,3.7,23.26,0,6.42-9.72,0-13.43S252,163.5,245.61,167.21Z" transform="translate(-2.26 -40.38)"/><path class="cls-12" d="M245.61,167.21c-6.42,3.71-6.42,9.72,0,13.43s16.84,3.7,23.26,0,6.42-9.72,0-13.43S252,163.5,245.61,167.21Z" transform="translate(-2.26 -40.38)"/><path class="cls-9" d="M338,173.93c0-2.42-1.6-4.85-4.82-6.71-6.42-3.71-16.83-3.71-23.25,0-3.21,1.86-4.81,4.28-4.81,6.71v6.49c0,2.43,1.6,4.86,4.81,6.71,6.42,3.71,16.83,3.71,23.25,0,3.22-1.85,4.82-4.28,4.82-6.71Z" transform="translate(-2.26 -40.38)"/><path class="cls-13" d="M333.18,167.22c3.21,1.86,4.82,4.28,4.82,6.71v6.49c0,2.43-1.61,4.86-4.82,6.71a23.66,23.66,0,0,1-11.62,2.78V164.44A23.77,23.77,0,0,1,333.18,167.22Z" transform="translate(-2.26 -40.38)"/><path class="cls-14" d="M309.93,167.22c-3.21,1.86-4.81,4.28-4.81,6.71v6.49c0,2.43,1.6,4.86,4.81,6.71a23.7,23.7,0,0,0,11.63,2.78V164.44A23.81,23.81,0,0,0,309.93,167.22Z" transform="translate(-2.26 -40.38)"/><path class="cls-9" d="M309.93,167.22c-6.42,3.71-6.42,9.72,0,13.43s16.83,3.7,23.25,0,6.43-9.72,0-13.43S316.35,163.51,309.93,167.22Z" transform="translate(-2.26 -40.38)"/><path class="cls-12" d="M309.93,167.22c-6.42,3.71-6.42,9.72,0,13.43s16.83,3.7,23.25,0,6.43-9.72,0-13.43S316.35,163.51,309.93,167.22Z" transform="translate(-2.26 -40.38)"/></g><g id="Dark_Color_Block-2" data-name="Dark Color Block"><polygon class="cls-9" points="283.67 261.13 217.71 299.21 217.71 259.12 283.67 221.04 283.67 261.13"/><polygon class="cls-13" points="283.67 261.13 217.71 299.21 217.71 259.12 283.67 221.04 283.67 261.13"/><polygon class="cls-9" points="151.75 261.13 217.71 299.21 217.71 259.12 151.75 221.04 151.75 261.13"/><polygon class="cls-14" points="151.75 261.13 217.71 299.21 217.71 259.12 151.75 221.04 151.75 261.13"/><polygon class="cls-9" points="283.67 221.04 217.71 182.96 151.75 221.04 217.71 259.12 283.67 221.04"/><polygon class="cls-15" points="283.67 221.04 217.71 182.96 151.75 221.04 217.71 259.12 283.67 221.04"/><path class="cls-9" d="M236.41,238.44c0-2.43-1.6-4.86-4.81-6.71-6.42-3.71-16.83-3.71-23.26,0-3.21,1.85-4.81,4.28-4.81,6.71v6.49c0,2.43,1.6,4.86,4.81,6.71,6.42,3.71,16.84,3.71,23.26,0,3.21-1.85,4.81-4.28,4.81-6.71Z" transform="translate(-2.26 -40.38)"/><path class="cls-13" d="M231.6,231.73c3.21,1.85,4.81,4.28,4.81,6.71v6.49c0,2.43-1.6,4.86-4.81,6.71A23.81,23.81,0,0,1,220,254.42V229A23.7,23.7,0,0,1,231.6,231.73Z" transform="translate(-2.26 -40.38)"/><path class="cls-14" d="M208.34,231.73c-3.21,1.85-4.81,4.28-4.81,6.71v6.49c0,2.43,1.6,4.86,4.81,6.71A23.81,23.81,0,0,0,220,254.42V229A23.7,23.7,0,0,0,208.34,231.73Z" transform="translate(-2.26 -40.38)"/><path class="cls-9" d="M208.34,231.73c-6.42,3.7-6.42,9.71,0,13.42s16.84,3.71,23.26,0,6.42-9.72,0-13.42S214.77,228,208.34,231.73Z" transform="translate(-2.26 -40.38)"/><path class="cls-12" d="M208.34,231.73c-6.42,3.7-6.42,9.71,0,13.42s16.84,3.71,23.26,0,6.42-9.72,0-13.42S214.77,228,208.34,231.73Z" transform="translate(-2.26 -40.38)"/><path class="cls-9" d="M236.41,275.58c0-2.42-1.6-4.85-4.81-6.71-6.42-3.7-16.83-3.71-23.26,0-3.21,1.86-4.81,4.28-4.81,6.71v6.49c0,2.43,1.6,4.86,4.81,6.71,6.42,3.71,16.84,3.71,23.26,0,3.21-1.86,4.81-4.29,4.81-6.72Z" transform="translate(-2.26 -40.38)"/><path class="cls-13" d="M231.6,268.87c3.21,1.86,4.81,4.28,4.81,6.71v6.49c0,2.43-1.6,4.86-4.81,6.71A23.71,23.71,0,0,1,220,291.57V266.09A23.81,23.81,0,0,1,231.6,268.87Z" transform="translate(-2.26 -40.38)"/><path class="cls-14" d="M208.34,268.87c-3.21,1.86-4.81,4.28-4.81,6.71v6.49c0,2.43,1.6,4.86,4.81,6.71A23.71,23.71,0,0,0,220,291.57V266.09A23.81,23.81,0,0,0,208.34,268.87Z" transform="translate(-2.26 -40.38)"/><path class="cls-9" d="M208.34,268.87c-6.42,3.71-6.42,9.72,0,13.43s16.84,3.7,23.26,0,6.42-9.72,0-13.43S214.77,265.16,208.34,268.87Z" transform="translate(-2.26 -40.38)"/><path class="cls-12" d="M208.34,268.87c-6.42,3.71-6.42,9.72,0,13.43s16.84,3.7,23.26,0,6.42-9.72,0-13.43S214.77,265.16,208.34,268.87Z" transform="translate(-2.26 -40.38)"/><path class="cls-9" d="M204.25,257c0-2.43-1.6-4.86-4.81-6.71-6.42-3.71-16.83-3.71-23.26,0-3.21,1.85-4.81,4.28-4.81,6.71v6.49c0,2.43,1.6,4.86,4.81,6.71,6.42,3.71,16.84,3.71,23.26,0,3.21-1.85,4.81-4.28,4.81-6.71Z" transform="translate(-2.26 -40.38)"/><path class="cls-13" d="M199.44,250.29c3.21,1.85,4.81,4.28,4.81,6.71v6.49c0,2.43-1.6,4.86-4.81,6.71A23.7,23.7,0,0,1,187.81,273V247.51A23.81,23.81,0,0,1,199.44,250.29Z" transform="translate(-2.26 -40.38)"/><path class="cls-14" d="M176.18,250.29c-3.21,1.85-4.81,4.28-4.81,6.71v6.49c0,2.43,1.6,4.86,4.81,6.71A23.7,23.7,0,0,0,187.81,273V247.51A23.84,23.84,0,0,0,176.18,250.29Z" transform="translate(-2.26 -40.38)"/><path class="cls-9" d="M176.18,250.29c-6.42,3.71-6.42,9.72,0,13.42s16.84,3.71,23.26,0,6.42-9.71,0-13.42S182.61,246.58,176.18,250.29Z" transform="translate(-2.26 -40.38)"/><path class="cls-12" d="M176.18,250.29c-6.42,3.71-6.42,9.72,0,13.42s16.84,3.71,23.26,0,6.42-9.71,0-13.42S182.61,246.58,176.18,250.29Z" transform="translate(-2.26 -40.38)"/><path class="cls-9" d="M268.57,257c0-2.43-1.6-4.85-4.82-6.71-6.42-3.71-16.83-3.71-23.25,0-3.21,1.85-4.81,4.28-4.81,6.71v6.49c0,2.43,1.6,4.86,4.81,6.71,6.42,3.71,16.83,3.71,23.25,0,3.22-1.85,4.82-4.28,4.82-6.71Z" transform="translate(-2.26 -40.38)"/><path class="cls-13" d="M263.75,250.3c3.21,1.85,4.82,4.28,4.82,6.71v6.49c0,2.43-1.6,4.86-4.81,6.71A23.73,23.73,0,0,1,252.13,273V247.52A23.77,23.77,0,0,1,263.75,250.3Z" transform="translate(-2.26 -40.38)"/><path class="cls-14" d="M240.5,250.3c-3.21,1.85-4.81,4.28-4.81,6.71v6.49c0,2.43,1.6,4.86,4.81,6.71A23.7,23.7,0,0,0,252.13,273V247.52A23.81,23.81,0,0,0,240.5,250.3Z" transform="translate(-2.26 -40.38)"/><path class="cls-9" d="M240.5,250.3c-6.42,3.71-6.42,9.72,0,13.43s16.83,3.7,23.25,0,6.43-9.72,0-13.43S246.92,246.59,240.5,250.3Z" transform="translate(-2.26 -40.38)"/><path class="cls-12" d="M240.5,250.3c-6.42,3.71-6.42,9.72,0,13.43s16.83,3.7,23.25,0,6.43-9.72,0-13.43S246.92,246.59,240.5,250.3Z" transform="translate(-2.26 -40.38)"/></g><g id="Color_Block-2" data-name="Color Block"><polygon class="cls-9" points="283.67 217.13 217.71 255.21 217.71 215.13 283.67 177.05 283.67 217.13"/><polygon class="cls-10" points="283.67 217.13 217.71 255.21 217.71 215.13 283.67 177.05 283.67 217.13"/><polygon class="cls-9" points="151.75 217.13 217.71 255.21 217.71 215.13 151.75 177.05 151.75 217.13"/><polygon class="cls-11" points="151.75 217.13 217.71 255.21 217.71 215.13 151.75 177.05 151.75 217.13"/><polygon class="cls-9" points="283.67 177.05 217.71 138.97 151.75 177.05 217.71 215.13 283.67 177.05"/><path class="cls-9" d="M236.41,194.44c0-2.43-1.6-4.85-4.81-6.71-6.42-3.71-16.83-3.71-23.26,0-3.21,1.86-4.81,4.28-4.81,6.71v6.49c0,2.43,1.6,4.86,4.81,6.71,6.42,3.71,16.84,3.71,23.26,0,3.21-1.85,4.81-4.28,4.81-6.71Z" transform="translate(-2.26 -40.38)"/><path class="cls-10" d="M231.6,187.73c3.21,1.86,4.81,4.28,4.81,6.71v6.49c0,2.43-1.6,4.86-4.81,6.71A23.7,23.7,0,0,1,220,210.42V185A23.81,23.81,0,0,1,231.6,187.73Z" transform="translate(-2.26 -40.38)"/><path class="cls-11" d="M208.34,187.73c-3.21,1.86-4.81,4.28-4.81,6.71v6.49c0,2.43,1.6,4.86,4.81,6.71A23.7,23.7,0,0,0,220,210.42V185A23.81,23.81,0,0,0,208.34,187.73Z" transform="translate(-2.26 -40.38)"/><path class="cls-9" d="M208.34,187.73c-6.42,3.71-6.42,9.72,0,13.43s16.84,3.7,23.26,0,6.42-9.72,0-13.43S214.77,184,208.34,187.73Z" transform="translate(-2.26 -40.38)"/><path class="cls-12" d="M208.34,187.73c-6.42,3.71-6.42,9.72,0,13.43s16.84,3.7,23.26,0,6.42-9.72,0-13.43S214.77,184,208.34,187.73Z" transform="translate(-2.26 -40.38)"/><path class="cls-9" d="M236.41,231.59c0-2.43-1.6-4.86-4.81-6.71-6.42-3.71-16.83-3.71-23.26,0-3.21,1.85-4.81,4.28-4.81,6.71v6.49c0,2.43,1.6,4.86,4.81,6.71,6.42,3.71,16.84,3.71,23.26,0,3.21-1.85,4.81-4.28,4.81-6.71Z" transform="translate(-2.26 -40.38)"/><path class="cls-10" d="M231.6,224.88c3.21,1.85,4.81,4.28,4.81,6.71v6.49c0,2.43-1.6,4.86-4.81,6.71A23.81,23.81,0,0,1,220,247.57V222.1A23.7,23.7,0,0,1,231.6,224.88Z" transform="translate(-2.26 -40.38)"/><path class="cls-11" d="M208.34,224.88c-3.21,1.85-4.81,4.28-4.81,6.71v6.49c0,2.43,1.6,4.86,4.81,6.71A23.81,23.81,0,0,0,220,247.57V222.1A23.7,23.7,0,0,0,208.34,224.88Z" transform="translate(-2.26 -40.38)"/><path class="cls-9" d="M208.34,224.88c-6.42,3.71-6.42,9.72,0,13.42s16.84,3.71,23.26,0,6.42-9.71,0-13.42S214.77,221.17,208.34,224.88Z" transform="translate(-2.26 -40.38)"/><path class="cls-12" d="M208.34,224.88c-6.42,3.71-6.42,9.72,0,13.42s16.84,3.71,23.26,0,6.42-9.71,0-13.42S214.77,221.17,208.34,224.88Z" transform="translate(-2.26 -40.38)"/><path class="cls-9" d="M204.25,213c0-2.43-1.6-4.86-4.81-6.71-6.42-3.71-16.83-3.71-23.26,0-3.21,1.85-4.81,4.28-4.81,6.71v6.49c0,2.43,1.6,4.85,4.81,6.71,6.42,3.71,16.84,3.71,23.26,0,3.21-1.86,4.81-4.29,4.81-6.71Z" transform="translate(-2.26 -40.38)"/><path class="cls-10" d="M199.44,206.3c3.21,1.85,4.81,4.28,4.81,6.71v6.49c0,2.43-1.6,4.85-4.81,6.71A23.81,23.81,0,0,1,187.81,229V203.51A23.71,23.71,0,0,1,199.44,206.3Z" transform="translate(-2.26 -40.38)"/><path class="cls-11" d="M176.18,206.3c-3.21,1.85-4.81,4.28-4.81,6.71v6.49c0,2.43,1.6,4.85,4.81,6.71A23.81,23.81,0,0,0,187.81,229V203.51A23.73,23.73,0,0,0,176.18,206.3Z" transform="translate(-2.26 -40.38)"/><path class="cls-9" d="M176.18,206.3c-6.42,3.7-6.42,9.71,0,13.42s16.84,3.71,23.26,0,6.42-9.72,0-13.42S182.61,202.59,176.18,206.3Z" transform="translate(-2.26 -40.38)"/><path class="cls-12" d="M176.18,206.3c-6.42,3.7-6.42,9.71,0,13.42s16.84,3.71,23.26,0,6.42-9.72,0-13.42S182.61,202.59,176.18,206.3Z" transform="translate(-2.26 -40.38)"/><path class="cls-9" d="M268.57,213c0-2.43-1.6-4.86-4.82-6.71-6.42-3.71-16.83-3.71-23.25,0-3.21,1.85-4.81,4.28-4.81,6.71v6.49c0,2.43,1.6,4.86,4.81,6.71,6.42,3.71,16.83,3.71,23.25,0,3.22-1.85,4.82-4.28,4.82-6.71Z" transform="translate(-2.26 -40.38)"/><path class="cls-10" d="M263.75,206.31c3.21,1.85,4.82,4.28,4.82,6.71v6.49c0,2.43-1.6,4.86-4.81,6.71A23.84,23.84,0,0,1,252.13,229V203.53A23.66,23.66,0,0,1,263.75,206.31Z" transform="translate(-2.26 -40.38)"/><path class="cls-11" d="M240.5,206.31c-3.21,1.85-4.81,4.28-4.81,6.71v6.49c0,2.43,1.6,4.86,4.81,6.71A23.81,23.81,0,0,0,252.13,229V203.53A23.7,23.7,0,0,0,240.5,206.31Z" transform="translate(-2.26 -40.38)"/><path class="cls-9" d="M240.5,206.31c-6.42,3.7-6.42,9.71,0,13.42s16.83,3.71,23.25,0,6.43-9.72,0-13.42S246.92,202.6,240.5,206.31Z" transform="translate(-2.26 -40.38)"/><path class="cls-12" d="M240.5,206.31c-6.42,3.7-6.42,9.71,0,13.42s16.83,3.71,23.25,0,6.43-9.72,0-13.42S246.92,202.6,240.5,206.31Z" transform="translate(-2.26 -40.38)"/></g><g id="Black_Block-2" data-name="Black Block"><polygon class="cls-5" points="214.24 301.21 148.28 339.29 148.28 299.21 214.24 261.13 214.24 301.21"/><polygon class="cls-6" points="82.32 301.21 148.28 339.29 148.28 299.21 82.32 261.13 82.32 301.21"/><polygon class="cls-7" points="214.24 261.13 148.28 223.05 82.32 261.13 148.28 299.21 214.24 261.13"/><path class="cls-5" d="M162.17,309c3.21,1.85,4.81,4.28,4.81,6.71v6.49c0,2.43-1.6,4.86-4.81,6.71a23.81,23.81,0,0,1-11.63,2.78V306.18A23.7,23.7,0,0,1,162.17,309Z" transform="translate(-2.26 -40.38)"/><path class="cls-6" d="M138.91,309c-3.21,1.85-4.81,4.28-4.81,6.71v6.49c0,2.43,1.6,4.86,4.81,6.71a23.81,23.81,0,0,0,11.63,2.78V306.18A23.7,23.7,0,0,0,138.91,309Z" transform="translate(-2.26 -40.38)"/><path class="cls-7" d="M138.91,309c-6.42,3.7-6.42,9.72,0,13.42s16.84,3.71,23.26,0,6.42-9.71,0-13.42S145.34,305.25,138.91,309Z" transform="translate(-2.26 -40.38)"/><path class="cls-8" d="M138.91,309c-6.42,3.7-6.42,9.72,0,13.42s16.84,3.71,23.26,0,6.42-9.71,0-13.42S145.34,305.25,138.91,309Z" transform="translate(-2.26 -40.38)"/><path class="cls-5" d="M162.17,271.81c3.21,1.86,4.81,4.28,4.81,6.71V285c0,2.43-1.6,4.86-4.81,6.71a23.7,23.7,0,0,1-11.63,2.78V269A23.81,23.81,0,0,1,162.17,271.81Z" transform="translate(-2.26 -40.38)"/><path class="cls-6" d="M138.91,271.81c-3.21,1.86-4.81,4.28-4.81,6.71V285c0,2.43,1.6,4.86,4.81,6.71a23.7,23.7,0,0,0,11.63,2.78V269A23.81,23.81,0,0,0,138.91,271.81Z" transform="translate(-2.26 -40.38)"/><path class="cls-7" d="M138.91,271.81c-6.42,3.71-6.42,9.72,0,13.43s16.84,3.7,23.26,0,6.42-9.72,0-13.43S145.34,268.1,138.91,271.81Z" transform="translate(-2.26 -40.38)"/><path class="cls-8" d="M138.91,271.81c-6.42,3.71-6.42,9.72,0,13.43s16.84,3.7,23.26,0,6.42-9.72,0-13.43S145.34,268.1,138.91,271.81Z" transform="translate(-2.26 -40.38)"/><path class="cls-5" d="M194.32,290.39c3.21,1.85,4.82,4.28,4.82,6.71v6.49c0,2.43-1.6,4.86-4.81,6.71a23.84,23.84,0,0,1-11.63,2.78V287.61A23.66,23.66,0,0,1,194.32,290.39Z" transform="translate(-2.26 -40.38)"/><path class="cls-6" d="M171.07,290.39c-3.21,1.85-4.81,4.28-4.81,6.71v6.49c0,2.43,1.6,4.86,4.81,6.71a23.81,23.81,0,0,0,11.63,2.78V287.61A23.7,23.7,0,0,0,171.07,290.39Z" transform="translate(-2.26 -40.38)"/><path class="cls-7" d="M171.07,290.39c-6.42,3.7-6.42,9.71,0,13.42s16.83,3.71,23.25,0,6.43-9.72,0-13.42S177.49,286.68,171.07,290.39Z" transform="translate(-2.26 -40.38)"/><path class="cls-8" d="M171.07,290.39c-6.42,3.7-6.42,9.71,0,13.42s16.83,3.71,23.25,0,6.43-9.72,0-13.42S177.49,286.68,171.07,290.39Z" transform="translate(-2.26 -40.38)"/><path class="cls-5" d="M130,290.37c3.21,1.86,4.81,4.29,4.81,6.72v6.49c0,2.42-1.6,4.85-4.81,6.71a23.81,23.81,0,0,1-11.63,2.78V287.59A23.81,23.81,0,0,1,130,290.37Z" transform="translate(-2.26 -40.38)"/><path class="cls-6" d="M106.75,290.37c-3.21,1.86-4.81,4.29-4.81,6.72v6.49c0,2.42,1.6,4.85,4.81,6.71a23.81,23.81,0,0,0,11.63,2.78V287.59A23.84,23.84,0,0,0,106.75,290.37Z" transform="translate(-2.26 -40.38)"/><path class="cls-7" d="M106.75,290.37c-6.42,3.71-6.42,9.72,0,13.43s16.84,3.71,23.26,0,6.42-9.72,0-13.42S113.18,286.67,106.75,290.37Z" transform="translate(-2.26 -40.38)"/><path class="cls-8" d="M106.75,290.37c-6.42,3.71-6.42,9.72,0,13.43s16.84,3.71,23.26,0,6.42-9.72,0-13.42S113.18,286.67,106.75,290.37Z" transform="translate(-2.26 -40.38)"/></g><g id="Black_Block-3" data-name="Black Block"><polygon class="cls-5" points="446.24 284.21 380.28 322.29 380.28 282.21 446.24 244.13 446.24 284.21"/><polygon class="cls-6" points="314.32 284.21 380.28 322.29 380.28 282.21 314.32 244.13 314.32 284.21"/><polygon class="cls-7" points="446.24 244.13 380.28 206.05 314.32 244.13 380.28 282.21 446.24 244.13"/><path class="cls-5" d="M394.17,292c3.21,1.85,4.81,4.28,4.81,6.71v6.49c0,2.43-1.6,4.86-4.81,6.71a23.81,23.81,0,0,1-11.63,2.78V289.18A23.7,23.7,0,0,1,394.17,292Z" transform="translate(-2.26 -40.38)"/><path class="cls-6" d="M370.91,292c-3.21,1.85-4.81,4.28-4.81,6.71v6.49c0,2.43,1.6,4.86,4.81,6.71a23.81,23.81,0,0,0,11.63,2.78V289.18A23.7,23.7,0,0,0,370.91,292Z" transform="translate(-2.26 -40.38)"/><path class="cls-7" d="M370.91,292c-6.42,3.7-6.42,9.72,0,13.42s16.84,3.71,23.26,0,6.42-9.71,0-13.42S377.34,288.25,370.91,292Z" transform="translate(-2.26 -40.38)"/><path class="cls-8" d="M370.91,292c-6.42,3.7-6.42,9.72,0,13.42s16.84,3.71,23.26,0,6.42-9.71,0-13.42S377.34,288.25,370.91,292Z" transform="translate(-2.26 -40.38)"/><path class="cls-5" d="M394.17,254.81c3.21,1.86,4.81,4.28,4.81,6.71V268c0,2.43-1.6,4.86-4.81,6.71a23.7,23.7,0,0,1-11.63,2.78V252A23.81,23.81,0,0,1,394.17,254.81Z" transform="translate(-2.26 -40.38)"/><path class="cls-6" d="M370.91,254.81c-3.21,1.86-4.81,4.28-4.81,6.71V268c0,2.43,1.6,4.86,4.81,6.71a23.7,23.7,0,0,0,11.63,2.78V252A23.81,23.81,0,0,0,370.91,254.81Z" transform="translate(-2.26 -40.38)"/><path class="cls-7" d="M370.91,254.81c-6.42,3.71-6.42,9.72,0,13.43s16.84,3.7,23.26,0,6.42-9.72,0-13.43S377.34,251.1,370.91,254.81Z" transform="translate(-2.26 -40.38)"/><path class="cls-8" d="M370.91,254.81c-6.42,3.71-6.42,9.72,0,13.43s16.84,3.7,23.26,0,6.42-9.72,0-13.43S377.34,251.1,370.91,254.81Z" transform="translate(-2.26 -40.38)"/><path class="cls-5" d="M426.32,273.39c3.21,1.85,4.82,4.28,4.82,6.71v6.49c0,2.43-1.6,4.86-4.81,6.71a23.84,23.84,0,0,1-11.63,2.78V270.61A23.66,23.66,0,0,1,426.32,273.39Z" transform="translate(-2.26 -40.38)"/><path class="cls-6" d="M403.07,273.39c-3.21,1.85-4.81,4.28-4.81,6.71v6.49c0,2.43,1.6,4.86,4.81,6.71a23.81,23.81,0,0,0,11.63,2.78V270.61A23.7,23.7,0,0,0,403.07,273.39Z" transform="translate(-2.26 -40.38)"/><path class="cls-7" d="M403.07,273.39c-6.42,3.7-6.42,9.71,0,13.42s16.83,3.71,23.25,0,6.43-9.72,0-13.42S409.49,269.68,403.07,273.39Z" transform="translate(-2.26 -40.38)"/><path class="cls-8" d="M403.07,273.39c-6.42,3.7-6.42,9.71,0,13.42s16.83,3.71,23.25,0,6.43-9.72,0-13.42S409.49,269.68,403.07,273.39Z" transform="translate(-2.26 -40.38)"/><path class="cls-5" d="M362,273.37c3.21,1.86,4.81,4.29,4.81,6.72v6.49c0,2.42-1.6,4.85-4.81,6.71a23.81,23.81,0,0,1-11.63,2.78V270.59A23.81,23.81,0,0,1,362,273.37Z" transform="translate(-2.26 -40.38)"/><path class="cls-6" d="M338.75,273.37c-3.21,1.86-4.81,4.29-4.81,6.72v6.49c0,2.42,1.6,4.85,4.81,6.71a23.81,23.81,0,0,0,11.63,2.78V270.59A23.84,23.84,0,0,0,338.75,273.37Z" transform="translate(-2.26 -40.38)"/><path class="cls-7" d="M338.75,273.37c-6.42,3.71-6.42,9.72,0,13.43s16.84,3.71,23.26,0,6.42-9.72,0-13.42S345.18,269.67,338.75,273.37Z" transform="translate(-2.26 -40.38)"/><path class="cls-8" d="M338.75,273.37c-6.42,3.71-6.42,9.72,0,13.43s16.84,3.71,23.26,0,6.42-9.72,0-13.42S345.18,269.67,338.75,273.37Z" transform="translate(-2.26 -40.38)"/></g><g id="Black_Block-4" data-name="Black Block"><polygon class="cls-5" points="353.1 135.07 287.14 173.15 287.14 133.06 353.1 94.98 353.1 135.07"/><polygon class="cls-6" points="221.18 135.07 287.14 173.15 287.14 133.06 221.18 94.98 221.18 135.07"/><polygon class="cls-7" points="353.1 94.98 287.14 56.9 221.18 94.98 287.14 133.06 353.1 94.98"/><polygon class="cls-16" points="353.1 94.98 287.14 56.9 221.18 94.98 287.14 133.06 353.1 94.98"/><path class="cls-5" d="M301,142.81c3.21,1.86,4.81,4.29,4.81,6.71V156c0,2.43-1.6,4.86-4.81,6.72a23.81,23.81,0,0,1-11.63,2.78V140A23.81,23.81,0,0,1,301,142.81Z" transform="translate(-2.26 -40.38)"/><path class="cls-6" d="M277.77,142.81c-3.21,1.86-4.81,4.29-4.81,6.71V156c0,2.43,1.6,4.86,4.81,6.72a23.81,23.81,0,0,0,11.63,2.78V140A23.81,23.81,0,0,0,277.77,142.81Z" transform="translate(-2.26 -40.38)"/><path class="cls-7" d="M277.77,142.81c-6.42,3.71-6.42,9.72,0,13.43s16.83,3.7,23.26,0,6.42-9.72,0-13.43S284.19,139.11,277.77,142.81Z" transform="translate(-2.26 -40.38)"/><path class="cls-8" d="M277.77,142.81c-6.42,3.71-6.42,9.72,0,13.43s16.83,3.7,23.26,0,6.42-9.72,0-13.43S284.19,139.11,277.77,142.81Z" transform="translate(-2.26 -40.38)"/><path class="cls-5" d="M301,105.67c3.21,1.85,4.81,4.28,4.81,6.71v6.49c0,2.43-1.6,4.86-4.81,6.71a23.81,23.81,0,0,1-11.63,2.78V102.89A23.7,23.7,0,0,1,301,105.67Z" transform="translate(-2.26 -40.38)"/><path class="cls-6" d="M277.77,105.67c-3.21,1.85-4.81,4.28-4.81,6.71v6.49c0,2.43,1.6,4.86,4.81,6.71a23.81,23.81,0,0,0,11.63,2.78V102.89A23.7,23.7,0,0,0,277.77,105.67Z" transform="translate(-2.26 -40.38)"/><path class="cls-7" d="M277.77,105.67c-6.42,3.7-6.42,9.71,0,13.42s16.83,3.71,23.26,0,6.42-9.72,0-13.42S284.19,102,277.77,105.67Z" transform="translate(-2.26 -40.38)"/><path class="cls-8" d="M277.77,105.67c-6.42,3.7-6.42,9.71,0,13.42s16.83,3.71,23.26,0,6.42-9.72,0-13.42S284.19,102,277.77,105.67Z" transform="translate(-2.26 -40.38)"/><path class="cls-5" d="M333.18,124.24c3.21,1.86,4.82,4.28,4.82,6.71v6.49c0,2.43-1.61,4.86-4.82,6.71a23.66,23.66,0,0,1-11.62,2.78V121.46A23.77,23.77,0,0,1,333.18,124.24Z" transform="translate(-2.26 -40.38)"/><path class="cls-6" d="M309.93,124.24c-3.21,1.86-4.81,4.28-4.81,6.71v6.49c0,2.43,1.6,4.86,4.81,6.71a23.7,23.7,0,0,0,11.63,2.78V121.46A23.81,23.81,0,0,0,309.93,124.24Z" transform="translate(-2.26 -40.38)"/><path class="cls-7" d="M309.93,124.24c-6.42,3.71-6.42,9.72,0,13.43s16.83,3.7,23.25,0,6.43-9.72,0-13.43S316.35,120.53,309.93,124.24Z" transform="translate(-2.26 -40.38)"/><path class="cls-8" d="M309.93,124.24c-6.42,3.71-6.42,9.72,0,13.43s16.83,3.7,23.25,0,6.43-9.72,0-13.43S316.35,120.53,309.93,124.24Z" transform="translate(-2.26 -40.38)"/><path class="cls-5" d="M268.87,124.23c3.21,1.85,4.81,4.28,4.81,6.71v6.49c0,2.43-1.6,4.86-4.81,6.71a23.7,23.7,0,0,1-11.63,2.78V121.45A23.81,23.81,0,0,1,268.87,124.23Z" transform="translate(-2.26 -40.38)"/><path class="cls-6" d="M245.61,124.23c-3.21,1.85-4.81,4.28-4.81,6.71v6.49c0,2.43,1.6,4.86,4.81,6.71a23.7,23.7,0,0,0,11.63,2.78V121.45A23.81,23.81,0,0,0,245.61,124.23Z" transform="translate(-2.26 -40.38)"/><path class="cls-7" d="M245.61,124.23c-6.42,3.71-6.42,9.72,0,13.42s16.84,3.71,23.26,0,6.42-9.72,0-13.43S252,120.52,245.61,124.23Z" transform="translate(-2.26 -40.38)"/><path class="cls-8" d="M245.61,124.23c-6.42,3.71-6.42,9.72,0,13.42s16.84,3.71,23.26,0,6.42-9.72,0-13.43S252,120.52,245.61,124.23Z" transform="translate(-2.26 -40.38)"/></g></g><g id="Character"><g id="Character-2" data-name="Character"><polygon class="cls-9" points="353.53 78.17 287.57 116.25 287.57 76.16 353.53 38.08 353.53 78.17"/><polygon class="cls-13" points="353.53 78.17 287.57 116.25 287.57 76.16 353.53 38.08 353.53 78.17"/><polygon class="cls-9" points="221.61 78.17 287.57 116.25 287.57 76.16 221.61 38.08 221.61 78.17"/><polygon class="cls-14" points="221.61 78.17 287.57 116.25 287.57 76.16 221.61 38.08 221.61 78.17"/><polygon class="cls-9" points="353.53 38.08 287.57 0 221.61 38.08 287.57 76.16 353.53 38.08"/><polygon class="cls-17" points="353.53 38.08 287.57 0 221.61 38.08 287.57 76.16 353.53 38.08"/><path class="cls-9" d="M306.27,55.48c0-2.43-1.6-4.86-4.82-6.71-6.42-3.71-16.83-3.71-23.25,0-3.21,1.85-4.81,4.28-4.81,6.71V62c0,2.43,1.6,4.85,4.81,6.71,6.42,3.7,16.83,3.71,23.25,0,3.22-1.86,4.82-4.29,4.82-6.71Z" transform="translate(-2.26 -40.38)"/><path class="cls-13" d="M301.45,48.77c3.21,1.85,4.82,4.28,4.82,6.71V62c0,2.43-1.6,4.85-4.82,6.71a23.77,23.77,0,0,1-11.62,2.78V46A23.67,23.67,0,0,1,301.45,48.77Z" transform="translate(-2.26 -40.38)"/><path class="cls-14" d="M278.2,48.77c-3.21,1.85-4.81,4.28-4.81,6.71V62c0,2.43,1.6,4.85,4.81,6.71a23.81,23.81,0,0,0,11.63,2.78V46A23.71,23.71,0,0,0,278.2,48.77Z" transform="translate(-2.26 -40.38)"/><path class="cls-9" d="M278.2,48.77c-6.42,3.7-6.42,9.71,0,13.42s16.83,3.71,23.25,0,6.43-9.72,0-13.42S284.62,45.06,278.2,48.77Z" transform="translate(-2.26 -40.38)"/><path class="cls-9" d="M306.27,92.62c0-2.43-1.6-4.85-4.82-6.71-6.42-3.71-16.83-3.71-23.25,0-3.21,1.85-4.81,4.28-4.81,6.71v6.49c0,2.43,1.6,4.86,4.81,6.71,6.42,3.71,16.83,3.71,23.25,0,3.22-1.85,4.82-4.28,4.82-6.71Z" transform="translate(-2.26 -40.38)"/><path class="cls-13" d="M301.45,85.91c3.21,1.85,4.82,4.28,4.82,6.71v6.49c0,2.43-1.6,4.86-4.82,6.71a23.66,23.66,0,0,1-11.62,2.78V83.13A23.77,23.77,0,0,1,301.45,85.91Z" transform="translate(-2.26 -40.38)"/><path class="cls-14" d="M278.2,85.91c-3.21,1.85-4.81,4.28-4.81,6.71v6.49c0,2.43,1.6,4.86,4.81,6.71a23.7,23.7,0,0,0,11.63,2.78V83.13A23.81,23.81,0,0,0,278.2,85.91Z" transform="translate(-2.26 -40.38)"/><path class="cls-9" d="M278.2,85.91c-6.42,3.71-6.42,9.72,0,13.43s16.83,3.7,23.25,0,6.43-9.72,0-13.43S284.62,82.2,278.2,85.91Z" transform="translate(-2.26 -40.38)"/><path class="cls-9" d="M274.11,74c0-2.43-1.6-4.86-4.81-6.71-6.43-3.71-16.84-3.71-23.26,0-3.21,1.85-4.81,4.28-4.81,6.71v6.49c0,2.43,1.6,4.86,4.81,6.71,6.42,3.71,16.83,3.71,23.26,0,3.21-1.85,4.81-4.28,4.81-6.71Z" transform="translate(-2.26 -40.38)"/><path class="cls-13" d="M269.3,67.33c3.21,1.85,4.81,4.28,4.81,6.71v6.49c0,2.43-1.6,4.86-4.81,6.71A23.84,23.84,0,0,1,257.67,90V64.55A23.84,23.84,0,0,1,269.3,67.33Z" transform="translate(-2.26 -40.38)"/><path class="cls-14" d="M246,67.33c-3.21,1.85-4.81,4.28-4.81,6.71v6.49c0,2.43,1.6,4.86,4.81,6.71A23.81,23.81,0,0,0,257.67,90V64.55A23.81,23.81,0,0,0,246,67.33Z" transform="translate(-2.26 -40.38)"/><path class="cls-9" d="M246,67.33c-6.42,3.71-6.42,9.72,0,13.42s16.83,3.71,23.26,0,6.42-9.71,0-13.42S252.46,63.62,246,67.33Z" transform="translate(-2.26 -40.38)"/><path class="cls-9" d="M338.43,74.05c0-2.43-1.61-4.86-4.82-6.71-6.42-3.71-16.83-3.71-23.25,0-3.21,1.85-4.82,4.28-4.81,6.71v6.49c0,2.43,1.6,4.86,4.81,6.71,6.42,3.71,16.83,3.71,23.25,0,3.21-1.85,4.82-4.28,4.82-6.71Z" transform="translate(-2.26 -40.38)"/><path class="cls-13" d="M333.61,67.34c3.21,1.85,4.82,4.28,4.82,6.71v6.49c0,2.43-1.61,4.86-4.82,6.71A23.69,23.69,0,0,1,322,90V64.56A23.8,23.8,0,0,1,333.61,67.34Z" transform="translate(-2.26 -40.38)"/><path class="cls-14" d="M310.36,67.34c-3.21,1.85-4.82,4.28-4.81,6.71v6.49c0,2.43,1.6,4.86,4.81,6.71A23.7,23.7,0,0,0,322,90V64.56A23.81,23.81,0,0,0,310.36,67.34Z" transform="translate(-2.26 -40.38)"/><path class="cls-9" d="M310.36,67.34c-6.42,3.71-6.42,9.72,0,13.43s16.83,3.7,23.25,0,6.42-9.72,0-13.43S316.78,63.63,310.36,67.34Z" transform="translate(-2.26 -40.38)"/></g></g></svg>