<svg id="Layer_1" data-name="Layer 1" xmlns="http://www.w3.org/2000/svg" viewBox="0 0 512 512"><defs><style>.cls-1{fill:#444f60;}.cls-2{fill:#009688;}.cls-3{fill:#616b7a;}</style></defs><path class="cls-1" d="M496.14,238.87q-35.07-73.74-70.46-147.35c-1.54-3.2-5.62-9.5-16.86-4.52-8.69,3.85-17.16,8.16-25.71,12.31-9.09,4.41-10.77,8.71-6.48,17.75q34.42,72.49,69,144.93c3.53,7.4,8.42,9.43,15.87,6.11,10-4.43,19.77-9.18,29.45-14.16C497.62,250.51,499.27,245.46,496.14,238.87ZM408.32,130.25h0a10.88,10.88,0,0,1,0-21.75h0a10.88,10.88,0,0,1,0,21.75Z"/><path class="cls-1" d="M129.51,100.19q-14-7-28.18-13.57c-8.06-3.7-13-1.73-16.86,6.26Q49.88,165.32,15.34,237.76c-3.82,8-2.13,12.93,6,17Q34.08,261,47,267.06c9.5,5.43,16-.84,17.55-4Q100.1,189.51,135,115.69C138.33,108.74,136.46,103.7,129.51,100.19ZM102.3,130.25a10.88,10.88,0,1,1,10.87-10.88A10.92,10.92,0,0,1,102.3,130.25Z"/><path class="cls-2" d="M163.27,378.28c-10.45,6.92-20.43,5.52-29.72-1.58-9.08-6.95-12.76-16.19-10.24-26-6.32.69-13.29,3.08-19.37,1.67s-12.2-5.69-16.38-10.42c-7.37-8.34-6.59-20.07.33-28.78,3.76-4.72,8-9.08,11.37-14.05,1.09-1.59.75-4.86-.1-6.87-.94-2.24-3.23-3.89-4.87-5.84-11.73-13.88-11.73-13.89-1.92-30.83l22,25.49c14.72-5.62,25.79-3.89,33.73,5.15,7.44,8.47,8.45,18.58,2.5,30.5,11-5.49,20.39-3.07,28.72,4s11.79,16.31,8.45,27.86c10.17-5.8,19.37-4.41,27.74,2.08s12.67,15.15,9.61,26.91c9.15-3.07,17.1-1.73,23.91,4.65s9.26,13.64,5.83,22.27c10.67,7.58,18.27,8.5,25.2,3.3,6.34-4.77,6.45-8.84.25-13.5-12.42-9.33-25-18.46-37.27-28-5.79-4.48-4.53-12.28,2.29-13.86,2.59-.6,6.27.85,8.68,2.51,19.66,13.53,39.15,27.34,58.69,41.05,7.69,5.41,13.69,5.29,19.32-.34,7-7,6.26-16.09-1.87-22q-30.93-22.5-62-44.87c-1.13-.82-2.24-1.66-3.37-2.47-4.38-3.17-6.13-7.34-2.87-11.95,3.43-4.87,8.27-4.66,12.85-1.46,12,8.36,23.85,16.86,35.76,25.32,14,9.93,27.89,20,42,29.77,6,4.19,13.32,3.86,18-.23s6.63-11.06,3.58-16.36a26.62,26.62,0,0,0-7.61-7.79q-40-28.92-80.24-57.55c-.76-.54-1.54-1-2.27-1.62-5.35-4.24-7-9.94-3.74-13.75,4.33-5,9.32-3.3,13.73-.26,10.69,7.36,21.17,15,31.73,22.57,18.87,13.47,37.7,27,56.62,40.39,7.11,5,14.64,4.85,21.27-.1,7.16-5.36,9.56-11.52,6.71-19.32a19.9,19.9,0,0,0-5.55-7.67q-59.43-52-119-103.86c-3.49-3-6.62-6.49-9.94-9.73-12-11.72-33.18-10.18-42.75,3.41-2,2.87-3,6.71-3.66,10.24-5.07,25.36-26.57,43.63-50.8,42.88-7.25-.22-14.16-2.11-18.06-8.54-1.9-3.13-3.23-8.52-1.81-11.42,6.18-12.63,8.69-26,8.81-39.68.09-10.39,4.46-18.71,9.24-27.19,1-1.76,1.95-3.55,3.43-6.23H142c3.79-7.46,6.68-13.93,10.37-19.91.93-1.51,4.39-2,6.69-2,16.95-.15,33.89,0,50.83-.14a20.83,20.83,0,0,0,9.26-2c26.87-14.1,54.88-15.93,83.77-8,18.78,5.13,37.37,10.93,57.1,11.56,2.09.07,4.86,3.07,6,5.36,13.19,27.09,26.13,54.3,39.14,81.49,6.6,13.8,13,27.69,19.92,41.35,2.33,4.62,2.79,8.62,0,13-.87,1.35-1.2,3-2,4.41-4.38,7.17-4.71,13.05.38,21.17,13.86,22.13-1.53,49.08-23.91,50.35A50.57,50.57,0,0,0,393,354c-.22,1.54-.49,3.07-.66,4.61-2.17,19-12.44,28.43-31.7,29-3.28.1-5.82-.11-7.5,4.15-9.86,25-24.64,30.27-48.88,17.92-1-.5-2-.93-3-1.37-18,23.47-27.93,25-57,8.25-5.62,7.9-12.32,14.67-23.39,9.62C210.73,421.58,204.84,414,205.78,402c-9.79,9.47-17.42,11-27.76,6C166.74,402.45,161.5,392.13,163.27,378.28Z"/><path class="cls-3" d="M47,267.06l82.52-166.87c7,3.51,8.82,8.55,5.52,15.5Q100,189.45,64.54,263C63,266.22,56.49,272.49,47,267.06Z"/><path class="cls-3" d="M461.52,268.1c-7.45,3.32-12.34,1.29-15.87-6.11q-34.57-72.44-69-144.93c-4.29-9-2.61-13.34,6.48-17.75Z"/></svg>