<svg id="Layer_1" data-name="Layer 1" xmlns="http://www.w3.org/2000/svg" viewBox="0 0 512 512"><defs><style>.cls-1{fill:#009688;}.cls-2{fill:#444f60;}.cls-3,.cls-6{fill:#4bb7aa;}.cls-4{fill:none;stroke:#444f60;stroke-miterlimit:10;stroke-width:7px;}.cls-5{fill:#616b7a;}.cls-6{font-size:56.74px;font-family:NotoSansEthiopic-Bold, Noto Sans Ethiopic;font-weight:700;letter-spacing:-0.02em;}.cls-7{letter-spacing:0em;}</style></defs><path class="cls-1" d="M51.66,435.47V52A39.28,39.28,0,0,1,90.89,12.75H460.34V435.47Z"/><path class="cls-2" d="M456.84,16.25V432H55.16V52A35.77,35.77,0,0,1,90.89,16.25h366m7-7H90.89A42.74,42.74,0,0,0,48.16,52V439H463.84V9.25Z"/><path class="cls-3" d="M84.58,472.81a33,33,0,0,1-32.92-32.92v-1.84a33,33,0,0,1,32.92-32.92H460.34v67.68Z"/><path class="cls-2" d="M456.84,408.63v60.68H84.58a29.46,29.46,0,0,1-29.42-29.42v-1.84a29.45,29.45,0,0,1,29.42-29.42H456.84m7-7H84.58a36.53,36.53,0,0,0-36.42,36.42v1.84a36.53,36.53,0,0,0,36.42,36.42H463.84V401.63Z"/><line class="cls-4" x1="109.67" y1="10.91" x2="109.67" y2="405.47"/><line class="cls-4" x1="109.67" y1="438.97" x2="457.55" y2="438.97"/><polygon class="cls-2" points="126.82 438.97 126.82 502.75 155.01 478.07 181.27 502.75 181.27 438.97 126.82 438.97"/><polygon class="cls-5" points="126.82 438.97 126.82 502.75 155.01 478.07 155.01 438.97 126.82 438.97"/><path class="cls-3" d="M388.37,82.26a19.06,19.06,0,0,1,19,19v53.11a19.06,19.06,0,0,1-19,19H178.85a19.06,19.06,0,0,1-19-19V101.3a19.06,19.06,0,0,1,19-19H388.37m0-7H178.85a26,26,0,0,0-26,26v53.11a26,26,0,0,0,26,26H388.37a26,26,0,0,0,26-26V101.3a26,26,0,0,0-26-26Z"/><text class="cls-6" transform="translate(192.87 151.71)">እ<tspan class="cls-7" x="38.82" y="0">ውቀት</tspan></text><path class="cls-5" d="M55.16,52c.82-22.48,15.29-39.84,51-35.76v385.4c-31.69.18-37.48-.37-51,15Z"/></svg>