<svg id="Layer_1" data-name="Layer 1" xmlns="http://www.w3.org/2000/svg" viewBox="0 0 512 512"><defs><style>.cls-1,.cls-3{fill:#444f60;}.cls-2{fill:#616b7a;}.cls-3,.cls-6{stroke:#444f60;stroke-miterlimit:10;stroke-width:7px;}.cls-4,.cls-6{fill:#009688;}.cls-5{fill:#4bb7aa;}</style></defs><path class="cls-1" d="M465.81,375.94c-6.29-3.54-12.78-6.74-19.2-10.06-6.82-3.54-10.21-2.6-13.76,4.13q-28.52,54-56.92,108c-2.9,5.52-1.91,9.43,3.51,12.46q10.85,6.08,22,11.5c5.11,2.49,8.94,1.19,11.53-3.71q29-54.94,57.73-110C472,385.88,474,380.53,465.81,375.94Zm-9.1,19.84a7.91,7.91,0,1,1-9.47-12.68h0a7.91,7.91,0,0,1,9.47,12.68Z"/><path class="cls-2" d="M379.44,490.51c-5.42-3-6.41-6.94-3.51-12.46q28.41-54,56.92-108c3.55-6.73,6.94-7.67,13.76-4.13Z"/><path class="cls-3" d="M417.44,378.68,376,349.35a29.63,29.63,0,0,1-12.36-21.11L355.8,253H320l-7.1,61.15a16.07,16.07,0,0,1-13.85,14.07l-45.22,6A20.67,20.67,0,0,1,236.21,328l-71.49-75H115.61l75,118.69a45.32,45.32,0,0,0,22.77,18.36l166.41,60.7Z"/><path class="cls-4" d="M440.41,235.65H62C62,131.15,146.7,46.44,251.2,46.44S440.41,131.15,440.41,235.65Z"/><path class="cls-5" d="M251.2,235.65H62C62,131.15,146.7,46.44,251.2,46.44Z"/><circle class="cls-6" cx="251.2" cy="23.79" r="15.04"/><rect class="cls-1" x="40.1" y="245.29" width="422.19" height="10.85" rx="5.19"/><path class="cls-2" d="M45.29,245.29H251.2a0,0,0,0,1,0,0v10.85a0,0,0,0,1,0,0H45.29A5.19,5.19,0,0,1,40.1,251v-.47a5.19,5.19,0,0,1,5.19-5.19Z"/></svg>