<svg id="Layer_1" data-name="Layer 1" xmlns="http://www.w3.org/2000/svg" viewBox="0 0 512 512"><defs><style>.cls-1{fill:#4bb7aa;}.cls-2{fill:none;stroke:#4bb7aa;stroke-miterlimit:10;stroke-width:3px;}.cls-3{fill:#009688;}.cls-4{fill:#444f60;}</style></defs><path class="cls-1" d="M12.58,395.33V396A15.43,15.43,0,0,0,28,411.44H487.46A15.43,15.43,0,0,0,502.89,396v-.68Zm270.27,1.92a1.22,1.22,0,0,1-1.22,1.22H236.4a1.22,1.22,0,0,1-1.21-1.22v-.1a1.21,1.21,0,0,1,1.21-1.21h45.23a1.22,1.22,0,0,1,1.22,1.21Z"/><path class="cls-2" d="M457.84,357.74V115.9a3.91,3.91,0,0,0-4-3.8H61.62a3.9,3.9,0,0,0-4,3.8V357.74"/><path class="cls-3" d="M12.58,395.79V385.74a3,3,0,0,1,3-3H499.89a3,3,0,0,1,3,3v10.05Z"/><path class="cls-3" d="M460.37,90.42H55.11a17,17,0,0,0-17,17V377.29H477.37V107.42A17,17,0,0,0,460.37,90.42ZM257.74,92.18a3.25,3.25,0,1,1-3,3.24A3.11,3.11,0,0,1,257.74,92.18ZM467.37,367.29H48.11V107.42a7,7,0,0,1,7-7H460.37a7,7,0,0,1,7,7Z"/><path class="cls-4" d="M425.05,217.73a66.85,66.85,0,1,0-66.62,67.12A67,67,0,0,0,425.05,217.73Zm-11.15,29.2c-2.36-1.52-6.86-3.36-15.5-5.29l-2.1-.45a107.46,107.46,0,0,0,2.43-23.36l22.25-.09A62.4,62.4,0,0,1,413.9,246.93ZM360.25,213.8l-.06-15.51a191.6,191.6,0,0,0,31.94-3.07,102.45,102.45,0,0,1,2.44,18.45Zm34.42,4a103.36,103.36,0,0,1-2.36,22.59,192.69,192.69,0,0,0-32-2.82L360.26,218Zm-34.5-23.62L360,155.28a23.2,23.2,0,0,1,8.76,2.68c9.86,5.24,18,17.48,22.36,33.34A186.77,186.77,0,0,1,360.17,194.22Zm-27.66-20.95c6.35-10.78,14.58-17.09,23.34-18l.15,39a192.52,192.52,0,0,1-31-2.7A74.39,74.39,0,0,1,332.51,173.27Zm23.51,25,.06,15.52-34.32.13a101.62,101.62,0,0,1,2.3-18.46A192.85,192.85,0,0,0,356,198.3Zm.07,19.69.08,19.64a191.11,191.11,0,0,0-32,3.06,103.53,103.53,0,0,1-2.52-22.57Zm.09,23.7.15,39a23,23,0,0,1-8.75-2.68c-9.88-5.24-18-17.51-22.38-33.39A185.94,185.94,0,0,1,356.18,241.69Zm27.66,21c-6.35,10.78-14.57,17.09-23.34,18l-.15-39a190.08,190.08,0,0,1,31,2.71A73.7,73.7,0,0,1,383.84,262.69Zm37-49.12-22.19.09a105.39,105.39,0,0,0-2.53-19.23c.77-.16,1.47-.32,2.1-.47,8.66-2,13.14-3.88,15.47-5.43A62.32,62.32,0,0,1,420.83,213.57ZM402.42,173.4A63.29,63.29,0,0,1,411.67,185c-1.87,1.38-7.68,3.57-16.54,5.47A78,78,0,0,0,387,171a48.48,48.48,0,0,0-11.37-13.37,61.46,61.46,0,0,1,12,4.83A63.06,63.06,0,0,1,402.42,173.4Zm-62.14-15.65A49,49,0,0,0,329,171.21a78.39,78.39,0,0,0-8,19.57l-.5-.1c-10-2.08-14.53-4.15-16.11-5.22a63.38,63.38,0,0,1,9.18-11.72A62.53,62.53,0,0,1,340.28,157.75ZM302.43,189a12.32,12.32,0,0,0,1.18.69c2.59,1.38,6.95,2.95,14.3,4.59l2.16.46A105.79,105.79,0,0,0,317.69,214l-22.19.08A62.33,62.33,0,0,1,302.43,189Zm-7.06,29.23,22.25-.08a107.82,107.82,0,0,0,2.61,23.34c-.78.16-1.49.32-2.13.47-8.64,2-13.12,3.88-15.45,5.43A62.44,62.44,0,0,1,295.37,218.22Zm18.57,44.34a63.15,63.15,0,0,1-9.29-11.69c1.89-1.37,7.71-3.57,16.56-5.47A78.42,78.42,0,0,0,329.37,265a48.53,48.53,0,0,0,11.39,13.37A62.46,62.46,0,0,1,313.94,262.56Zm62.18,15.61a48.5,48.5,0,0,0,11.22-13.42,78.27,78.27,0,0,0,8-19.6l.44.09c10,2.08,14.58,4.17,16.13,5.23A63.07,63.07,0,0,1,376.12,278.17Z"/><path class="cls-4" d="M190.45,193.14H101.2a18.43,18.43,0,0,0-18.39,18.38V444.06a18.43,18.43,0,0,0,18.39,18.38h89.25a18.44,18.44,0,0,0,18.39-18.38V211.52A18.44,18.44,0,0,0,190.45,193.14ZM170.69,199a1.65,1.65,0,0,1,1.65-1.65h3.71a1.64,1.64,0,0,1,1.64,1.65v1a1.64,1.64,0,0,1-1.64,1.64h-3.71a1.65,1.65,0,0,1-1.65-1.64Zm-37.07,0a1.65,1.65,0,0,1,1.65-1.65h21.11A1.64,1.64,0,0,1,158,199v1a1.64,1.64,0,0,1-1.64,1.64H135.27a1.65,1.65,0,0,1-1.65-1.64Zm-15-.12a1.53,1.53,0,0,1,1.53-1.53h1a1.54,1.54,0,0,1,1.53,1.53v1.27a1.53,1.53,0,0,1-1.53,1.53h-1a1.52,1.52,0,0,1-1.53-1.53ZM146,352a50.67,50.67,0,1,1,50.67-50.66A50.67,50.67,0,0,1,146,352Z"/><path class="cls-3" d="M129.93,327.38a43.4,43.4,0,0,1-4.5-10.8c-4.88,1.05-8.09,2.26-9.13,3a35,35,0,0,0,5.12,6.45,34.53,34.53,0,0,0,14.79,8.71A27,27,0,0,1,129.93,327.38Z"/><path class="cls-3" d="M124.89,314.42a59.1,59.1,0,0,1-1.44-12.88l-12.27,0a34.42,34.42,0,0,0,4,16.08c1.29-.85,3.76-1.89,8.52-3Z"/><path class="cls-3" d="M124.8,288.63l-1.19-.25a32.65,32.65,0,0,1-7.89-2.53c-.24-.13-.46-.26-.65-.38a34.33,34.33,0,0,0-3.82,13.82l12.24-.05A58.64,58.64,0,0,1,124.8,288.63Z"/><path class="cls-3" d="M127.63,316.15c2.42,8.76,6.9,15.52,12.35,18.42a12.84,12.84,0,0,0,4.83,1.48l-.09-21.51A101.64,101.64,0,0,0,127.63,316.15Z"/><path class="cls-3" d="M151.67,268.35a12.84,12.84,0,0,0-4.83-1.48l.08,21.48A102.7,102.7,0,0,0,164,286.74C161.59,278,157.11,271.24,151.67,268.35Z"/><path class="cls-3" d="M127.09,314a105.72,105.72,0,0,1,17.63-1.68l-.05-10.84-19,.07A56.77,56.77,0,0,0,127.09,314Z"/><path class="cls-3" d="M127.54,286.87a105.09,105.09,0,0,0,17.08,1.49l-.08-21.48c-4.84.49-9.37,4-12.87,9.91A40.52,40.52,0,0,0,127.54,286.87Z"/><path class="cls-3" d="M125.33,286.45a43.13,43.13,0,0,1,4.41-10.79,26.89,26.89,0,0,1,6.21-7.43,34.51,34.51,0,0,0-14.72,8.82,35.11,35.11,0,0,0-5.06,6.47c.87.59,3.38,1.73,8.89,2.88Z"/><path class="cls-3" d="M125.73,299.23l18.93-.07,0-8.56A106.2,106.2,0,0,1,127,289.05,57.48,57.48,0,0,0,125.73,299.23Z"/><path class="cls-3" d="M162,270.82a34.65,34.65,0,0,0-6.6-2.66,26.73,26.73,0,0,1,6.27,7.37,43.34,43.34,0,0,1,4.5,10.77c4.88-1.05,8.09-2.26,9.12-3A35.1,35.1,0,0,0,162,270.82Z"/><path class="cls-3" d="M166.75,288.47a58.38,58.38,0,0,1,1.39,10.6l12.24,0a34.22,34.22,0,0,0-3.94-13.82c-1.28.86-3.75,1.89-8.53,3Z"/><path class="cls-3" d="M194.29,204.55H97.36A12.29,12.29,0,0,0,85.1,216.81V444.14A12.29,12.29,0,0,0,97.36,456.4h96.93a12.3,12.3,0,0,0,12.26-12.26V216.81A12.3,12.3,0,0,0,194.29,204.55ZM146,338.34a36.89,36.89,0,1,1,36.75-37A36.65,36.65,0,0,1,146,338.34Z"/><path class="cls-3" d="M166.85,314.26l1.16.25c4.77,1.06,7.25,2.08,8.55,2.92a34.39,34.39,0,0,0,3.91-16.1l-12.28,0A58.69,58.69,0,0,1,166.85,314.26Z"/><path class="cls-3" d="M164.55,288.9a105.4,105.4,0,0,1-17.62,1.69l0,8.56,18.93-.07A56.34,56.34,0,0,0,164.55,288.9Z"/><path class="cls-3" d="M166.32,316.44a43,43,0,0,1-4.41,10.82,26.84,26.84,0,0,1-6.19,7.4,34.76,34.76,0,0,0,19.74-15.28c-.85-.59-3.36-1.74-8.89-2.89Z"/><path class="cls-3" d="M166,301.38l-19,.07.05,10.84a106.2,106.2,0,0,1,17.63,1.55A56.54,56.54,0,0,0,166,301.38Z"/><path class="cls-3" d="M164.12,316a105.34,105.34,0,0,0-17.1-1.49l.09,21.51c4.83-.49,9.37-4,12.87-9.92A40.9,40.9,0,0,0,164.12,316Z"/><rect class="cls-4" x="207.31" y="243.01" width="3.06" height="21.82" rx="1.53"/><rect class="cls-4" x="207.31" y="267.01" width="3.06" height="21.82" rx="1.53"/><rect class="cls-4" x="207.31" y="301.64" width="3.06" height="14.07" rx="1.53"/></svg>