<svg id="Layer_1" data-name="Layer 1" xmlns="http://www.w3.org/2000/svg" viewBox="0 0 988.76 990.42"><defs><style>.cls-1{fill:#98a3a5;}.cls-2{fill:#d4f8f2;}.cls-3,.cls-8{fill:#fff;}.cls-3{isolation:isolate;opacity:0.5;}.cls-4{fill:#9fbab6;}.cls-5{fill:#455a64;}.cls-6{fill:#dadcdf;}.cls-7{fill:#3a504e;}.cls-9{opacity:0.8;}.cls-10{fill:#6a7b83;}.cls-11{fill:#99d5cf;}.cls-12{fill:#009688;}.cls-13{fill:#007166;}.cls-14{fill:#003933;}.cls-15{fill:#4f5b6e;}.cls-16{fill:#7d6055;}.cls-17{fill:#7f773a;}.cls-18{fill:#8c6655;}.cls-19{fill:#959f7a;}.cls-20{fill:#169789;}.cls-21{fill:#bf783c;}.cls-22{fill:#da8a48;}.cls-23{fill:#eb9650;}.cls-24{fill:#cd8142;}.cls-25{fill:#e5904c;}.cls-26{fill:#060809;}.cls-27{fill:#8c592e;}.cls-28{fill:#221d10;}.cls-29{fill:#fefefe;}</style></defs><path class="cls-1" d="M879.76,856.39c-19.72,20.86-39.16,33.72-54.21,44.17-176.82,122.79-386,87-430.52,78.26C329.36,965.91,202.43,941,110.67,836.51c-138.84-158-152.63-708-9.53-571.32,63.1,60.27,144.41-153.91,335.24-223.66C557.13-2.61,738.66,35.39,821.6,145.64,988.39,367.44,1018.18,709.94,879.76,856.39Z" transform="translate(0 0)"/><path class="cls-2" d="M274.06,652.08s3-127.75-55.8-161.94-170.73-55.57-174.92-239c-2.46-107.39-5.11-154.35-6.9-174.82a12.1,12.1,0,0,1,11-13.09,12,12,0,0,1,3.27.16c55.72,10.49,236.76,53.71,274.72,177.27C370.45,387.11,274.06,652.08,274.06,652.08Z" transform="translate(0 0)"/><path class="cls-3" d="M93.82,114.39C155,168.94,225.73,265.5,263.44,362.06c4.84,15.91,19,49.75,25.14,109.88,5.49,50.15,2.76,103.14-3.9,138.21a4.09,4.09,0,0,1-4.77,3.24c-3.82-.73-3.31-4.83-3.28-4.7,7.61-59.93,4.45-134.52-13-201.83-22.26-82.64-71.91-162.76-123.26-230.72l-5.28-6.69c-39.79-51.09-48.16-51.47-44.44-55A2.31,2.31,0,0,1,93.82,114.39Z" transform="translate(0 0)"/><path class="cls-4" d="M368.62,897.71c8,3.9-75.37-100.88-101.47-265.46-12.3-77.55-12.46-174.72-56.64-212.16-36.77-31.17-161.88-11.49-202.82-4a6.14,6.14,0,0,0-2.85,10.74c19.63,16.47,61.62,55.36,72.57,94.56,14.42,51.66,63.53,84.52,107.5,93.42s68.43,17.52,89.85,87.84S346,886.62,368.62,897.71Z" transform="translate(0 0)"/><path class="cls-3" d="M65.27,437.9c52.23,2.19,108.29,26,136.74,70.71l2.69,4.26c6.2,10,41.35,81.09,60.87,140a1.38,1.38,0,0,1-.87,1.76h0a1.42,1.42,0,0,1-1.75-.84c-13.6-33.28-33.14-75.49-48.7-107-16.68-34.44-28.36-57.77-66.42-80.11-42.36-24.1-82.8-26.57-82.7-26.55a1.12,1.12,0,0,1-1-1.23h0A1.14,1.14,0,0,1,65.27,437.9Z" transform="translate(0 0)"/><path class="cls-2" d="M332.9,911.5c4.72,2.49-26.61-51.45-29-99s-13.14-128.59-54.12-177.11-85.85-52.94-142.39-8.84c-47.12,36.75-76.51,55.3-93.75,58.75a6.51,6.51,0,0,0-5,7.71,6.32,6.32,0,0,0,.66,1.79c11.05,20.36,42.31,67.12,94.79,63.83,67-4.2,148.08-47.72,172.81-11.41s21.55,56.61,22.31,73.82S301.63,895,332.9,911.5Z" transform="translate(0 0)"/><path class="cls-3" d="M126.38,684.81c20.51-19.66,53.91-39,83.1-35.38,38,6.12,63.28,31.48,77.08,69.24,5.4,16,7.62,24.59,10.81,44.24a1.25,1.25,0,0,1-2.45.5c-2.32-9.23-4.62-18.89-8.06-28.89-20-64.48-62.75-73.17-64.41-74.49-3.23.32-22.82-14.34-69.29,10.66a207.46,207.46,0,0,0-25.06,16.07h0a1.31,1.31,0,1,1-1.68-2Z" transform="translate(0 0)"/><path class="cls-5" d="M293.78,76.83a43,43,0,0,0-39.18,42.7c-.39,135.91-1,604.72,7.83,770.65a33.33,33.33,0,0,0,33,31.57c87.06.94,337.5,2.66,479.67-6.43a56.15,56.15,0,0,0,52.62-56.09c-.17-142.65-2.45-543.82-22-727.19a45.82,45.82,0,0,0-42-40.84C668.7,83.8,416.54,66.16,293.78,76.83Z" transform="translate(0 0)"/><path class="cls-6" d="M289.54,155.14c-1.71,116.27-6.57,503,1.92,645.77,1.25,20.87,17.45,37.34,37.47,38,82.39,2.91,293.68,8.48,414.08-4.78,21.68-2.39,38.25-21.18,38.83-43.93,3-118.65,11.14-478.87,2.88-620-1.31-22.52-18.52-40.48-40.08-41.94-89.22-6-318.3-19.87-420.68-11.35C304.73,118.49,289.84,135,289.54,155.14Z" transform="translate(0 0)"/><path class="cls-7" d="M488.62,97.05a6,6,0,0,0,5.84,5.9c15.86.48,60.52,1.85,80.48,2.57a6,6,0,0,0,6.25-5.74,5.93,5.93,0,0,0-.14-1.57c-.07-.12-.58-5.06-5.62-5.41-13.5-.94-54.24-3.47-81.16-1.92C488.74,91.2,488.44,97.49,488.62,97.05Z" transform="translate(0 0)"/><circle class="cls-8" cx="441.34" cy="281.02" r="119.11"/><g class="cls-9"><rect class="cls-8" x="660.36" y="153.7" width="29" height="144.73" rx="11.97" transform="translate(438.57 897.41) rotate(-89.13)"/><rect class="cls-8" x="659.43" y="213.14" width="29" height="144.73" rx="4.28" transform="translate(378.23 955.02) rotate(-89.13)"/><rect class="cls-8" x="658.55" y="272.5" width="29" height="144.73" rx="11.97" transform="translate(318.01 1012.61) rotate(-89.13)"/></g><path class="cls-10" d="M623.06,151a1.3,1.3,0,0,1-.85-1.12c-.13-1.7-.22-3.44-.28-5.16a1.27,1.27,0,0,1,1.24-1.3h0c1.74,0,1.27,1.7,1.62,6.31a1.26,1.26,0,0,1-1.17,1.35h0A1.42,1.42,0,0,1,623.06,151Z" transform="translate(0 0)"/><path class="cls-10" d="M622.45,128.6c.32-3.27.78-6.56,1.35-9.79a1.28,1.28,0,0,1,1.51-1h0c1.93.37.67,1.46-.27,11.09a1.27,1.27,0,0,1-1.39,1.13h0A1.3,1.3,0,0,1,622.45,128.6Zm5.19-25.37c1-3.15,2.12-6.31,3.33-9.3a1.31,1.31,0,0,1,2.42,1c-1.2,3-2.3,6-3.27,9.11a1.3,1.3,0,0,1-2.48-.79h0Zm10.3-23.75c1.61-2.85,3.36-5.68,5.2-8.4a1.3,1.3,0,0,1,2.17,1.44h0c-1.8,2.66-3.51,5.43-5.09,8.23a1.31,1.31,0,0,1-2.28-1.27Zm15.19-19.3a1.27,1.27,0,0,1-.12-1.79c2.18-2.47,4.49-4.87,6.87-7.16a1.3,1.3,0,0,1,1.83,1.84c-2.32,2.24-4.59,4.6-6.72,7A1.32,1.32,0,0,1,653.13,60.18Zm18.8-17.58a1.27,1.27,0,0,1,.21-1.77l0,0c2.65-2,5.42-3.86,8.22-5.61a1.31,1.31,0,0,1,1.42,2.19h0c-2.74,1.72-5.45,3.57-8,5.5a1.34,1.34,0,0,1-1.87-.28Zm22.82-12.76a1.35,1.35,0,0,1-.72-.65,1.25,1.25,0,0,1,.55-1.68l0,0c3-1.39,6.12-2.69,9.22-3.84a1.32,1.32,0,0,1,1.69.75,1.25,1.25,0,0,1-.71,1.63h0c-3,1.13-6.09,2.4-9,3.76A1.31,1.31,0,0,1,694.75,29.84Zm24.55-8.45a1.34,1.34,0,0,1-.82-.9,1.26,1.26,0,0,1,.91-1.53h0c3.24-.76,6.55-1.4,9.85-1.91a1.32,1.32,0,0,1,1.5,1.07,1.26,1.26,0,0,1-1,1.46h0c-3.23.5-6.48,1.12-9.66,1.87A1.31,1.31,0,0,1,719.3,21.39Zm25-4.49a1.26,1.26,0,0,1,1.21-1.31h0c3.34-.09,6.73-.05,10.07.12a1.28,1.28,0,0,1-.09,2.56c-3.28-.17-6.6-.21-9.87-.13a1.3,1.3,0,0,1-1.34-1.23Zm83.31,27.77c-7.79-6-9.54-5.85-8.47-7.47a1.3,1.3,0,0,1,1.79-.35c2.82,1.82,5.59,3.78,8.25,5.81a1.28,1.28,0,1,1-1.4,2.14,1,1,0,0,1-.16-.12Zm-57.2-26.06a1.26,1.26,0,0,1,1.49-1h0c3.29.59,6.61,1.31,9.86,2.14a1.27,1.27,0,0,1-.62,2.47h0c-3.19-.81-6.44-1.52-9.67-2.09a1.29,1.29,0,0,1-1.07-1.49Zm35.12,12.5c-8.82-4.27-10.53-3.83-9.82-5.63a1.31,1.31,0,0,1,1.68-.71c3.13,1.23,6.24,2.59,9.26,4a1.28,1.28,0,0,1-1,2.34l-.09,0Z" transform="translate(0 0)"/><path class="cls-10" d="M843.37,58.93c-3-3.19-4.84-4.27-3.6-5.49a1.32,1.32,0,0,1,1.84,0c3.22,3.18,4.84,4.45,3.6,5.56A1.47,1.47,0,0,1,843.37,58.93Z" transform="translate(0 0)"/><path class="cls-10" d="M878.15,152.09a1.27,1.27,0,0,1-.84-1.28c.09-1.68.14-3.38.16-5a1.25,1.25,0,0,1,1.28-1.24h0a1.32,1.32,0,0,1,1.28,1.31c0,1.71-.08,3.44-.17,5.16a1.28,1.28,0,0,1-1.36,1.19A1.07,1.07,0,0,1,878.15,152.09Z" transform="translate(0 0)"/><path class="cls-10" d="M702.77,259.44c-3.34-1.37-6.67-2.89-9.89-4.53a1.27,1.27,0,0,1-.58-1.7v0c.91-1.76,1.64-.11,11.43,3.89a1.29,1.29,0,0,1,.72,1.68h0A1.32,1.32,0,0,1,702.77,259.44Zm15.82,4c.49-1.91,1.63-.45,12,1.38a1.31,1.31,0,0,1,1.07,1.49,1.29,1.29,0,0,1-1.5,1c-3.54-.63-7.11-1.41-10.61-2.33a1.3,1.3,0,0,1-1-1.51Zm-40.87-17.6c-3-2-5.88-4.26-8.67-6.55a1.27,1.27,0,0,1-.19-1.79h0c1.29-1.52,1.64.25,10.32,6.26a1.28,1.28,0,0,1,.35,1.78h0a1.31,1.31,0,0,1-1.81.33Zm69.54,23.31a1.3,1.3,0,0,1-.85-1.24,1.28,1.28,0,0,1,1.33-1.23h0c3.53.15,7.1.14,10.62,0a1.32,1.32,0,0,1,1.37,1.22,1.27,1.27,0,0,1-1.18,1.34h0c-3.59.15-7.24.15-10.84,0a1.52,1.52,0,0,1-.42-.06Zm28-1.92a1.31,1.31,0,0,1-.83-1,1.25,1.25,0,0,1,1-1.48h0c3.45-.63,6.93-1.4,10.32-2.31a1.31,1.31,0,0,1,1.61.9,1.26,1.26,0,0,1-.86,1.56h0c-3.46.92-7,1.72-10.54,2.35a1.2,1.2,0,0,1-.65,0Zm26.82-7.93a1.31,1.31,0,0,1-.74-.7A1.25,1.25,0,0,1,802,257l0,0c3.23-1.36,6.44-2.86,9.54-4.48a1.31,1.31,0,0,1,1.76.54,1.25,1.25,0,0,1-.49,1.71l0,0c-3.16,1.64-6.43,3.18-9.73,4.56a1.3,1.3,0,0,1-.95.05Zm24.33-13.52a1.32,1.32,0,0,1-.59-.45,1.24,1.24,0,0,1,.23-1.75l0,0c2.84-2,5.63-4.18,8.29-6.42a1.31,1.31,0,0,1,1.83.14,1.27,1.27,0,0,1-.1,1.79l0,0c-2.71,2.29-5.56,4.49-8.45,6.55a1.34,1.34,0,0,1-1.21.18Zm20.28-18.69c-1.53-1.33.27-1.59,6.49-9.88a1.3,1.3,0,0,1,2.1,1.53c-2.12,2.83-4.4,5.61-6.76,8.25a1.31,1.31,0,0,1-1.81.13Zm16.21-22.38c-1.78-1-.1-1.6,4.09-11.07a1.31,1.31,0,0,1,2.39,1.05c-1.43,3.23-3,6.44-4.72,9.53a1.29,1.29,0,0,1-1.74.52Zm10.65-25.43a1.28,1.28,0,0,1-.8-1.55c1-3.34,1.78-6.75,2.44-10.13a1.29,1.29,0,0,1,1.52-1,1.31,1.31,0,0,1,1,1.52c-.68,3.45-1.52,6.93-2.49,10.34a1.3,1.3,0,0,1-1.61.86Z" transform="translate(0 0)"/><path class="cls-10" d="M656.18,227.18c-3.08-3.32-4.63-4.65-3.33-5.71s2.09.61,5.24,4a1.26,1.26,0,0,1,0,1.77l0,0A1.33,1.33,0,0,1,656.18,227.18Z" transform="translate(0 0)"/><path class="cls-10" d="M670.4,194.87l18.48-2.29a82.5,82.5,0,0,0,20,17.1c.72,17.82-.49,19.12,1.42,19.76l21.3,7.09a1.52,1.52,0,0,0,1.69-.5l11.22-14.48a82.49,82.49,0,0,0,26.26-1.67l13.45,12.92a1.55,1.55,0,0,0,1.76.28l20-9.69a1.48,1.48,0,0,0,.82-1.54l-2.61-18.21a78.35,78.35,0,0,0,17.09-19.44l18.65-.07a1.49,1.49,0,0,0,1.43-1l6.9-20.83a1.52,1.52,0,0,0-.54-1.68l-14.9-11.25a78.89,78.89,0,0,0-2.1-25.84c12.37-13,14.11-13,13.21-14.75C833.63,89.59,834.22,88,832.19,88.21l-18.48,2.28a82.91,82.91,0,0,0-20-17.1c-.72-17.81.49-19.12-1.42-19.75C771,47,770.5,45.49,769.29,47L758,61.49a82.2,82.2,0,0,0-26.26,1.67C718.52,51,718.34,49.08,716.54,50c-19.56,10-21,9.29-20.75,11.26l2.6,18.2A78.78,78.78,0,0,0,681.3,98.86c-17.8.43-19.45-.82-20.08,1.09-6.45,20.73-8,21.29-6.36,22.51l14.9,11.24a78.89,78.89,0,0,0,2.1,25.84c-12.33,12.94-14.11,13-13.2,14.75C669,193.49,668.38,195.12,670.4,194.87Z" transform="translate(0 0)"/><path class="cls-8" d="M729.49,139.78a21.35,21.35,0,0,1,22.9-19.68l.32,0A22,22,0,0,1,773,143.25a21.35,21.35,0,0,1-22.89,19.69l-.33,0h0A22,22,0,0,1,729.49,139.78ZM750,161Zm2.49-37a17.5,17.5,0,0,0-19,15.83l0,.31a18.06,18.06,0,0,0,16.71,19,17.54,17.54,0,0,0,19.05-15.87c0-.09,0-.18,0-.27a18.07,18.07,0,0,0-16.76-19Z" transform="translate(0 0)"/><path class="cls-8" d="M732.27,192.59h0a56.16,56.16,0,0,1-8.72-4.15,1.93,1.93,0,0,1-.86-2.34,2.1,2.1,0,0,1,.15-.3,2,2,0,0,1,2.66-.65,54.6,54.6,0,0,0,10.13,4.58h0c26.64,8.87,55.28-4.53,64.89-30,.24-.65.47-1.3.7-2,8.89-26.88-6.23-55.86-33.5-65s-56.7,5.15-65.59,32c-5.28,16-.66,26.67-1.28,28.31a2,2,0,0,1-3.73-.28,54,54,0,0,1,2-31.38C716,76.85,779.42,74.14,801.52,117a54,54,0,0,1,3.41,42c-.24.72-.49,1.43-.76,2.14a53.85,53.85,0,0,1-27,29.49,56.31,56.31,0,0,1-42.74,2.77Z" transform="translate(0 0)"/><path class="cls-10" d="M888.06,100.06a45.39,45.39,0,0,0,11.83,8.7l.94,10.35c.1,1.15,1.06.64,12.77,3.74,1.08.27.89-.71,6.56-9.1a45.48,45.48,0,0,0,14.51-2.22l8,6.66c.89.74,1.19-.3,11.67-6.39a.85.85,0,0,0,.39-.91l-2.19-10.17a45.39,45.39,0,0,0,8.7-11.83c9.88-1.1,10.84-.48,11.11-1.59,2.74-12,3.56-12.43,2.62-13l-8.74-5.64A45.21,45.21,0,0,0,964,54.11l6.66-8c.74-.88-.3-1.19-6.38-11.66-.58-1-1.1-.14-11.09,1.79a45.34,45.34,0,0,0-11.82-8.7l-1-10.36c-.1-1.15-1-.63-12.76-3.73-1.08-.27-.87.67-6.56,9.1a45,45,0,0,0-14.52,2.22l-8-6.66a.86.86,0,0,0-1-.07L886.86,24.5a.85.85,0,0,0-.39.91l2.19,10.17A45.05,45.05,0,0,0,880,47.39c-9.87,1.1-10.83.48-11.1,1.58C866.16,61,865.34,61.41,866.29,62L875,67.68a45.52,45.52,0,0,0,2.22,14.51c-6.2,7.77-7.32,8-6.73,9L877,101.85C877.56,102.81,878.12,102,888.06,100.06Z" transform="translate(0 0)"/><path class="cls-8" d="M907.61,68.23a13,13,0,1,1,13.1,12.94h0a13,13,0,0,1-13.1-12.9Zm13.09,11Zm-9.21-11a9.16,9.16,0,0,0,9.2,9.09h0a9.14,9.14,0,1,0-9.2-9.09Z" transform="translate(0 0)"/><path class="cls-10" d="M856.81,92.2c-.62-1.64-1.18-3.32-1.67-5a1.3,1.3,0,0,1,.88-1.6c1.73-.5,1.62,1.47,3.21,5.69a1.29,1.29,0,1,1-2.42.92Z" transform="translate(0 0)"/><path class="cls-10" d="M852.47,70.1A68.79,68.79,0,0,1,853,59.46a1.3,1.3,0,0,1,2.57.33c-1.2,9.37.41,11.51-1.76,11.57a1.3,1.3,0,0,1-1.35-1.25Zm5.59-25.71a1.28,1.28,0,0,1-.73-1.66v0a68.43,68.43,0,0,1,4.74-9.55,1.29,1.29,0,0,1,2.22,1.33,65.91,65.91,0,0,0-4.56,9.18A1.3,1.3,0,0,1,858.06,44.39Zm15.15-22.68a1.41,1.41,0,0,1-.46-.3,1.28,1.28,0,0,1,0-1.82h0a67.64,67.64,0,0,1,8.15-6.87,1.28,1.28,0,0,1,1.79.28h0a1.3,1.3,0,0,1-.29,1.81,63.88,63.88,0,0,0-7.83,6.58A1.32,1.32,0,0,1,873.21,21.71ZM896.12,6.9a1.27,1.27,0,0,1-.75-.74,1.29,1.29,0,0,1,.74-1.67h0a67.25,67.25,0,0,1,10.22-3,1.3,1.3,0,0,1,1.54,1v0a1.31,1.31,0,0,1-1,1.54A63.92,63.92,0,0,0,897,6.9,1.24,1.24,0,0,1,896.12,6.9Zm26.09-5.66A1.3,1.3,0,0,1,923.56,0a68.54,68.54,0,0,1,10.58,1.28,1.29,1.29,0,0,1-.51,2.53,65.8,65.8,0,0,0-10.18-1.22A1.3,1.3,0,0,1,922.21,1.24Z" transform="translate(0 0)"/><path class="cls-10" d="M953.91,11.58c-4.09-2.41-5.83-2.57-5.06-4.14a1.29,1.29,0,0,1,1.73-.59h0c1.57.77,3.13,1.61,4.65,2.5a1.3,1.3,0,0,1-1.32,2.23Z" transform="translate(0 0)"/><path class="cls-10" d="M985,55.2c-.93-4.68-2-6.06-.29-6.53a1.3,1.3,0,0,1,1.6.88h0c.47,1.68.89,3.4,1.23,5.13a1.3,1.3,0,0,1-2.54.51Z" transform="translate(0 0)"/><path class="cls-10" d="M902.84,132.66c.53-2.08,2.2-.09,11.51.79a1.3,1.3,0,0,1-.25,2.58,68.28,68.28,0,0,1-10.33-1.8,1.29,1.29,0,0,1-.93-1.57Zm26.78,1.8a1.31,1.31,0,0,1,1.09-1.48c9.31-1.43,10.78-3.51,11.44-1.46a1.31,1.31,0,0,1-.84,1.63,68.78,68.78,0,0,1-10.21,2.39,1.29,1.29,0,0,1-1.48-1.08ZM955,125.6c-1.14-1.83,1.44-1.65,8.53-7.77a1.31,1.31,0,1,1,1.69,2,70.18,70.18,0,0,1-8.43,6.22,1.3,1.3,0,0,1-1.79-.45Zm19.82-18.11c-1.77-1.24.68-2.08,4.81-10.49a1.29,1.29,0,1,1,2.32,1.14h0a69.59,69.59,0,0,1-5.33,9,1.3,1.3,0,0,1-1.79.36Zm10.11-26c1.92-9.22.48-11.34,2.64-11.23a1.29,1.29,0,0,1,1.23,1.35h0A69.81,69.81,0,0,1,987.42,82a1.3,1.3,0,0,1-2.54-.52Z" transform="translate(0 0)"/><path class="cls-10" d="M887.89,128c-1.53-.84-3.06-1.75-4.52-2.71a1.28,1.28,0,0,1-.38-1.77v0c1-1.51,2.18.06,6.14,2.23a1.31,1.31,0,0,1,.51,1.76,1.29,1.29,0,0,1-1.75.52Z" transform="translate(0 0)"/><path class="cls-8" d="M906.84,96.83a1.94,1.94,0,0,1,1.55-3.56l.08,0a28.88,28.88,0,0,0,5.64,2,28.15,28.15,0,0,0,21.32-3.25c21.38-12.93,16.44-45.49-7.85-51.46A28.21,28.21,0,0,0,894.5,58c-5,13.24,2.14,19.43-1.87,20.67a2,2,0,0,1-2.43-1.26,32.06,32.06,0,1,1,23,21.72h0A32,32,0,0,1,906.84,96.83Z" transform="translate(0 0)"/><rect class="cls-11" x="464.53" y="748.62" width="165.76" height="59.75" rx="24.66"/><g class="cls-9"><rect class="cls-8" x="393.33" y="499.38" width="343.9" height="32.9" rx="13.52"/><circle class="cls-8" cx="349.21" cy="515.73" r="19.94"/><rect class="cls-8" x="393.33" y="561.11" width="343.9" height="32.9" rx="13.52"/><circle class="cls-8" cx="349.22" cy="577.46" r="19.94"/><rect class="cls-8" x="393.33" y="622.84" width="343.9" height="32.9" rx="13.52"/><circle class="cls-8" cx="349.21" cy="639.19" r="19.94"/><rect class="cls-8" x="393.33" y="684.57" width="343.9" height="32.9" rx="13.52"/><circle class="cls-8" cx="349.21" cy="700.92" r="19.94"/></g><path class="cls-10" d="M238.83,211.33l-6.69,5.17h0a1.09,1.09,0,0,1-1.33-1.73h0l6.83-5.07a1,1,0,0,1,1.22,1.61Z" transform="translate(0 0)"/><path class="cls-10" d="M215.47,230.39c-4.23,3.7-8.38,7.49-12.47,11.33a1.45,1.45,0,1,1-2-2.1h0q6.25-5.72,12.75-11.17a1.31,1.31,0,1,1,1.68,2Z" transform="translate(0 0)"/><path class="cls-10" d="M187.56,256.88q-5.87,6-11.5,12.31a1.7,1.7,0,0,1-2.53-2.28h0q5.76-6.23,11.75-12.24a1.59,1.59,0,1,1,2.27,2.23h0Z" transform="translate(0 0)"/><path class="cls-10" d="M162,285.62q-5.32,6.53-10.4,13.24a2,2,0,0,1-3.15-2.38h0q5.21-6.71,10.67-13.2a1.85,1.85,0,1,1,2.86,2.36Z" transform="translate(0 0)"/><path class="cls-10" d="M139,316.39q-4.72,7-9.18,14.1a2.24,2.24,0,0,1-3.79-2.37h0q4.59-7.14,9.47-14.1a2.12,2.12,0,0,1,3.5,2.37Z" transform="translate(0 0)"/><path class="cls-10" d="M118.8,349.15q-4.08,7.34-7.86,14.84a2.43,2.43,0,0,1-4.35-2.18h0q3.89-7.56,8.09-15a2.36,2.36,0,0,1,4.11,2.32Z" transform="translate(0 0)"/><path class="cls-10" d="M101.75,383.54q-3.36,7.69-6.39,15.53a2.59,2.59,0,0,1-4.86-1.79l0-.08h0q3.14-7.9,6.61-15.68a2.52,2.52,0,0,1,4.61,2Z" transform="translate(0 0)"/><path class="cls-10" d="M88.15,419.39q-2.58,8-4.8,16.08A2.76,2.76,0,0,1,78,434h0q2.33-8.19,5-16.27a2.68,2.68,0,0,1,5.1,1.67Z" transform="translate(0 0)"/><path class="cls-10" d="M78.22,456.46q-1.77,8.21-3.16,16.47a2.92,2.92,0,1,1-5.76-1h0q1.49-8.39,3.35-16.7a2.85,2.85,0,0,1,5.56,1.22Z" transform="translate(0 0)"/><path class="cls-10" d="M72.21,494.29q-.87,8.35-1.45,16.74a3.08,3.08,0,0,1-6.14-.43h0q.66-8.48,1.61-16.93a3,3,0,0,1,6,.65Z" transform="translate(0 0)"/><path class="cls-10" d="M69.7,532.61c-.17,5.59-.23,11.2-.23,16.8a3.23,3.23,0,0,1-6.46,0h0c0-5.67.14-11.34.35-17a3.17,3.17,0,1,1,6.34.21h0Z" transform="translate(0 0)"/><path class="cls-10" d="M69.92,571q.35,8.38,1,16.76a3.28,3.28,0,1,1-6.55.5h0q-.62-8.49-1-17a3.26,3.26,0,0,1,6.52-.26Z" transform="translate(0 0)"/><path class="cls-10" d="M73,609.24q1,8.32,2.37,16.6a3.34,3.34,0,0,1-6.59,1.08h0q-1.35-8.42-2.36-16.87a3.31,3.31,0,1,1,6.58-.8Z" transform="translate(0 0)"/><path class="cls-10" d="M79.43,647q1.78,8.18,4,16.28A3.39,3.39,0,0,1,76.87,665h0q-2.18-8.25-4-16.59a3.37,3.37,0,0,1,6.52-1.72l.06.29Z" transform="translate(0 0)"/><path class="cls-10" d="M89.58,683.9q2.67,7.92,5.75,15.7a3.44,3.44,0,1,1-6.4,2.54h0q-3.14-7.95-5.83-16.06a3.42,3.42,0,1,1,6.49-2.17Z" transform="translate(0 0)"/><path class="cls-10" d="M104,719.24q3.66,7.5,7.78,14.76a3.5,3.5,0,0,1-5.9,3.76,1.92,1.92,0,0,1-.18-.31h0q-4.21-7.47-7.94-15.17a3.48,3.48,0,0,1,6-3.56,3.2,3.2,0,0,1,.27.56Z" transform="translate(0 0)"/><path class="cls-10" d="M123.16,752.14q4.74,6.86,9.94,13.36a3.55,3.55,0,1,1-5.5,4.49l0,0h0q-5.36-6.72-10.2-13.79a3.53,3.53,0,0,1,5.81-4Z" transform="translate(0 0)"/><path class="cls-10" d="M147.25,781.53q5.81,6,12,11.47a3.61,3.61,0,0,1-4.77,5.41h0q-6.42-5.7-12.4-11.88a3.59,3.59,0,0,1,5.14-5h0Z" transform="translate(0 0)"/><path class="cls-10" d="M176,806.39c2.24,1.62,4.52,3.21,6.82,4.76s4.66,3,7,4.5l.11.07a3.6,3.6,0,1,1-3.88,6.07c-2.42-1.54-4.86-3-7.24-4.63s-4.74-3.21-7.06-4.89a3.63,3.63,0,0,1,4-6Z" transform="translate(0 0)"/><path class="cls-10" d="M208.51,826q7.47,3.67,15.2,6.77a3.53,3.53,0,1,1-2.61,6.56h0c-5.32-2.11-10.57-4.42-15.71-6.93a3.56,3.56,0,1,1,2.89-6.51l.22.11Z" transform="translate(0 0)"/><path class="cls-10" d="M243.93,839.74q8,2.37,16.13,4.16a3.46,3.46,0,0,1-1.48,6.75q-8.37-1.81-16.57-4.26a3.48,3.48,0,0,1,2-6.69Z" transform="translate(0 0)"/><path class="cls-10" d="M281.17,847.62c5.52.74,11.06,1.29,16.61,1.69a3.38,3.38,0,0,1-.47,6.75q-8.54-.57-17-1.67a3.41,3.41,0,0,1,.88-6.77h0Z" transform="translate(0 0)"/><path class="cls-10" d="M319.25,850q8.37,0,16.72-.49a3.31,3.31,0,0,1,.38,6.61q-8.52.51-17.07.57a3.35,3.35,0,0,1,0-6.69Z" transform="translate(0 0)"/><path class="cls-10" d="M357.42,847.65q8.31-1,16.59-2.36a3.24,3.24,0,0,1,1.07,6.39q-8.41,1.43-16.88,2.46a3.27,3.27,0,1,1-.95-6.47l.16,0Z" transform="translate(0 0)"/><path class="cls-10" d="M395.2,841.27q8.21-1.77,16.33-3.86a3.05,3.05,0,0,1,1.55,5.9q-8.22,2.21-16.52,4.1a3.14,3.14,0,0,1-1.4-6.13h0Z" transform="translate(0 0)"/><path class="cls-10" d="M432.32,831.56q8-2.46,16-5.2a2.83,2.83,0,0,1,1.87,5.34q-8,2.87-16.11,5.44a2.92,2.92,0,0,1-1.78-5.57Z" transform="translate(0 0)"/><path class="cls-10" d="M468.6,818.9q7.83-3.06,15.56-6.38a2.61,2.61,0,0,1,2.08,4.78q-7.77,3.44-15.64,6.63a2.71,2.71,0,0,1-2-5Z" transform="translate(0 0)"/><path class="cls-10" d="M503.85,803.57q7.59-3.63,15-7.53a2.39,2.39,0,0,1,2.22,4.23c-5,2.66-10,5.27-15.09,7.77a2.48,2.48,0,0,1-2.21-4.45Z" transform="translate(0 0)"/><path class="cls-10" d="M537.82,785.61q7.26-4.26,14.33-8.8a2.08,2.08,0,1,1,2.29,3.48h0q-7.07,4.73-14.33,9.15a2.23,2.23,0,1,1-2.32-3.81Z" transform="translate(0 0)"/><path class="cls-10" d="M570,764.62q6.82-4.92,13.44-10.13a1.74,1.74,0,0,1,2.17,2.71q-6.57,5.37-13.37,10.47a1.89,1.89,0,1,1-2.56-2.78,2,2,0,0,1,.29-.22Z" transform="translate(0 0)"/><path class="cls-10" d="M600.12,740.66c4.23-3.69,8.37-7.49,12.46-11.33a1.36,1.36,0,0,1,1.92,0l0,0a1.39,1.39,0,0,1,0,1.93c-4,4-8.14,7.85-12.32,11.66a1.55,1.55,0,0,1-2.08-2.29Z" transform="translate(0 0)"/><path class="cls-10" d="M628,714.06l5.79-6.17h0a1,1,0,0,1,1.41,0l0,0a1,1,0,0,1,.07,1.41h0l-5.67,6.33a1.12,1.12,0,0,1-1.8-1.34l.14-.15h0Z" transform="translate(0 0)"/><rect class="cls-8" x="330.05" y="435.08" width="270.74" height="32.9" rx="12"/><polygon class="cls-12" points="606.55 610.43 658.62 685.93 687.36 618.2 606.55 610.43"/><path class="cls-12" d="M916.17,333,835.61,652.39a23.21,23.21,0,0,1-28.19,16.82l-.81-.22-317.7-93a9.3,9.3,0,0,1-1.72-17.16Z" transform="translate(0 0)"/><polygon class="cls-13" points="606.58 610.42 916.17 332.95 657.8 625.58 671.35 647.13 606.58 610.42"/><polygon class="cls-14" points="688.24 634.34 658.62 685.93 657.8 625.58 688.24 634.34"/><path class="cls-15" d="M393.55,388.78c-2.22-.87-4.32-2-6.43-3.07A117.73,117.73,0,0,1,369,374.06c-2.58-2-5-4.17-7.43-6.36A118.88,118.88,0,0,1,340,341a118.72,118.72,0,0,1-11.26-25.47,111.47,111.47,0,0,1-3.44-14.44q-.93-5.61-1.41-11.27a113,113,0,0,1-.29-13.89,111.36,111.36,0,0,1,1.06-11.64A120.34,120.34,0,0,1,330,242a118.44,118.44,0,0,1,23.78-40.47,118.57,118.57,0,0,1,33.46-26,116.34,116.34,0,0,1,33-11.39,113.83,113.83,0,0,1,17.58-1.86c3.31-.09,6.62-.13,9.92.08,3.13.19,6.25.5,9.36.89a113.82,113.82,0,0,1,13.83,2.6,112.36,112.36,0,0,1,15.88,5.27c2.89,1.2,5.74,2.46,8.51,3.9a120.78,120.78,0,0,1,15.31,9.33c2.6,1.87,5.09,3.85,7.56,5.88,1.54,1.26,2.93,2.71,4.45,4a79.83,79.83,0,0,1,5.89,5.89c1.68,1.77,3.21,3.67,4.78,5.54a109,109,0,0,1,7.35,9.91,118.55,118.55,0,0,1-28,160c-.2-.11-.4-.21-.59-.34l-10-7q-5.34-3.76-10.7-7.53c-1.66-1.16-3.34-2.28-5-3.42a8,8,0,0,0-5.36-1.14,12.37,12.37,0,0,0-6.34,2.3,9,9,0,0,0-2.34,1l-.76.25-.24.15-.15,0a5.8,5.8,0,0,0-.85.13,39.79,39.79,0,0,1-10.46,1.42c.1-.41.19-.82.31-1.22q1.23-4.14,2.48-8.28a9.45,9.45,0,0,0,3.82-.08,10.28,10.28,0,0,0,4.19-1.71c3.13-2,5-5.08,6.78-8.26,2.38-4.27,3.64-8.93,4.8-13.61a129.62,129.62,0,0,0,3-15.42,116.44,116.44,0,0,0,1.14-13.05,2.52,2.52,0,0,1,.13-1.33l.13.77a4,4,0,0,0,.55-.37,7.76,7.76,0,0,0,.73-.79,26,26,0,0,0,4.09-8.31,89.41,89.41,0,0,0,4-24.05,105.11,105.11,0,0,0-.29-15c-.37-3.76-.85-7.48-1.59-11.18a67.56,67.56,0,0,0-7.86-21.44,41.51,41.51,0,0,0-16.76-16.34c-8-4.11-16.47-5.39-25.35-4.84a84.9,84.9,0,0,0-11,1.4,66.36,66.36,0,0,0-20.32,7,38.74,38.74,0,0,0-11.24,9.29c-5.54,6.82-7.81,14.82-8.24,23.44a56.05,56.05,0,0,0,.61,10.44,81.48,81.48,0,0,0,3,13.27,121.43,121.43,0,0,0,17,33.95,63.39,63.39,0,0,0,10.83,12.18,10,10,0,0,0,4.53,2.5c.61,1.42,1.17,2.86,1.82,4.25,1.82,3.84,3.65,7.68,5.81,11.34a68.6,68.6,0,0,0,8.24,12.48c.11.16.2.32.31.47.7,1,1.6,1.8,2.21,2.84-.34,1.93-.69,3.85-1,5.77a24.78,24.78,0,0,0-.54,3.4l-1.83,8.37a2.52,2.52,0,0,1-.48,0,76.68,76.68,0,0,1-11.74-4.7c-1.91-1-3.8-2-5.7-3h0l-.2-.19-.18,0h0l-.2-.18a23.83,23.83,0,0,0-3.49-2.2,7.62,7.62,0,0,0-2-1.64,31.69,31.69,0,0,0-11.06-5.41c-1.56-.37-3.17-.68-4.69.24a4,4,0,0,0-2.4,1.49,9.34,9.34,0,0,0-1.68,3.78c-.49,2.1-.45,4.28-.85,6.41-.8,4.24-1.52,8.5-2.27,12.75q-1.23,7.05-2.47,14.09C394.5,383.26,394,386,393.55,388.78Z" transform="translate(0 0)"/><path class="cls-16" d="M404.66,342c1.52-.92,3.13-.61,4.69-.24a31.69,31.69,0,0,1,11.06,5.41,7.62,7.62,0,0,1,2,1.64,18,18,0,0,0-.39,3.81c-.23,1.89-.28,3.8-.44,5.7-.24,2.89-.57,5.78-.73,8.67-.12,2.2-.33,4.38-.46,6.57-.2,3.55-.52,7.08-.77,10.62-.08,1.23-.06,2.46-.18,3.68-.32,3-.45,6.05-.56,9.09a115.2,115.2,0,0,1-16.23-4.43c-.19-.07-.36-.15-.54-.23a6.38,6.38,0,0,1,.19-1.63c.41-3.2.82-6.39,1.2-9.59.44-3.69,1.33-7.34,1.16-11.1-.08-1.8.19-3.59.19-5.39q0-9.85,0-19.69A11.2,11.2,0,0,0,404.66,342Z" transform="translate(0 0)"/><path class="cls-17" d="M418.9,396.93c.11-3,.24-6.07.56-9.09.12-1.22.1-2.45.18-3.68.25-3.54.57-7.07.77-10.62.13-2.19.34-4.37.46-6.57.16-2.89.49-5.78.73-8.67.16-1.9.21-3.81.44-5.7a18,18,0,0,1,.39-3.81,23.83,23.83,0,0,1,3.49,2.2l.2.18h0a6.22,6.22,0,0,0,.06,1.06,45.59,45.59,0,0,0,7.5,16.37,64.76,64.76,0,0,0,5.89,6.93c-.06.41-.16.83-.18,1.24-.18,4.33-.49,8.64-.78,13-.2,3.13-.31,6.26-.61,9.38-3.23-.06-6.44-.35-9.65-.71S422,397.57,418.9,396.93Z" transform="translate(0 0)"/><path class="cls-17" d="M472.3,359.32a9,9,0,0,1,2.34-1c.2.82.45,1.63.58,2.45.49,3.25.93,6.5,1.22,9.77.23,2.63.59,5.25.76,7.88.1,1.71.26,3.41.4,5.11.29,3.28.57,6.55.75,9.83A103,103,0,0,1,464.72,397a20.85,20.85,0,0,1-3.52.58c-.06-.48-.14-1-.2-1.44-.34-2.72-.67-5.44-1-8.15-.42-3.23-.87-6.46-1.31-9.68.67-.57,1.35-1.11,2-1.71a45.32,45.32,0,0,0,7.69-9.7A53.06,53.06,0,0,0,472.3,359.32Z" transform="translate(0 0)"/><path class="cls-16" d="M478.35,393.4c-.18-3.28-.46-6.55-.75-9.83-.14-1.7-.3-3.4-.4-5.11-.17-2.63-.53-5.25-.76-7.88-.29-3.27-.73-6.52-1.22-9.77-.13-.82-.38-1.63-.58-2.45a12.37,12.37,0,0,1,6.34-2.3,8,8,0,0,1,5.36,1.14c0,4.33.07,8.65,0,13a4.41,4.41,0,0,0,1.15,3c2.7,3.22,5.48,6.37,8.17,9.59a12.35,12.35,0,0,1,1.83,2.47A110.4,110.4,0,0,1,478.35,393.4Z" transform="translate(0 0)"/><path class="cls-18" d="M497.45,385.27a12.35,12.35,0,0,0-1.83-2.47c-2.69-3.22-5.47-6.37-8.17-9.59a4.41,4.41,0,0,1-1.15-3c.11-4.32,0-8.64,0-13,1.68,1.14,3.36,2.26,5,3.42q5.37,3.75,10.7,7.53l10,7c.19.13.39.23.59.34a80.73,80.73,0,0,1-9.28,6.38C501.43,383.1,499.48,384.27,497.45,385.27Z" transform="translate(0 0)"/><path class="cls-18" d="M404.66,342a11.2,11.2,0,0,1,.2,2.89q0,9.84,0,19.69c0,1.8-.27,3.59-.19,5.39.17,3.76-.72,7.41-1.16,11.1-.38,3.2-.79,6.39-1.2,9.59a6.38,6.38,0,0,0-.19,1.63,65.07,65.07,0,0,1-8.58-3.49c.48-2.76.95-5.52,1.44-8.28q1.23-7,2.47-14.09c.75-4.25,1.47-8.51,2.27-12.75.4-2.13.36-4.31.85-6.41a9.34,9.34,0,0,1,1.68-3.78A4,4,0,0,1,404.66,342Z" transform="translate(0 0)"/><path class="cls-19" d="M458.66,378.27c.44,3.22.89,6.45,1.31,9.68.36,2.71.69,5.43,1,8.15.06.48.14,1,.2,1.44a25.49,25.49,0,0,1-5.71.77c1.2-1.62,2.78-2.89,4.09-4.41.44-.52.34-.66-.18-.95-3.37-1.87-6.74-3.75-10.08-5.67a.91.91,0,0,0-1.21.1c-2.86,2.33-5.71,4.67-8.6,7-.63.49-.48.73,0,1.13,1.58,1.18,3.13,2.4,4.69,3.61H438c.3-3.12.41-6.25.61-9.38.29-4.32.6-8.63.78-13,0-.41.12-.83.18-1.24a51.74,51.74,0,0,0,4.28,3.53c1.36,1,2.7,2,4.07,2.95a1.84,1.84,0,0,0,1.42.51,18.69,18.69,0,0,0,6.24-2.25C456.62,379.63,457.64,378.93,458.66,378.27Zm-17.74.71c0,1,0,1.89,0,2.72,0,.4.25.55.54.72,2.13,1.22,4.27,2.45,6.39,3.69a1.54,1.54,0,0,0,1.37.16c2.24-.74,4.5-1.42,6.75-2.13,1.59-.5,1.59-.5,1.55-2.14v-.2c0-.62-.17-.64-.66-.33a23.52,23.52,0,0,1-5.76,2.53,4.34,4.34,0,0,1-4-.53C445.05,382.07,443,380.67,440.92,379Zm-1.13,12.83,5.48-4.53c.4-.32.23-.49-.13-.68-1.4-.75-2.8-1.5-4.18-2.28-.51-.29-.73-.08-.76.4C440.05,387,439.93,389.29,439.79,391.81ZM459,390c-.14-1.26-.31-2.34-.36-3.42,0-.68-.32-.85-.92-.73l-5.43,1.06Z" transform="translate(0 0)"/><path class="cls-20" d="M444.24,399.09c-1.56-1.21-3.11-2.43-4.69-3.61-.52-.4-.67-.64,0-1.13,2.89-2.3,5.74-4.64,8.6-7a.91.91,0,0,1,1.21-.1c3.34,1.92,6.71,3.8,10.08,5.67.52.29.62.43.18.95-1.31,1.52-2.89,2.79-4.09,4.41a22.1,22.1,0,0,1-4.58.52A49.54,49.54,0,0,1,444.24,399.09Z" transform="translate(0 0)"/><path d="M429.4,310.23a10,10,0,0,1-4.53-2.5A63.39,63.39,0,0,1,414,295.55a121.43,121.43,0,0,1-17-33.95,81.48,81.48,0,0,1-3-13.27,56.05,56.05,0,0,1-.61-10.44c.43-8.62,2.7-16.62,8.24-23.44a38.74,38.74,0,0,1,11.24-9.29,66.36,66.36,0,0,1,20.32-7,84.9,84.9,0,0,1,11-1.4c8.88-.55,17.4.73,25.35,4.84a41.51,41.51,0,0,1,16.76,16.34,67.56,67.56,0,0,1,7.86,21.44c.74,3.7,1.22,7.42,1.59,11.18a105.11,105.11,0,0,1,.29,15,89.41,89.41,0,0,1-4,24.05,26,26,0,0,1-4.09,8.31,7.76,7.76,0,0,1-.73.79,4,4,0,0,1-.55.37l-.13-.77c0-5,.22-10-.19-15v-1.88c0-.35.13-.7-.09-1,0-.73,0-1.46,0-2.19a.34.34,0,0,0-.06-.57.73.73,0,0,1-.15-.78s.06-.06.05-.07a.94.94,0,0,0-.09-.12v0a3.43,3.43,0,0,0-.41-1.78c0-.45.14-.92-.17-1.33-.21-2.61-.65-5.19-1-7.79a25.73,25.73,0,0,0-8.22-16.29c-6.88-6.25-15.26-8.88-24.31-9.84h0a6.84,6.84,0,0,0-2.34-.15,44,44,0,0,0-8.35,0,17.08,17.08,0,0,0-4.73.91,17.93,17.93,0,0,0-7,3.33,16.17,16.17,0,0,0-5.12,5.63,4.36,4.36,0,0,0-.73,1.36c-2,4.5-2.51,9.28-2.75,14.12-.14,2.85.27,5.7.35,8.55a97.58,97.58,0,0,0,2.88,20A147.36,147.36,0,0,0,429.4,310.23Z" transform="translate(0 0)"/><path class="cls-21" d="M451.86,239.66c9.05,1,17.43,3.59,24.31,9.84a25.73,25.73,0,0,1,8.22,16.29c.33,2.6.77,5.18,1,7.79l-.07.52a19.92,19.92,0,0,0-2.48-3.64,11.13,11.13,0,0,0-4-2.72.61.61,0,0,0-.51-.2h0c-.15-.23-.38-.21-.6-.2h0a12.59,12.59,0,0,0-9.18,0h0a.7.7,0,0,0-.6.21h0a1.59,1.59,0,0,0-1,.4h0c-.17,0-.33,0-.41.2h0c-.17,0-.33,0-.41.21h0c-.17,0-.33,0-.41.2h0a.43.43,0,0,0-.41.21h0l-.41.2h0l-.18,0-1.17.95c-.13,0-.23.05-.22.21v0a.37.37,0,0,0-.41.21h0l-.21.2h0c-.12,0-.2.08-.2.21h0c-.13,0-.21.06-.21.2h0c-.13,0-.21.07-.2.21h0c-.14,0-.21.06-.21.2h0c-.14,0-.21.07-.2.21h0c-.14,0-.21.06-.21.2h0c-.14,0-.21.07-.2.21h0c-.14,0-.21.06-.21.2h0l-.3.21L459.83,274a.78.78,0,0,0-.4.59v0a.47.47,0,0,0-.2.41h0a.38.38,0,0,0-.21.4h0a2.49,2.49,0,0,0-.59,1.38v0c-.21.15-.2.38-.21.6v0a9.69,9.69,0,0,0,.39,7.63v0a.48.48,0,0,0,.21.41v0l.2.41v0a.76.76,0,0,0,.4.6h0l.21.4h0l.21.21v0a.21.21,0,0,0,.21.21h0c0,.12.06.21.2.2h0c0,.31.18.46.4.6h0l.21.21v0l.2.29a.14.14,0,0,0,.13.1c.13.12.25.26.46.21h0c0,.15.07.2.2.2h0l.21.31a7.16,7.16,0,0,0,2.91,1.65c.08.18.24.19.4.2h0a16.09,16.09,0,0,0,11.33.58h0a3.88,3.88,0,0,0,1.77-.59h0a1,1,0,0,0,.8-.4h0a1.14,1.14,0,0,0,.9-.4c3.23-1.43,5-4.08,6.06-7.24l.23.42c.41,5,.16,10,.19,15a2.52,2.52,0,0,0-.13,1.33,116.44,116.44,0,0,1-1.14,13.05,129.62,129.62,0,0,1-3,15.42c-1.16,4.68-2.42,9.34-4.8,13.61-1.78,3.18-3.65,6.22-6.78,8.26a10.28,10.28,0,0,1-4.19,1.71,4,4,0,0,0,0-.49c-.39-2.74-.73-5.49-1.22-8.21-.21-1.18-.05-2.46-.73-3.55a9.45,9.45,0,0,0,3.13-2.72c.94-1.37,1.89-2.55,3.76-2.57a1.17,1.17,0,0,0,1.21-.94c.1-.57-.33-1-.75-1.28a13.32,13.32,0,0,0-5.27-2.37,1.53,1.53,0,0,0-1.87.83,2.56,2.56,0,0,1-1.18,1.25c-.19-1.63-.38-3.25-.58-4.88,2-2.11,2.77-4.76,3.43-7.49-1.07.84-1.65,2.18-3,2.84-.85-7.78-2.05-15.38-3.26-23-1.89-11.79-3.87-23.56-5.8-35.34-.08-.46-.17-.9-.72-1-.48-3.34-.95-6.68-1.44-10-.37-2.48-.82-4.94-1.1-7.43a9.84,9.84,0,0,1-.27-3.43A12.11,12.11,0,0,1,451.86,239.66Zm15.88,16.58a20.93,20.93,0,0,0-5.72.85,23,23,0,0,0-5.1,2.11,1,1,0,0,0-.55,1.3c.25.51.73.11,1.11,0,.21-.07.4-.2.61-.29,6.72-3,13.41-3.11,20.06.21.54.28,1.24.84,1.62.16s-.4-1.1-1-1.42A21.28,21.28,0,0,0,467.74,256.24Z" transform="translate(0 0)"/><path class="cls-21" d="M458.66,378.27c-1,.66-2,1.36-3.09,2a18.69,18.69,0,0,1-6.24,2.25,1.84,1.84,0,0,1-1.42-.51c-1.37-1-2.71-2-4.07-2.95,1.67-1.21,2.32-3.11,3.07-4.87a67.43,67.43,0,0,0,4-12.75,25.59,25.59,0,0,0,.72-7.94,3.31,3.31,0,0,0-.77-2c-1.39-1.43-2.69-1.64-4.63-.67a24.78,24.78,0,0,1,.54-3.4c.32-1.92.67-3.84,1-5.77,1.2,1.19,2.38,2.4,3.62,3.56a21.09,21.09,0,0,0,4.13,3.27,3.85,3.85,0,0,0,.41.4,20.45,20.45,0,0,0,6.68,3q-1.25,4.14-2.48,8.28c-.12.4-.21.81-.31,1.22-.6,1.83-1.19,3.67-1.77,5.48.37.2.55,0,.74-.09,3-1.66,6.09-3.31,9.11-5a15.78,15.78,0,0,0,3.23-1.93l.15,0,.24-.15.76-.25a53.06,53.06,0,0,1-4,7.54,45.32,45.32,0,0,1-7.69,9.7C460,377.16,459.33,377.7,458.66,378.27Z" transform="translate(0 0)"/><path class="cls-22" d="M455.54,348.44a21.09,21.09,0,0,1-4.13-3.27c-1.24-1.16-2.42-2.37-3.62-3.56-.61-1-1.51-1.87-2.21-2.84-.11-.15-.2-.31-.31-.47.45,0,.57-.22.52-.61-.14-.92-.29-1.85-.44-2.77q-.84-5.24-1.7-10.48T442,314c-.48-3.05-.94-6.11-1.43-9.16-.44-2.7-.91-5.39-1.36-8.09a18,18,0,0,0,1.94,0c1.3-.09,2.65.11,3.89-.45a5.5,5.5,0,0,0,2.74-.78h.4c.15,1.15.28,2.3.47,3.45.61,3.84,1.24,7.68,1.86,11.52q.86,5.24,1.7,10.48c.49,3.05.91,6.11,1.46,9.15.15.83-.13,1.86.82,2.45a11.79,11.79,0,0,0-1.13,3.36c-.1.76,0,1.43.86,1.7.51,3.13,1,6.26,1.53,9.4A1.87,1.87,0,0,1,455.54,348.44Z" transform="translate(0 0)"/><path class="cls-23" d="M429.4,310.23a147.36,147.36,0,0,1-5.31-16.83,97.58,97.58,0,0,1-2.88-20c-.08-2.85-.49-5.7-.35-8.55.24-4.84.78-9.62,2.75-14.12a4.36,4.36,0,0,1,.73-1.36,2.57,2.57,0,0,1,.43,1c.25,1.75.58,3.49.86,5.23.49,3.11,1,6.23,1.46,9.34a8.59,8.59,0,0,1-.8.69,11.72,11.72,0,0,0-3,3.23c-.24.34-.59.86-.15,1.22s.89.1,1.32-.22a30.5,30.5,0,0,1,3.58-2.49c.6,2.26.73,4.61,1.23,6.88.17.81-.18,1.84.79,2.39a22.13,22.13,0,0,0-2,2.75,1,1,0,0,0,0,.16h0l-.21.41v0a.44.44,0,0,0-.2.41v0c-.19.07-.19.25-.21.41v0a1.59,1.59,0,0,0-.4,1v0c-.18.25-.38.5-.15.83a9.74,9.74,0,0,0-.41,3.87,5.29,5.29,0,0,0,.76,2.74l0,0a.51.51,0,0,0,.21.41v0a.48.48,0,0,0,.21.41v0a.84.84,0,0,0,.4.6h0a.75.75,0,0,0,.4.6v0c0,.12.07.21.2.21h0c0,.13.06.22.21.21v0c0,.15,0,.23.2.21h0c0,.14,0,.25.21.21v0c0,.17,0,.26.2.21h0c0,.18,0,.25.21.21v0c-.07.33.13.4.4.41v0c0,.16.05.23.2.21h0c0,.16.08.2.21.21v0c0,.14.08.2.2.21h0l.21.21,0,0,.41.31c.26.6,1.18.34,1.38,1a1.38,1.38,0,0,0-.13.55c.24,1.62.5,3.24.77,4.85q.93,5.82,1.88,11.62c.56,3.46,1.16,6.92,1.66,10.39.17,1.18.7,2.36.29,3.6-2.16-3.66-4-7.5-5.81-11.34C430.57,313.09,430,311.65,429.4,310.23Z" transform="translate(0 0)"/><path class="cls-24" d="M446.24,350.78c1.94-1,3.24-.76,4.63.67a3.31,3.31,0,0,1,.77,2,25.59,25.59,0,0,1-.72,7.94,67.43,67.43,0,0,1-4,12.75c-.75,1.76-1.4,3.66-3.07,4.87a51.74,51.74,0,0,1-4.28-3.53,64.76,64.76,0,0,1-5.89-6.93,45.59,45.59,0,0,1-7.5-16.37,6.22,6.22,0,0,1-.06-1.06l.18,0,.2.19h0a10.5,10.5,0,0,0,2.28,3.08,74.23,74.23,0,0,0,12.05,10.48c1.18.84,1.42.75,2-.62a32.21,32.21,0,0,0,1.6-5.17Z" transform="translate(0 0)"/><path class="cls-25" d="M437,325.82c.41-1.24-.12-2.42-.29-3.6-.5-3.47-1.1-6.93-1.66-10.39q-.94-5.81-1.88-11.62c-.27-1.61-.53-3.23-.77-4.85a1.38,1.38,0,0,1,.13-.55l.53,0c.08.21.25.21.43.2h0c.06.21.24.19.4.21h0a.46.46,0,0,0,.41.21l0,0a.72.72,0,0,0,.61.21h0a2,2,0,0,0,1.19.4h0c1,.53,2.11.43,3.13.78.45,2.7.92,5.39,1.36,8.09.49,3.05,1,6.11,1.43,9.16q.84,5.2,1.69,10.4t1.7,10.48c.15.92.3,1.85.44,2.77,0,.39-.07.64-.52.61A68.6,68.6,0,0,1,437,325.82Z" transform="translate(0 0)"/><path class="cls-24" d="M455.54,348.44a1.87,1.87,0,0,0,.17-1.31c-.5-3.14-1-6.27-1.53-9.4a2.59,2.59,0,0,0,1.58-.86c.45-.57.72-.44,1.17.07,2,2.31,4.36,3.75,7.57,2.53.68,1.09.52,2.37.73,3.55.49,2.72.83,5.47,1.22,8.21a4,4,0,0,1,0,.49,9.45,9.45,0,0,1-3.82.08,20.45,20.45,0,0,1-6.68-3A3.85,3.85,0,0,1,455.54,348.44Z" transform="translate(0 0)"/><path class="cls-17" d="M444.41,359.15a32.21,32.21,0,0,1-1.6,5.17c-.57,1.37-.81,1.46-2,.62a74.23,74.23,0,0,1-12.05-10.48,10.5,10.5,0,0,1-2.28-3.08c1.9,1,3.79,2,5.7,3a76.68,76.68,0,0,0,11.74,4.7A2.52,2.52,0,0,0,444.41,359.15Z" transform="translate(0 0)"/><path class="cls-17" d="M471.15,359.75a15.78,15.78,0,0,1-3.23,1.93c-3,1.7-6.07,3.35-9.11,5-.19.1-.37.29-.74.09.58-1.81,1.17-3.65,1.77-5.48a39.79,39.79,0,0,0,10.46-1.42A5.8,5.8,0,0,1,471.15,359.75Z" transform="translate(0 0)"/><path class="cls-24" d="M426.12,351.17l-.2-.18Z" transform="translate(0 0)"/><path class="cls-17" d="M426.49,351.38l-.2-.19Z" transform="translate(0 0)"/><path class="cls-17" d="M471.54,359.57l-.24.15Z" transform="translate(0 0)"/><path class="cls-20" d="M440.92,379c2.12,1.69,4.13,3.09,6.15,4.49a4.34,4.34,0,0,0,4,.53,23.52,23.52,0,0,0,5.76-2.53c.49-.31.7-.29.66.33v.2c0,1.64,0,1.64-1.55,2.14-2.25.71-4.51,1.39-6.75,2.13a1.54,1.54,0,0,1-1.37-.16c-2.12-1.24-4.26-2.47-6.39-3.69-.29-.17-.55-.32-.54-.72C440.93,380.87,440.92,380,440.92,379Z" transform="translate(0 0)"/><path class="cls-20" d="M439.79,391.81c.14-2.52.26-4.81.41-7.09,0-.48.25-.69.76-.4,1.38.78,2.78,1.53,4.18,2.28.36.19.53.36.13.68Z" transform="translate(0 0)"/><path class="cls-20" d="M459,390l-6.71-3.09,5.43-1.06c.6-.12.88.05.92.73C458.73,387.69,458.9,388.77,459,390Z" transform="translate(0 0)"/><path class="cls-24" d="M454.45,332.67c-.95-.59-.67-1.62-.82-2.45-.55-3-1-6.1-1.46-9.15q-.84-5.25-1.7-10.48c-.62-3.84-1.25-7.68-1.86-11.52-.19-1.15-.32-2.3-.47-3.45l.59-.39h0l.4-.21h0l.4-.2h0l.4-.21,0,0,.31-.21a1.72,1.72,0,0,0,1.06-.67l.21-.31h0c.14,0,.23,0,.2-.2h0c.2.06.31-.05.41-.21l0,0,.21-.21h0l.2-.21h0l.21-.2h0l.2-.21h0l.21-.2h0c.15-.09.27-.2.2-.4h0c.17,0,.21-.07.21-.21h0l.3-.2a7.15,7.15,0,0,0,1.8-4,.78.78,0,0,1,.05-.14v0a11.92,11.92,0,0,0-1-8.8v0a.45.45,0,0,0-.21-.41l0,0a.51.51,0,0,0-.21-.41v0a.76.76,0,0,0-.4-.6h0l-.21-.4h0l-.21-.21v0a1.1,1.1,0,0,0,0-.18A8.09,8.09,0,0,0,450,273.2l-.31-.21,0,0-.41-.21h0a.4.4,0,0,0-.41-.2h0c-.08-.19-.24-.21-.41-.21h0a.48.48,0,0,0-.41-.21l0,0a.68.68,0,0,0-.6-.21h0a1.91,1.91,0,0,0-1.38-.4h0c-.26-.31-.71-.15-1-.4-.06-.34-.14-.69-.19-1q-.69-4.17-1.36-8.36c1.38-.16,2.68.36,4,.47.6.05,1.14-.08,1.15-.84a1,1,0,0,0-1-1.17,34,34,0,0,0-8.31-.2c-.14-1-.25-2-.41-3q-1.35-8.34-2.72-16.69a17.08,17.08,0,0,1,4.73-.91,44,44,0,0,1,8.35,0,6.15,6.15,0,0,0,2.34.15h0a12.11,12.11,0,0,0-1,2.25,9.84,9.84,0,0,0,.27,3.43c.28,2.49.73,4.95,1.1,7.43.49,3.34,1,6.68,1.44,10a1.44,1.44,0,0,0-.18,1.3c1.11,5.93,2,11.9,2.87,17.86q1.74,11.54,3.44,23.08,1.22,8.18,2.38,16.36c.18,1.19-.18,1.44-1.33,1a10,10,0,0,1-2.59-1.71,3.4,3.4,0,0,0-1.21-.76,11.36,11.36,0,0,0,3.11,4.94,6,6,0,0,0,2.82,2c.2,1.63.39,3.25.58,4.88a1.59,1.59,0,0,1-1.16.4,6.38,6.38,0,0,1-2.56-.79C457.3,330.23,456.05,330.55,454.45,332.67Z" transform="translate(0 0)"/><path class="cls-26" d="M485.54,274.91a3.43,3.43,0,0,1,.41,1.78c-.33,1.22-.15,2.49-.44,3.73-1.43,6-8.2,8.79-12.52,8.95a26,26,0,0,1-3.77-2.56c-2.49-2.22-3.92-4.88-3.54-8.31a13.74,13.74,0,0,1,3.17-7.08,2.85,2.85,0,0,1,1.3-.56,26.29,26.29,0,0,1,4.3-.73,12.26,12.26,0,0,1,7.73,1.63,8.29,8.29,0,0,1,2.84,3.13C485.22,275.27,485.35,275.27,485.54,274.91Z" transform="translate(0 0)"/><path class="cls-22" d="M436.43,240.44q1.36,8.35,2.72,16.69c.16,1,.27,2,.41,3a32.34,32.34,0,0,0-6.8,1.67,10,10,0,0,0-.2-1.63c-.81-5.08-1.59-10.17-2.42-15.24-.07-.4,0-1.06-.68-1.13A17.93,17.93,0,0,1,436.43,240.44Z" transform="translate(0 0)"/><path class="cls-25" d="M429.46,243.77c.72.07.61.73.68,1.13.83,5.07,1.61,10.16,2.42,15.24a10,10,0,0,1,.2,1.63,26,26,0,0,0-5.67,3.25c-.49-3.11-1-6.23-1.46-9.34-.28-1.74-.61-3.48-.86-5.23a2.57,2.57,0,0,0-.43-1A16.17,16.17,0,0,1,429.46,243.77Z" transform="translate(0 0)"/><path class="cls-27" d="M485.54,274.91c-.19.36-.32.36-.52,0a8.29,8.29,0,0,0-2.84-3.13,12.26,12.26,0,0,0-7.73-1.63,26.29,26.29,0,0,0-4.3.73,2.77,2.77,0,0,0-1.3.57c-.23-.34-.47-.08-.69,0-4,1.35-7.61,3.26-9.91,7l0-1.17v0c.27-.13.18-.39.21-.6v0a2.11,2.11,0,0,0,.59-1.38h0c.22-.06.2-.24.21-.4h0c.21-.06.19-.24.2-.41v0a.55.55,0,0,0,.4-.59l1.26-1.75.3-.21h0l.21-.2h0l.2-.21h0l.21-.2h0l.2-.21h0l.21-.2h0l.2-.21h0l.21-.2h0a.2.2,0,0,0,.2-.21h0a.2.2,0,0,0,.21-.2h0a.4.4,0,0,0,.41-.21h0l.22-.2,1.17-.95.1.12.08-.15h0c.17,0,.35,0,.41-.2h0c.17,0,.34,0,.41-.21h0c.17,0,.34,0,.41-.2h0c.17,0,.34,0,.41-.21h0c.17,0,.35,0,.41-.2h0a1.13,1.13,0,0,0,1-.4h0c.21,0,.47.06.6-.21h0c1.26-.05,2.45-.52,3.72-.6a20.07,20.07,0,0,1,5.46.6h0c.14.24.38.2.6.2h0c.11.22.32.19.51.2a11.13,11.13,0,0,1,4,2.72,19.92,19.92,0,0,1,2.48,3.64l.07-.52C485.68,274,485.53,274.46,485.54,274.91Z" transform="translate(0 0)"/><path class="cls-27" d="M473,289.37c4.32-.16,11.09-2.91,12.52-8.95.29-1.24.11-2.51.44-3.73v0l0,.19a.73.73,0,0,0,.15.78l.06.57c0,.73,0,1.46,0,2.19a1.22,1.22,0,0,0,.09,1v1.88l-.23-.42c-1.09,3.16-2.83,5.81-6.06,7.24a1.08,1.08,0,0,0-.9.4h0c-.33,0-.65,0-.8.4h0a2.82,2.82,0,0,0-1.77.59h0a8.86,8.86,0,0,0-1.25.14,21.65,21.65,0,0,1-6.53.12c-1.23-.15-2.33-.75-3.55-.84h0c-.05-.23-.24-.19-.4-.2A7.16,7.16,0,0,1,462,289.1a.33.33,0,0,0-.21-.31h0l-.2-.2h0a.43.43,0,0,0-.46-.21.14.14,0,0,1-.13-.1.28.28,0,0,0-.2-.29v0l-.21-.21h0a.6.6,0,0,0-.4-.6h0l-.2-.2h0a.22.22,0,0,0-.21-.21v0l-.21-.21h0c0-.16,0-.34-.21-.4h0a.58.58,0,0,0-.4-.6v0c0-.17,0-.35-.2-.41v0c0-.16,0-.35-.21-.41v0c.08-.78-.56-1.42-.39-2.22a14.16,14.16,0,0,0,9,6.4A10.93,10.93,0,0,0,473,289.37Z" transform="translate(0 0)"/><path class="cls-21" d="M451.85,239.66a6.15,6.15,0,0,1-2.34-.15A6.84,6.84,0,0,1,451.85,239.66Z" transform="translate(0 0)"/><path class="cls-26" d="M486.31,281.46a1.22,1.22,0,0,1-.09-1C486.44,280.76,486.32,281.11,486.31,281.46Z" transform="translate(0 0)"/><path class="cls-26" d="M486.21,278.25l-.06-.57A.34.34,0,0,1,486.21,278.25Z" transform="translate(0 0)"/><path class="cls-26" d="M486,276.9l0-.19a.94.94,0,0,1,.09.12S486,276.88,486,276.9Z" transform="translate(0 0)"/><path class="cls-26" d="M463,326.79a6,6,0,0,1-2.82-2,11.36,11.36,0,0,1-3.11-4.94,3.4,3.4,0,0,1,1.21.76,10,10,0,0,0,2.59,1.71c1.15.47,1.51.22,1.33-1Q461,313.2,459.77,305q-1.71-11.55-3.44-23.08c-.9-6-1.76-11.93-2.87-17.86a1.44,1.44,0,0,1,.18-1.3c.55.14.64.58.72,1,1.93,11.78,3.91,23.55,5.8,35.34,1.21,7.59,2.41,15.19,3.26,23,1.31-.66,1.89-2,3-2.84C465.72,322,464.93,324.68,463,326.79Z" transform="translate(0 0)"/><path class="cls-28" d="M454.45,332.67c1.6-2.12,2.85-2.44,5.36-1.39a6.38,6.38,0,0,0,2.56.79,1.59,1.59,0,0,0,1.16-.4,2.56,2.56,0,0,0,1.18-1.25,1.53,1.53,0,0,1,1.87-.83,13.32,13.32,0,0,1,5.27,2.37c.42.31.85.71.75,1.28a1.17,1.17,0,0,1-1.21.94c-1.87,0-2.82,1.2-3.76,2.57a9.45,9.45,0,0,1-3.13,2.72c-3.21,1.22-5.56-.22-7.57-2.53-.45-.51-.72-.64-1.17-.07a2.59,2.59,0,0,1-1.58.86c-.87-.27-1-.94-.86-1.7A11.79,11.79,0,0,1,454.45,332.67Zm14.05,1.65a7,7,0,0,0-1-.23c-1.25-.12-2.44-.32-3.23,1.18-.7,1.31-1.83,1.27-3,.15a2.93,2.93,0,0,0-3.61-.4c-.21.14-.43.21-.21.58a6.84,6.84,0,0,0,5.67,2.62C465.52,337.81,467.05,336.24,468.5,334.32Z" transform="translate(0 0)"/><path class="cls-26" d="M467.74,256.24a21.28,21.28,0,0,1,11.07,2.91c.56.32,1.34.75,1,1.42s-1.08.12-1.62-.16c-6.65-3.32-13.34-3.19-20.06-.21-.21.09-.4.22-.61.29-.38.12-.86.52-1.11,0a1,1,0,0,1,.55-1.3,23,23,0,0,1,5.1-2.11A20.93,20.93,0,0,1,467.74,256.24Z" transform="translate(0 0)"/><path class="cls-28" d="M465.28,290.94c1.22.09,2.32.69,3.55.84a21.65,21.65,0,0,0,6.53-.12,8.86,8.86,0,0,1,1.25-.14A16.09,16.09,0,0,1,465.28,290.94Z" transform="translate(0 0)"/><path class="cls-28" d="M477.77,267.35a20.07,20.07,0,0,0-5.46-.6c-1.27.08-2.46.55-3.72.6A12.59,12.59,0,0,1,477.77,267.35Z" transform="translate(0 0)"/><path class="cls-28" d="M458.27,282.69c-.17.8.47,1.44.39,2.22a9.69,9.69,0,0,1-.39-7.63l0,1.17h0c-.2.1-.19.27-.15.45A6.07,6.07,0,0,0,458.27,282.69Z" transform="translate(0 0)"/><path class="cls-28" d="M476.59,291.53a2.82,2.82,0,0,1,1.77-.59A3.88,3.88,0,0,1,476.59,291.53Z" transform="translate(0 0)"/><path class="cls-28" d="M459.05,275.34a2.11,2.11,0,0,1-.59,1.38A2.49,2.49,0,0,1,459.05,275.34Z" transform="translate(0 0)"/><path class="cls-28" d="M468,267.54a1.13,1.13,0,0,1-1,.4A1.59,1.59,0,0,1,468,267.54Z" transform="translate(0 0)"/><path class="cls-28" d="M478.34,291c.15-.36.47-.38.8-.4A1,1,0,0,1,478.34,291Z" transform="translate(0 0)"/><path class="cls-28" d="M479.12,290.56a1.08,1.08,0,0,1,.9-.4A1.14,1.14,0,0,1,479.12,290.56Z" transform="translate(0 0)"/><path class="cls-28" d="M460.21,287.23a.6.6,0,0,1,.4.6C460.39,287.69,460.18,287.54,460.21,287.23Z" transform="translate(0 0)"/><path class="cls-28" d="M459,285.67a.58.58,0,0,1,.4.6A.76.76,0,0,1,459,285.67Z" transform="translate(0 0)"/><path class="cls-28" d="M459.83,274a.55.55,0,0,1-.4.59A.78.78,0,0,1,459.83,274Z" transform="translate(0 0)"/><path class="cls-28" d="M468.61,267.34c-.13.27-.39.19-.6.21A.7.7,0,0,1,468.61,267.34Z" transform="translate(0 0)"/><path class="cls-28" d="M478.36,267.55c-.22,0-.46,0-.6-.2C478,267.34,478.21,267.32,478.36,267.55Z" transform="translate(0 0)"/><path class="cls-28" d="M458.47,276.7c0,.21.06.47-.21.6C458.27,277.08,458.26,276.85,458.47,276.7Z" transform="translate(0 0)"/><path class="cls-28" d="M478.85,267.74c-.19,0-.4,0-.51-.2A.61.61,0,0,1,478.85,267.74Z" transform="translate(0 0)"/><path class="cls-28" d="M467.05,267.93c-.06.22-.24.19-.41.2C466.72,268,466.88,267.94,467.05,267.93Z" transform="translate(0 0)"/><path class="cls-28" d="M466.66,268.12c-.07.2-.24.19-.41.21C466.33,268.15,466.49,268.14,466.66,268.12Z" transform="translate(0 0)"/><path class="cls-28" d="M466.27,268.32c-.07.2-.24.19-.41.2C465.94,268.34,466.1,268.33,466.27,268.32Z" transform="translate(0 0)"/><path class="cls-28" d="M465.49,268.71c-.06.21-.24.2-.41.2Z" transform="translate(0 0)"/><path class="cls-28" d="M458.85,285.28c.21.06.19.24.2.41Z" transform="translate(0 0)"/><path class="cls-28" d="M458.65,284.89c.23.06.19.25.21.41A.48.48,0,0,1,458.65,284.89Z" transform="translate(0 0)"/><path class="cls-28" d="M464.89,290.75c.16,0,.35,0,.4.2C465.13,290.94,465,290.93,464.89,290.75Z" transform="translate(0 0)"/><path class="cls-28" d="M461.13,288.4a.43.43,0,0,1,.46.21C461.38,288.66,461.26,288.52,461.13,288.4Z" transform="translate(0 0)"/><path class="cls-28" d="M459.25,275c0,.16,0,.34-.21.4A.38.38,0,0,1,459.25,275Z" transform="translate(0 0)"/><path class="cls-28" d="M459.44,274.55c0,.17,0,.35-.2.41A.47.47,0,0,1,459.44,274.55Z" transform="translate(0 0)"/><path class="cls-28" d="M459.43,286.26c.21.06.2.24.21.4Z" transform="translate(0 0)"/><path class="cls-28" d="M465.88,268.51c-.07.2-.24.2-.41.21A.43.43,0,0,1,465.88,268.51Z" transform="translate(0 0)"/><path class="cls-28" d="M463.54,270.07a.4.4,0,0,1-.41.21A.37.37,0,0,1,463.54,270.07Z" transform="translate(0 0)"/><path class="cls-28" d="M460.6,287.82l.21.21Z" transform="translate(0 0)"/><path class="cls-28" d="M465.1,268.9l-.08.15-.1-.12Z" transform="translate(0 0)"/><path class="cls-28" d="M460,287l.2.2C460.08,287.25,460,287.16,460,287Z" transform="translate(0 0)"/><path class="cls-28" d="M460.8,288a.28.28,0,0,1,.2.29Z" transform="translate(0 0)"/><path class="cls-28" d="M461.58,288.6l.2.2C461.65,288.8,461.56,288.75,461.58,288.6Z" transform="translate(0 0)"/><path class="cls-28" d="M461.77,288.79a.33.33,0,0,1,.21.31Z" transform="translate(0 0)"/><path class="cls-28" d="M459.82,286.84a.22.22,0,0,1,.21.21A.21.21,0,0,1,459.82,286.84Z" transform="translate(0 0)"/><path class="cls-28" d="M461.39,272l-.3.21Z" transform="translate(0 0)"/><path class="cls-28" d="M459.62,286.65l.21.21Z" transform="translate(0 0)"/><path class="cls-28" d="M461.59,271.83l-.21.2C461.38,271.89,461.45,271.82,461.59,271.83Z" transform="translate(0 0)"/><path class="cls-28" d="M461.78,271.63l-.2.21C461.57,271.7,461.64,271.63,461.78,271.63Z" transform="translate(0 0)"/><path class="cls-28" d="M462,271.44l-.21.2C461.77,271.5,461.84,271.43,462,271.44Z" transform="translate(0 0)"/><path class="cls-28" d="M462.17,271.24l-.2.21C462,271.31,462,271.24,462.17,271.24Z" transform="translate(0 0)"/><path class="cls-28" d="M462.37,271.05l-.21.2C462.16,271.11,462.23,271,462.37,271.05Z" transform="translate(0 0)"/><path class="cls-28" d="M462.56,270.85l-.2.21C462.35,270.92,462.43,270.86,462.56,270.85Z" transform="translate(0 0)"/><path class="cls-28" d="M462.76,270.66l-.21.2C462.55,270.72,462.63,270.67,462.76,270.66Z" transform="translate(0 0)"/><path class="cls-28" d="M463,270.46a.2.2,0,0,1-.2.21C462.75,270.54,462.83,270.48,463,270.46Z" transform="translate(0 0)"/><path class="cls-28" d="M463.15,270.27a.2.2,0,0,1-.21.2Z" transform="translate(0 0)"/><path class="cls-28" d="M463.75,269.88l-.22.2C463.52,269.93,463.62,269.89,463.75,269.88Z" transform="translate(0 0)"/><path class="cls-28" d="M439.17,296.79c-1-.35-2.16-.25-3.13-.78a27.35,27.35,0,0,0,9,.39h0c-1.24.56-2.59.36-3.89.45A18,18,0,0,1,439.17,296.79Z" transform="translate(0 0)"/><path class="cls-28" d="M447.74,295.61a5.5,5.5,0,0,1-2.74.78h0a9.2,9.2,0,0,1,2.73-.78Z" transform="translate(0 0)"/><path class="cls-28" d="M448.73,295.23l-.59.39h-.39A1.14,1.14,0,0,1,448.73,295.23Z" transform="translate(0 0)"/><path class="cls-29" d="M426.52,286.46a9.74,9.74,0,0,1,.41-3.87.34.34,0,0,0,.12-.06,22.11,22.11,0,0,1,3.06-2.9,22.85,22.85,0,0,1,8.46-3.75,14.94,14.94,0,0,0-2.74,4.77,9.2,9.2,0,0,0,2.25,10.09,26.55,26.55,0,0,0,4.53,3.31,6,6,0,0,1-1.83.2c-5.45-.28-10.12-2.17-13.58-6.56h0a.57.57,0,0,0-.3-.48C426.68,287,426.86,286.6,426.52,286.46Z" transform="translate(0 0)"/><path class="cls-27" d="M438.57,275.88a22.85,22.85,0,0,0-8.46,3.75,22.11,22.11,0,0,0-3.06,2.9l0-.77v0a1.1,1.1,0,0,0,.4-1v0c.21-.06.2-.24.21-.41v0c.21-.06.18-.25.2-.41v0c.23-.06.18-.25.21-.41h0c.13,0,.24-.05,0-.16a22.13,22.13,0,0,1,2-2.75,26.87,26.87,0,0,0,2.22-1.8,7.29,7.29,0,0,1,3.28-1.91c.36,0,.71,0,.89-.41v0a1.11,1.11,0,0,0,1-.41l0,0c.22,0,.47.06.61-.21h0c.27,0,.59.1.8-.2h0a20.85,20.85,0,0,1,7.43-.2h0a2.28,2.28,0,0,0,1.38.4h0c.13.26.38.19.6.21l0,0c.06.22.24.2.41.21h0c.06.22.24.2.41.21h0c.06.22.25.19.41.2h0c.06.22.25.19.41.21l0,0c0,.16.17.19.31.21a8.09,8.09,0,0,1,3.39,3.14c-.21.09-.1.13,0,.18v0c0,.13.07.21.21.21h0c0,.16,0,.34.21.4h0a.56.56,0,0,0,.4.6v0c0,.17,0,.35.21.41l0,0c0,.16,0,.35.21.41v0c-.16.34.41.68,0,1a8.29,8.29,0,0,0-5.69-4.32A18.46,18.46,0,0,0,438.57,275.88Z" transform="translate(0 0)"/><path class="cls-27" d="M427.2,287.69c3.46,4.39,8.13,6.28,13.58,6.56a6,6,0,0,0,1.83-.2,16,16,0,0,0,8.89-3.46,10,10,0,0,0,3.86-7.62c.57,0,.35.44.38.71a26.71,26.71,0,0,1-.2,3.57v0s-.05,0-.05,0a.17.17,0,0,0,0,.1,7.15,7.15,0,0,1-1.8,4l-.3.2h0l-.21.21h0a.4.4,0,0,0-.2.4h0a.2.2,0,0,0-.21.2h0a.2.2,0,0,0-.2.21h0a.2.2,0,0,0-.21.2h0a.2.2,0,0,0-.2.21h0a.21.21,0,0,0-.21.21l0,0a.41.41,0,0,0-.41.21h0l-.2.2h0l-.21.31a1.72,1.72,0,0,1-1.06.67c-.13,0-.26.05-.31.21l0,0c-.16,0-.35,0-.4.21h0c-.16,0-.34,0-.4.2h0c-.16,0-.34,0-.4.21h0a1.14,1.14,0,0,0-1,.39,9.2,9.2,0,0,0-2.73.78,27.35,27.35,0,0,1-9-.39h0a1.39,1.39,0,0,0-1.19-.4h0c-.13-.28-.39-.17-.61-.21l0,0c-.06-.22-.24-.19-.41-.21h0c-.06-.21-.24-.19-.4-.21h0c-.08-.2-.25-.2-.43-.2l-.53,0c-.2-.69-1.12-.43-1.38-1,0-.24-.2-.3-.41-.31l0,0-.21-.21h0c0-.13-.08-.19-.2-.21v0l-.21-.21h0l-.2-.21v0l-.4-.41v0l-.21-.21h0l-.2-.21v0l-.21-.21h0l-.2-.21v0l-.21-.21h0l-.2-.21v0a.57.57,0,0,0-.4-.6h0a.58.58,0,0,0-.4-.6v0c0-.16,0-.35-.21-.41v0c0-.16,0-.35-.21-.41l0,0C427.4,288.69,426.86,288.21,427.2,287.69Z" transform="translate(0 0)"/><path class="cls-25" d="M435.55,273a7.29,7.29,0,0,0-3.28,1.91,26.87,26.87,0,0,1-2.22,1.8c-1-.55-.62-1.58-.79-2.39-.5-2.27-.63-4.62-1.23-6.88a32.72,32.72,0,0,1,6.84-3.63c.11.67.21,1.33.31,2q.54,3.38,1.06,6.76Z" transform="translate(0 0)"/><path class="cls-26" d="M434.87,263.82a32.72,32.72,0,0,0-6.84,3.63,30.5,30.5,0,0,0-3.58,2.49c-.43.32-.92.54-1.32.22s-.09-.88.15-1.22a11.72,11.72,0,0,1,3-3.23,8.59,8.59,0,0,0,.8-.69,26,26,0,0,1,5.67-3.25,32.34,32.34,0,0,1,6.8-1.67,34,34,0,0,1,8.31.2,1,1,0,0,1,1,1.17c0,.76-.55.89-1.15.84-1.34-.11-2.64-.63-4-.47A19.66,19.66,0,0,0,434.87,263.82Z" transform="translate(0 0)"/><path class="cls-28" d="M427.2,287.69c-.34.52.2,1,.08,1.51a5.29,5.29,0,0,1-.76-2.74c.34.14.16.54.37.74,0,.19-.2.56.3.48Z" transform="translate(0 0)"/><path class="cls-28" d="M427.47,280.79a1.1,1.1,0,0,1-.4,1A1.59,1.59,0,0,1,427.47,280.79Z" transform="translate(0 0)"/><path class="cls-28" d="M427.08,281.76l0,.77a.34.34,0,0,1-.12.06C426.7,282.26,426.9,282,427.08,281.76Z" transform="translate(0 0)"/><path class="cls-28" d="M427.66,290a.58.58,0,0,1,.4.6A.84.84,0,0,1,427.66,290Z" transform="translate(0 0)"/><path class="cls-28" d="M428.05,290.55a.57.57,0,0,1,.4.6A.75.75,0,0,1,428.05,290.55Z" transform="translate(0 0)"/><path class="cls-28" d="M429.61,292.3l.4.41C429.74,292.7,429.54,292.63,429.61,292.3Z" transform="translate(0 0)"/><path class="cls-28" d="M427.86,280c0,.16,0,.35-.2.41A.44.44,0,0,1,427.86,280Z" transform="translate(0 0)"/><path class="cls-28" d="M428.06,279.62c0,.16,0,.35-.21.41Z" transform="translate(0 0)"/><path class="cls-28" d="M427.26,289.18c.22.06.19.25.21.41A.51.51,0,0,1,427.26,289.18Z" transform="translate(0 0)"/><path class="cls-28" d="M427.46,289.57c.21.06.19.25.21.41A.48.48,0,0,1,427.46,289.57Z" transform="translate(0 0)"/><path class="cls-28" d="M427.67,280.4c0,.17,0,.35-.21.41C427.48,280.65,427.48,280.47,427.67,280.4Z" transform="translate(0 0)"/><path class="cls-28" d="M430.77,293.47c.21,0,.38.07.41.31Z" transform="translate(0 0)"/><path class="cls-28" d="M430,292.69l.2.21C430.05,292.92,430,292.85,430,292.69Z" transform="translate(0 0)"/><path class="cls-28" d="M430.19,292.89l.21.21C430.27,293.09,430.17,293.05,430.19,292.89Z" transform="translate(0 0)"/><path class="cls-28" d="M430.39,293.08c.12,0,.2.08.2.21S430.38,293.22,430.39,293.08Z" transform="translate(0 0)"/><path class="cls-28" d="M429.41,292.11l.21.21C429.43,292.36,429.37,292.29,429.41,292.11Z" transform="translate(0 0)"/><path class="cls-28" d="M428.09,279.47c.19.11.08.14,0,.16A1,1,0,0,1,428.09,279.47Z" transform="translate(0 0)"/><path class="cls-28" d="M428.44,291.13l.2.21C428.51,291.34,428.45,291.25,428.44,291.13Z" transform="translate(0 0)"/><path class="cls-28" d="M428.63,291.33l.21.21C428.69,291.55,428.64,291.46,428.63,291.33Z" transform="translate(0 0)"/><path class="cls-28" d="M428.83,291.52l.2.21C428.87,291.75,428.82,291.67,428.83,291.52Z" transform="translate(0 0)"/><path class="cls-28" d="M429,291.72l.21.21C429.05,292,429,291.86,429,291.72Z" transform="translate(0 0)"/><path class="cls-28" d="M429.22,291.91l.2.21C429.24,292.17,429.18,292.08,429.22,291.91Z" transform="translate(0 0)"/><path class="cls-28" d="M430.58,293.28l.21.21Z" transform="translate(0 0)"/><path class="cls-28" d="M434.87,295.62a1.39,1.39,0,0,1,1.19.4A2,2,0,0,1,434.87,295.62Z" transform="translate(0 0)"/><path class="cls-28" d="M434.28,295.42c.22,0,.48-.07.61.21A.72.72,0,0,1,434.28,295.42Z" transform="translate(0 0)"/><path class="cls-28" d="M433.51,295c.16,0,.34,0,.4.21C433.75,295.22,433.57,295.24,433.51,295Z" transform="translate(0 0)"/><path class="cls-28" d="M433.09,294.84c.18,0,.35,0,.43.2C433.34,295.05,433.17,295.05,433.09,294.84Z" transform="translate(0 0)"/><path class="cls-28" d="M433.89,295.23c.17,0,.35,0,.41.21A.46.46,0,0,1,433.89,295.23Z" transform="translate(0 0)"/><path class="cls-22" d="M434.87,263.82a19.66,19.66,0,0,1,8.79-2q.68,4.19,1.36,8.36c.05.35.13.7.19,1l-1.25-.08a11.6,11.6,0,0,0-5.19.68h0c-.29,0-.58,0-.8.2h0c-.23,0-.45,0-.61.21l0,0a1.72,1.72,0,0,0-1,.41v0l-.2,0q-.53-3.39-1.06-6.76C435.08,265.15,435,264.49,434.87,263.82Z" transform="translate(0 0)"/><path class="cls-28" d="M455.54,287.25a26.71,26.71,0,0,0,.2-3.57c0-.27.19-.71-.38-.71a7.58,7.58,0,0,0-.8-3.5c.42-.34-.15-.68,0-1A11.92,11.92,0,0,1,455.54,287.25Z" transform="translate(0 0)"/><path class="cls-28" d="M438.77,271.84a11.6,11.6,0,0,1,5.19-.68l1.25.08c.28.25.73.09,1,.4A20.85,20.85,0,0,0,438.77,271.84Z" transform="translate(0 0)"/><path class="cls-28" d="M447.56,272a2.28,2.28,0,0,1-1.38-.4A1.91,1.91,0,0,1,447.56,272Z" transform="translate(0 0)"/><path class="cls-28" d="M454.19,277.69a.56.56,0,0,1-.4-.6A.76.76,0,0,1,454.19,277.69Z" transform="translate(0 0)"/><path class="cls-28" d="M448.15,272.23c-.22,0-.47,0-.6-.21A.68.68,0,0,1,448.15,272.23Z" transform="translate(0 0)"/><path class="cls-28" d="M453,292.12a.4.4,0,0,1,.2-.4C453.28,291.92,453.16,292,453,292.12Z" transform="translate(0 0)"/><path class="cls-28" d="M451.64,293.29a.41.41,0,0,1,.41-.21C452,293.24,451.84,293.35,451.64,293.29Z" transform="translate(0 0)"/><path class="cls-28" d="M454.58,278.47c-.21-.06-.19-.25-.21-.41A.45.45,0,0,1,454.58,278.47Z" transform="translate(0 0)"/><path class="cls-28" d="M449.5,294.85c.05-.23.24-.19.4-.21Z" transform="translate(0 0)"/><path class="cls-28" d="M454.39,278.08c-.22-.06-.2-.24-.21-.41A.51.51,0,0,1,454.39,278.08Z" transform="translate(0 0)"/><path class="cls-28" d="M449.11,295c.06-.21.24-.19.4-.2Z" transform="translate(0 0)"/><path class="cls-28" d="M448.72,295.24c.06-.22.24-.18.4-.21Z" transform="translate(0 0)"/><path class="cls-28" d="M453.8,277.1c-.21-.06-.2-.24-.21-.4Z" transform="translate(0 0)"/><path class="cls-28" d="M449.71,273c-.16,0-.35,0-.41-.21Z" transform="translate(0 0)"/><path class="cls-28" d="M449.32,272.81c-.16,0-.35,0-.41-.2A.4.4,0,0,1,449.32,272.81Z" transform="translate(0 0)"/><path class="cls-28" d="M448.93,272.62c-.17,0-.35,0-.41-.21C448.69,272.41,448.85,272.43,448.93,272.62Z" transform="translate(0 0)"/><path class="cls-28" d="M448.54,272.42c-.17,0-.35,0-.41-.21A.48.48,0,0,1,448.54,272.42Z" transform="translate(0 0)"/><path class="cls-28" d="M452.42,292.7a.2.2,0,0,1,.21-.2Z" transform="translate(0 0)"/><path class="cls-28" d="M452.23,292.9a.2.2,0,0,1,.2-.21Z" transform="translate(0 0)"/><path class="cls-28" d="M452,293.1a.21.21,0,0,1,.21-.21Z" transform="translate(0 0)"/><path class="cls-28" d="M451.45,293.48l.2-.2C451.68,293.44,451.59,293.48,451.45,293.48Z" transform="translate(0 0)"/><path class="cls-28" d="M451.25,293.78l.21-.31Z" transform="translate(0 0)"/><path class="cls-28" d="M449.88,294.66c.05-.16.18-.19.31-.21Z" transform="translate(0 0)"/><path class="cls-28" d="M455.5,287.37a.17.17,0,0,1,0-.1s0,0,.05,0A.78.78,0,0,0,455.5,287.37Z" transform="translate(0 0)"/><path class="cls-28" d="M453.61,276.71c-.14,0-.2-.08-.21-.21Z" transform="translate(0 0)"/><path class="cls-28" d="M453.41,276.52c-.12,0-.23-.09,0-.18A1.1,1.1,0,0,1,453.41,276.52Z" transform="translate(0 0)"/><path class="cls-28" d="M453.4,291.53l.3-.2Z" transform="translate(0 0)"/><path class="cls-28" d="M450,273.2c-.14,0-.27-.05-.31-.21Z" transform="translate(0 0)"/><path class="cls-28" d="M453.2,291.73l.21-.21C453.41,291.66,453.37,291.76,453.2,291.73Z" transform="translate(0 0)"/><path class="cls-28" d="M452.81,292.31a.2.2,0,0,1,.21-.2Z" transform="translate(0 0)"/><path class="cls-28" d="M452.62,292.51a.2.2,0,0,1,.2-.21Z" transform="translate(0 0)"/><path class="cls-29" d="M458.27,282.69a6.07,6.07,0,0,1-.17-3.79.39.39,0,0,0,.15-.45h0c2.3-3.77,5.91-5.68,9.91-7,.22-.07.46-.33.69,0a13.67,13.67,0,0,0-3.17,7.07c-.38,3.43,1.05,6.09,3.54,8.31a26,26,0,0,0,3.77,2.56,10.93,10.93,0,0,1-5.73-.28A14.16,14.16,0,0,1,458.27,282.69Z" transform="translate(0 0)"/><path class="cls-21" d="M468.5,334.32c-1.45,1.92-3,3.49-5.36,3.9a6.84,6.84,0,0,1-5.67-2.62c-.22-.37,0-.44.21-.58a2.93,2.93,0,0,1,3.61.4c1.14,1.12,2.27,1.16,3-.15.79-1.5,2-1.3,3.23-1.18A7,7,0,0,1,468.5,334.32Z" transform="translate(0 0)"/><path class="cls-27" d="M458.25,278.45a.39.39,0,0,1-.15.45C458.06,278.72,458.05,278.55,458.25,278.45Z" transform="translate(0 0)"/><path class="cls-26" d="M454.56,279.47a7.58,7.58,0,0,1,.8,3.5,10,10,0,0,1-3.86,7.62,16,16,0,0,1-8.89,3.46,26.55,26.55,0,0,1-4.53-3.31,9.2,9.2,0,0,1-2.25-10.09,14.94,14.94,0,0,1,2.74-4.77,18.46,18.46,0,0,1,10.3-.73A8.29,8.29,0,0,1,454.56,279.47Z" transform="translate(0 0)"/><path class="cls-27" d="M427.19,287.68c-.5.08-.26-.29-.3-.48A.57.57,0,0,1,427.19,287.68Z" transform="translate(0 0)"/><path class="cls-28" d="M436.43,272.62a1.72,1.72,0,0,1,1-.41A1.11,1.11,0,0,1,436.43,272.62Z" transform="translate(0 0)"/><path class="cls-28" d="M436.24,272.58l.2,0c-.18.4-.53.4-.89.41Z" transform="translate(0 0)"/><path class="cls-28" d="M438,272c.22-.24.51-.2.8-.2C438.58,272.13,438.26,272,438,272Z" transform="translate(0 0)"/><path class="cls-28" d="M437.4,272.23c.16-.21.38-.2.61-.21C437.87,272.29,437.62,272.2,437.4,272.23Z" transform="translate(0 0)"/></svg>