<svg id="Layer_1" data-name="Layer 1" xmlns="http://www.w3.org/2000/svg" viewBox="0 0 512 512"><defs><style>.cls-1,.cls-3{fill:#009688;}.cls-1{stroke:#009688;}.cls-1,.cls-2,.cls-5,.cls-7{stroke-miterlimit:10;}.cls-1,.cls-2,.cls-6,.cls-7{stroke-width:6.38px;}.cls-2,.cls-5,.cls-6{fill:#616b7a;}.cls-2,.cls-6{stroke:#444f60;}.cls-4,.cls-7{fill:#4bb7aa;}.cls-5{stroke:#616b7a;stroke-width:7px;}.cls-6{stroke-linejoin:round;}.cls-7{stroke:#4bb7aa;}</style></defs><path class="cls-1" d="M331.85,352.58H200.17a13.32,13.32,0,0,0-13.32,13.32v34.2a13.32,13.32,0,0,0,13.32,13.32H331.85a13.32,13.32,0,0,0,13.33-13.32V365.9A13.32,13.32,0,0,0,331.85,352.58Zm-13.06,45a12.73,12.73,0,1,1,12.74-12.73A12.72,12.72,0,0,1,318.79,397.6Z"/><path class="cls-2" d="M159.36,190.35A46,46,0,0,0,147.88,234s14.57,45.06,51.6,80v38.59H334.17V316.41l18.33-15.9s13.18-10.15,13.09-27.74v-99.9H294.38"/><path class="cls-3" d="M375.32,157.83c-.35,0-.67-.06-1-.06H141.12a21.57,21.57,0,0,0-4.08.39,67.92,67.92,0,0,0-125.36-1.83H74v54.1H11.68A67.92,67.92,0,0,0,137,208.59a21.54,21.54,0,0,0,4.08.4H374.29c.21,0,.38,0,.59,0A67.92,67.92,0,0,0,500.33,211H438V156.89h62.31a67.94,67.94,0,0,0-125,.94Z"/><path class="cls-4" d="M375.32,157.83c-.35,0-.67-.06-1-.06H141.12a21.57,21.57,0,0,0-4.08.39,67.91,67.91,0,0,0-125.36-1.84H74v27.34H438V156.89h62.31a67.94,67.94,0,0,0-125,.94Z"/><path class="cls-5" d="M358.12,177a6.7,6.7,0,0,1,6.68,6.69h0a6.69,6.69,0,0,1-6.68,6.68H153.9a6.69,6.69,0,0,1-6.7-6.68h0a6.7,6.7,0,0,1,6.7-6.69Z"/><path class="cls-2" d="M240.34,183a20.42,20.42,0,0,1-20.42,20.43h0A20.42,20.42,0,0,1,199.48,183V144.79a20.43,20.43,0,0,1,20.44-20.43h0a20.43,20.43,0,0,1,20.42,20.43Z"/><path class="cls-2" d="M283.9,180.14a20.43,20.43,0,0,1-20.42,20.43h0a20.43,20.43,0,0,1-20.43-20.43V135.88a20.43,20.43,0,0,1,20.43-20.42h0a20.42,20.42,0,0,1,20.42,20.42Z"/><path class="cls-2" d="M324.74,172.82a20.42,20.42,0,0,1-20.42,20.42h0a20.42,20.42,0,0,1-20.42-20.42v-28a20.42,20.42,0,0,1,20.42-20.43h0a20.42,20.42,0,0,1,20.42,20.43Z"/><path class="cls-2" d="M365.59,172.87a20.43,20.43,0,0,1-20.41,20.43h0a20.44,20.44,0,0,1-20.44-20.43V153.78a20.42,20.42,0,0,1,20.44-20.42h0a20.41,20.41,0,0,1,20.41,20.42Z"/><path class="cls-6" d="M241.24,279c7.74-61.48-43.56-75.58-43.56-75.58H257c26.89-5.8,26.89-39.54,26.89-39.54H190.7l-31.34,26.44S142.43,208.8,147.88,234c0,0,12.77,41.45,51.6,80"/><path class="cls-7" d="M186.85,363.91c0-3.68,6-11.33,13.32-11.33H331.85c7.36,0,13.33,7.65,13.33,11.33Z"/></svg>