<svg id="Layer_1" data-name="Layer 1" xmlns="http://www.w3.org/2000/svg" viewBox="0 0 512 512"><defs><style>.cls-1,.cls-2,.cls-7,.cls-8{fill:#009688;}.cls-1{stroke:#009688;}.cls-1,.cls-2,.cls-3,.cls-4,.cls-5,.cls-6,.cls-7,.cls-9{stroke-miterlimit:10;}.cls-1,.cls-2,.cls-3{stroke-width:5px;}.cls-2,.cls-3,.cls-4,.cls-5,.cls-6,.cls-7,.cls-9{stroke:#444f60;}.cls-3,.cls-4,.cls-5,.cls-6,.cls-9{fill:none;}.cls-4,.cls-5,.cls-6{stroke-width:10px;}.cls-5{stroke-dasharray:51.19 10.24;}.cls-6{stroke-dasharray:47.49 9.5;}.cls-7{stroke-width:2px;}.cls-9{stroke-width:4px;}</style></defs><path class="cls-1" d="M116.26,423a3,3,0,0,0-3.2-2.76l-1.88.15a3,3,0,0,1-3.05-2,35.48,35.48,0,0,0-3.2-6.83,3,3,0,0,1,.39-3.61l1.28-1.33a3,3,0,0,0-.1-4.23l-5.92-5.65a3,3,0,0,0-4.23.09l-1.22,1.29a3,3,0,0,1-3.62.54,35.84,35.84,0,0,0-8-3.23,3,3,0,0,1-2.22-2.88v-1.75a3,3,0,0,0-3-3H70.11a3,3,0,0,0-3,3v1.75a3,3,0,0,1-2.23,2.88,36,36,0,0,0-10.87,5,3,3,0,0,1-3.66-.2L49,399.09a3,3,0,0,0-4.22.3l-5.36,6.18a3,3,0,0,0,.3,4.22L41.14,411a3,3,0,0,1,.73,3.55,35.53,35.53,0,0,0-3,9.08,3,3,0,0,1-2.71,2.44l-1.91.15a3,3,0,0,0-2.76,3.2l.62,8.16a3,3,0,0,0,3.2,2.76l2-.15a3,3,0,0,1,3,2,35.81,35.81,0,0,0,3.21,6.69,3,3,0,0,1-.38,3.63L41.81,454a3,3,0,0,0,.1,4.23l5.92,5.65a3,3,0,0,0,4.23-.1l1.48-1.55a3,3,0,0,1,3.6-.55,36.06,36.06,0,0,0,7.75,3.1,3,3,0,0,1,2.23,2.88v2.15a3,3,0,0,0,3,3H78.3a3,3,0,0,0,3-3v-2.15a3,3,0,0,1,2.23-2.89,35.62,35.62,0,0,0,10.65-4.84,3,3,0,0,1,3.62.22l1.61,1.4a3,3,0,0,0,4.22-.3l5.36-6.18a3,3,0,0,0-.3-4.22l-1.55-1.34a3,3,0,0,1-.72-3.58,35.57,35.57,0,0,0,3-9,3,3,0,0,1,2.7-2.41l2-.15a3,3,0,0,0,2.76-3.21ZM71.9,452.76A22.56,22.56,0,1,1,96.64,428,22.62,22.62,0,0,1,71.9,452.76Z"/><path class="cls-2" d="M85.32,428.4a11.28,11.28,0,1,1-9.21-9.2A11.29,11.29,0,0,1,85.32,428.4Z"/><path class="cls-3" d="M97.8,426.24a23.94,23.94,0,1,1-19.55-19.53A24,24,0,0,1,97.8,426.24Z"/><line class="cls-4" x1="12.57" y1="137.67" x2="12.57" y2="162.67"/><path class="cls-5" d="M12.57,172.9V433.29a61.82,61.82,0,0,0,61.64,61.63h0a61.81,61.81,0,0,0,61.63-61.63V93.68"/><line class="cls-4" x1="135.84" y1="88.56" x2="135.84" y2="63.56"/><path class="cls-4" d="M135.84,63.56a49.41,49.41,0,0,1,6.48-23.87"/><path class="cls-6" d="M147.8,32a48.63,48.63,0,0,1,5.75-5.63h0a49.26,49.26,0,0,1,69.16,6.47l130.2,157.09c17.77,22.93,19.23,26.15,20.15,56.65v85.64c.16,17.2,6,38.61,34,38.61h69.79"/><line class="cls-4" x1="481.62" y1="370.78" x2="506.62" y2="370.78"/><path class="cls-7" d="M345.35,209.61a15.53,15.53,0,1,0,15.53,15.53A15.53,15.53,0,0,0,345.35,209.61Zm0,20.25a4.72,4.72,0,1,1,4.72-4.72A4.72,4.72,0,0,1,345.35,229.86Z"/><path class="cls-8" d="M185.67,50.33a13.24,13.24,0,1,0,13.24,13.23A13.23,13.23,0,0,0,185.67,50.33Z"/><path class="cls-8" d="M215.66,60.12l-1.48,0a2.16,2.16,0,0,1-2-1.64c-.17-.69-.36-1.38-.58-2a2.16,2.16,0,0,1,1-2.55l1.38-.76a2.18,2.18,0,0,0,.87-2.95l-2.16-3.94a2.18,2.18,0,0,0-3-.86l-1.81,1a2.18,2.18,0,0,1-2.6-.39c-.42-.44-.86-.87-1.31-1.28a2.16,2.16,0,0,1-.4-2.7l1.09-1.83a2.19,2.19,0,0,0-.77-3l-3.86-2.28a2.18,2.18,0,0,0-3,.76l-1.22,2.07a2.17,2.17,0,0,1-2.47,1c-.53-.16-1.07-.3-1.61-.42a2.17,2.17,0,0,1-1.69-2.11V33.71a2.18,2.18,0,0,0-2.17-2.18h-4.49a2.19,2.19,0,0,0-2.18,2.18v2.42a2.17,2.17,0,0,1-1.67,2.12l-.46.1a2.15,2.15,0,0,1-2.42-1.09l-1.13-2.13a2.17,2.17,0,0,0-2.94-.9l-4,2.1a2.19,2.19,0,0,0-.9,3l1,1.91a2.16,2.16,0,0,1-.53,2.68c-.32.27-.64.55-.95.84a2.18,2.18,0,0,1-2.63.23l-1.8-1.15a2.18,2.18,0,0,0-3,.67l-2.41,3.78a2.18,2.18,0,0,0,.66,3l1.39.88a2.16,2.16,0,0,1,.86,2.61c-.26.65-.49,1.31-.7,2a2.15,2.15,0,0,1-2.13,1.5l-1.56,0a2.17,2.17,0,0,0-2.24,2.1l-.15,4.49a2.17,2.17,0,0,0,2.1,2.24l1,0a2.18,2.18,0,0,1,2.08,1.86c.12.78.27,1.56.45,2.32a2.16,2.16,0,0,1-1.06,2.41l-.78.43a2.17,2.17,0,0,0-.87,3l2.16,3.93a2.17,2.17,0,0,0,3,.86l.36-.19a2.17,2.17,0,0,1,2.71.52c.57.68,1.17,1.34,1.8,2a2.18,2.18,0,0,1,.33,2.64l-.17.28a2.17,2.17,0,0,0,.77,3l3.86,2.29a2.17,2.17,0,0,0,3-.77l0,0a2.16,2.16,0,0,1,2.56-1,27.53,27.53,0,0,0,2.73.77,2.17,2.17,0,0,1,1.67,2.12h0a2.18,2.18,0,0,0,2.18,2.17h4.49a2.17,2.17,0,0,0,2.17-2.17,2.18,2.18,0,0,1,1.69-2.12c.5-.11,1-.24,1.48-.38A2.16,2.16,0,0,1,195.77,92h0a2.18,2.18,0,0,0,2.94.9l4-2.11a2.18,2.18,0,0,0,.9-2.94l-.14-.25A2.15,2.15,0,0,1,203.9,85c.54-.49,1.06-1,1.56-1.52a2.14,2.14,0,0,1,2.72-.32l.3.18a2.17,2.17,0,0,0,3-.66l2.41-3.79a2.17,2.17,0,0,0-.66-3l-.69-.44a2.16,2.16,0,0,1-.9-2.48c.24-.76.45-1.53.62-2.32a2.16,2.16,0,0,1,2.19-1.71l.92,0a2.17,2.17,0,0,0,2.24-2.11l.15-4.48A2.18,2.18,0,0,0,215.66,60.12Zm-30,22.77A19.33,19.33,0,1,1,205,63.56,19.32,19.32,0,0,1,185.67,82.89Z"/><path class="cls-9" d="M204.29,60.35a18.89,18.89,0,1,1-15.43-15.41A18.91,18.91,0,0,1,204.29,60.35Z"/><path class="cls-9" d="M195.75,61.82a10.22,10.22,0,1,1-8.35-8.34A10.23,10.23,0,0,1,195.75,61.82Z"/><path class="cls-8" d="M409.3,323.2a9.92,9.92,0,1,0,9.91,9.91A9.92,9.92,0,0,0,409.3,323.2Z"/><path class="cls-8" d="M431.76,330.54l-1.1,0a1.61,1.61,0,0,1-1.53-1.22c-.12-.52-.27-1-.43-1.54a1.61,1.61,0,0,1,.77-1.91l1-.57a1.64,1.64,0,0,0,.65-2.22l-1.62-2.94a1.63,1.63,0,0,0-2.21-.65l-1.36.75a1.64,1.64,0,0,1-1.95-.29c-.31-.33-.64-.65-1-1a1.61,1.61,0,0,1-.3-2l.81-1.38a1.62,1.62,0,0,0-.57-2.23l-2.89-1.71a1.63,1.63,0,0,0-2.24.57l-.91,1.55a1.63,1.63,0,0,1-1.85.73c-.4-.12-.8-.22-1.21-.32a1.61,1.61,0,0,1-1.26-1.58v-1.82a1.63,1.63,0,0,0-1.63-1.63h-3.36a1.63,1.63,0,0,0-1.63,1.63v1.82a1.62,1.62,0,0,1-1.26,1.58l-.34.08a1.61,1.61,0,0,1-1.81-.81l-.85-1.6a1.64,1.64,0,0,0-2.21-.68l-3,1.58a1.62,1.62,0,0,0-.67,2.2l.76,1.44a1.63,1.63,0,0,1-.4,2l-.71.62a1.63,1.63,0,0,1-2,.18l-1.35-.86a1.63,1.63,0,0,0-2.25.5l-1.81,2.83a1.65,1.65,0,0,0,.5,2.26l1,.66a1.61,1.61,0,0,1,.64,2c-.19.48-.36,1-.52,1.47a1.61,1.61,0,0,1-1.6,1.13l-1.16,0a1.62,1.62,0,0,0-1.68,1.58l-.12,3.36a1.64,1.64,0,0,0,1.58,1.68l.75,0a1.63,1.63,0,0,1,1.56,1.39c.09.58.2,1.16.34,1.73a1.63,1.63,0,0,1-.8,1.81l-.59.32a1.62,1.62,0,0,0-.64,2.21l1.61,2.95a1.64,1.64,0,0,0,2.22.65l.27-.15a1.61,1.61,0,0,1,2,.39q.65.76,1.35,1.47a1.65,1.65,0,0,1,.25,2l-.13.21a1.63,1.63,0,0,0,.57,2.23l2.9,1.71a1.62,1.62,0,0,0,2.23-.57v0a1.64,1.64,0,0,1,1.93-.71,19.17,19.17,0,0,0,2,.58,1.62,1.62,0,0,1,1.26,1.58h0a1.63,1.63,0,0,0,1.63,1.64H411a1.63,1.63,0,0,0,1.63-1.64,1.62,1.62,0,0,1,1.26-1.58c.37-.08.75-.18,1.11-.29a1.64,1.64,0,0,1,1.89.8h0a1.63,1.63,0,0,0,2.21.68l3-1.58a1.63,1.63,0,0,0,.68-2.21l-.1-.18a1.61,1.61,0,0,1,.33-2,15.74,15.74,0,0,0,1.17-1.14,1.61,1.61,0,0,1,2-.24l.22.14a1.63,1.63,0,0,0,2.25-.5l1.81-2.84a1.63,1.63,0,0,0-.5-2.25l-.51-.33a1.62,1.62,0,0,1-.68-1.86c.18-.56.34-1.14.47-1.73a1.63,1.63,0,0,1,1.64-1.29l.69,0a1.63,1.63,0,0,0,1.68-1.58l.11-3.36A1.63,1.63,0,0,0,431.76,330.54Zm-22.46,17a14.48,14.48,0,1,1,14.48-14.48A14.48,14.48,0,0,1,409.3,347.59Z"/><path class="cls-9" d="M423.25,330.71a14.16,14.16,0,1,1-11.56-11.55A14.17,14.17,0,0,1,423.25,330.71Z"/><path class="cls-9" d="M416.85,331.81a7.66,7.66,0,1,1-6.26-6.25A7.68,7.68,0,0,1,416.85,331.81Z"/></svg>