<svg id="Layer_1" data-name="Layer 1" xmlns="http://www.w3.org/2000/svg" viewBox="0 0 512 512"><defs><style>.cls-1{fill:#444f60;}.cls-2{fill:#009688;}.cls-3{fill:#616b7a;}</style></defs><rect class="cls-1" x="255.6" y="341.68" width="16.99" height="112.29"/><rect class="cls-1" x="338.87" y="294.71" width="7.48" height="26.25" transform="translate(-108.01 212.55) rotate(-30)"/><rect class="cls-1" x="191.21" y="47.49" width="7.48" height="26.25" transform="translate(-4.19 105.59) rotate(-30)"/><path class="cls-1" d="M356.63,320a6.73,6.73,0,0,0-.53-.75,160.2,160.2,0,0,0,24.66-19.69,3.93,3.93,0,0,0,0-5.64h0a4.13,4.13,0,0,0-5.75,0,151.86,151.86,0,0,1-236.46-31C95.7,191,119.36,97.59,191.28,54.75a152.58,152.58,0,0,1,29.51-13.58,3.87,3.87,0,0,0,2.47-4.82l0-.07A4.09,4.09,0,0,0,218,33.61,159.94,159.94,0,0,0,192.67,44.7s0,0,0,0L177,18.5A6.5,6.5,0,0,0,168.37,16,6.31,6.31,0,0,0,166,24.71l15.75,26.44a.06.06,0,0,1,0,0C110.27,97.68,87.59,193.09,131.62,267a158.86,158.86,0,0,0,98.09,73.17,160.67,160.67,0,0,0,46.71,4.8,158.94,158.94,0,0,0,69-19.35,5.63,5.63,0,0,0,.4.82l15.71,26.37a6.5,6.5,0,0,0,8.66,2.53,6.31,6.31,0,0,0,2.34-8.74Z"/><path class="cls-2" d="M383,117.38C345.59,54.53,264,33.86,201.14,71.3a132.68,132.68,0,0,0,135.8,228C399.8,261.83,420.47,180.24,383,117.38Zm10.42,61.15c-5.56-.23-15.12,1.17-31.82,6.61-1.23.4-2.58.85-4,1.35a213.31,213.31,0,0,0-19.42-42.39l37.93-22.59A123.77,123.77,0,0,1,393.45,178.53Zm-125.09-2.47L252.6,149.61a380.23,380.23,0,0,0,51.49-37.47,202.28,202.28,0,0,1,22.77,29.07Zm62.89-27.83a204.56,204.56,0,0,1,18.75,41,381.66,381.66,0,0,0-57.46,27.44L272.6,183.17Zm-82.77-5.55L208.93,76.3A46,46,0,0,1,226.6,72c22.14-1,48.35,11.74,71.84,34.41A370,370,0,0,1,248.48,142.68Zm-68.4-7.89c0-24.83,7.66-43.89,21.74-54.27l39.55,66.39a379.09,379.09,0,0,1-55.65,26.64A147,147,0,0,1,180.08,134.79Zm65.42,19.05,15.75,26.45-58.5,34.85a201.39,201.39,0,0,1-14.69-33.86A382.22,382.22,0,0,0,245.5,153.84Zm20,33.56,19.94,33.48a380.44,380.44,0,0,0-51.51,37.47,204.8,204.8,0,0,1-27.08-36Zm24.07,40.41,39.59,66.46a46,46,0,0,1-17.66,4.26c-22.17,1-48.42-11.77-71.92-34.48A368.11,368.11,0,0,1,289.56,227.81Zm68.44,8c0,24.83-7.66,43.89-21.74,54.27l-39.59-66.48a379.2,379.2,0,0,1,55.67-26.63A146.49,146.49,0,0,1,358,235.78Zm13.63-121.24L333.8,137.08a209.2,209.2,0,0,0-23.71-30.31q1.71-1.58,3.12-2.91C326,91.7,331.74,84,334.15,79A123.76,123.76,0,0,1,371.63,114.54Zm-72-50.05A125.26,125.26,0,0,1,327.19,75c-1.81,4.24-9.53,13.85-22.74,26a155.33,155.33,0,0,0-33.61-25.13c-11.35-6.17-22.45-10-32.91-11.36a123.1,123.1,0,0,1,25.32-3.83A125.23,125.23,0,0,1,299.65,64.49Zm-121.95,36C174,110.31,172,121.87,172,134.8a155.6,155.6,0,0,0,6.11,41.49l-1,.33c-19.15,6.53-29,7.57-32.78,7.34a125.32,125.32,0,0,1,3.85-29.28A124,124,0,0,1,177.7,100.44ZM144.55,192c.82,0,1.71,0,2.7,0,5.81-.26,14.86-2,29.08-6.59,1.26-.41,2.64-.87,4.14-1.39a210,210,0,0,0,15.35,35.26L158,241.81A123.6,123.6,0,0,1,144.55,192ZM162,249.06l37.93-22.59a212.78,212.78,0,0,0,28,37.25c-1.16,1.06-2.21,2-3.17,3-12.74,12.13-18.5,19.86-20.92,24.86A124.1,124.1,0,0,1,162,249.06Zm76.46,57a125.8,125.8,0,0,1-27.67-10.6c1.84-4.26,9.57-13.88,22.78-26.06a155.2,155.2,0,0,0,33.69,25.21c11.37,6.17,22.47,10,32.94,11.36A124,124,0,0,1,238.44,306.09Zm122-36.07c3.72-9.84,5.66-21.37,5.64-34.25a155.32,155.32,0,0,0-6.12-41.56l.84-.3c19.26-6.56,29.12-7.57,32.84-7.34A125.17,125.17,0,0,1,360.42,270Z"/><path class="cls-3" d="M162.51,469.36c0-15.22,42.51-27.55,94.95-27.55s95,12.33,95,27.55Z"/><path class="cls-3" d="M149.32,473.56H365.6a24.89,24.89,0,0,1,24.89,24.89v2.41a0,0,0,0,1,0,0H124.43a0,0,0,0,1,0,0v-2.41A24.89,24.89,0,0,1,149.32,473.56Z"/></svg>