<svg xmlns="http://www.w3.org/2000/svg" xmlns:xlink="http://www.w3.org/1999/xlink" viewBox="0 0 463.09 402.05"><defs><style>.cls-1{fill:none;}.cls-2{fill:#98a3a5;}.cls-3{fill:#d4f8f2;}.cls-4,.cls-7{opacity:0.1;}.cls-5{fill:#fff;}.cls-6{fill:#9fbab6;}.cls-8{fill:#37474f;}.cls-9{fill:#263238;}.cls-10{fill:#455a64;}.cls-11{fill:#fafafa;}.cls-12{fill:#e6e6e6;}.cls-13{fill:#e0e0e0;}.cls-14{fill:#009688;}.cls-15{opacity:0.2;}.cls-16{fill:#6a7b83;}.cls-17{fill:#ebebeb;}.cls-18{clip-path:url(#clip-path);}.cls-19{fill:#f0f0f0;}</style><clipPath id="clip-path" transform="translate(-4.57 -3.98)"><path class="cls-1" d="M400.1,126c0-4.57-2-7.42-5.15-7.42a8.2,8.2,0,0,0-4.07,1.27c-3.53,2-6.78,6.11-8.71,10.93a.47.47,0,0,0-.06.15h0a21.28,21.28,0,0,0-1.59,7.67v16.37l19.58-11.3Z"/></clipPath></defs><g id="Mailbox"><path id="Floor-2" data-name="Floor" class="cls-2" d="M72.38,371.18c90.43,46.47,237,46.47,327.45,0s90.43-121.82,0-168.3-237-46.47-327.45,0S-18,324.71,72.38,371.18Z" transform="translate(-4.57 -3.98)"/><g id="Plants-2" data-name="Plants"><path class="cls-3" d="M392.51,244.69c.11-6.21,6.61-22.45,13.2-30.41s16.82-13.67,24-11.08c6.67,2.41,5.79,11.19-2.45,16.88s-20.6,12.8-24.35,22.81l-7.72,12.24Z" transform="translate(-4.57 -3.98)"/><path class="cls-4" d="M392.51,244.69c.11-6.21,6.61-22.45,13.2-30.41s16.82-13.67,24-11.08c6.67,2.41,5.79,11.19-2.45,16.88s-20.6,12.8-24.35,22.81l-7.72,12.24Z" transform="translate(-4.57 -3.98)"/><path class="cls-5" d="M393.69,251.73a.45.45,0,0,0,.41-.35c4.53-21.14,22-38.08,32.32-41.71a.45.45,0,0,0,.28-.58.45.45,0,0,0-.58-.27c-10.53,3.7-28.31,20.91-32.91,42.37a.47.47,0,0,0,.35.54A.57.57,0,0,0,393.69,251.73Z" transform="translate(-4.57 -3.98)"/><path class="cls-3" d="M396.61,265.36c1.06-3.47,5.43-9.16,12.41-13.8,7.72-5.13,17.42-7.38,19.72-11.45,2.76-4.87-1.31-9.6-9.16-8.76s-21.83,11.29-24.31,27.36Z" transform="translate(-4.57 -3.98)"/><path class="cls-5" d="M395.16,261.67a.47.47,0,0,0,.4-.29c6.82-18,20.79-24.19,27.22-24.91a.45.45,0,0,0,.4-.5.44.44,0,0,0-.5-.4c-7.11.79-21,7.06-28,25.49a.45.45,0,0,0,.26.58A.32.32,0,0,0,395.16,261.67Z" transform="translate(-4.57 -3.98)"/></g><g id="Plants-3" data-name="Plants"><path class="cls-3" d="M89.15,305.43l7.57-4.33s3.63-20,.92-37.2c-3.82-24.18-20.28-32.52-26.26-30.11s-7.39,9.56,3.41,23.53C81.16,265.57,89.36,283,89.15,305.43Z" transform="translate(-4.57 -3.98)"/><path class="cls-6" d="M89.15,305.43l7.57-4.33s3.63-20,.92-37.2c-3.82-24.18-20.28-32.52-26.26-30.11s-7.39,9.56,3.41,23.53C81.16,265.57,89.36,283,89.15,305.43Z" transform="translate(-4.57 -3.98)"/><path class="cls-5" d="M91.89,295.83h-.07a.53.53,0,0,1-.46-.61c3.13-22.63-6-47.43-16.2-57.43a.53.53,0,0,1,0-.76.54.54,0,0,1,.76,0c10.42,10.18,19.69,35.38,16.52,58.35A.55.55,0,0,1,91.89,295.83Z" transform="translate(-4.57 -3.98)"/><path class="cls-3" d="M68.15,317.56c-1.19.69-3.66-.81-4.6-1.45a11.39,11.39,0,0,1-3.8-4.35,10.71,10.71,0,0,1-1-6.43,24.86,24.86,0,0,1,.81-3.41l1-3.32a8.34,8.34,0,0,0,.48-3.34c-.29-2.27-2.3-3.86-4.13-5.23-2-1.52-4.13-3.52-4.12-6.25a9.63,9.63,0,0,1,2.4-5.71c1.31-1.65,2.86-3.11,4-4.86A6.69,6.69,0,0,0,60.61,269a6.87,6.87,0,0,0-.92-2.65,36.66,36.66,0,0,1-2.9-5.32c-.67-1.91-.57-4.28.92-5.65a6.26,6.26,0,0,1,4.7-1.17,10.81,10.81,0,0,1,4.36,1.54c4.34,2.41,6.81,7.54,11.41,9.4a47.14,47.14,0,0,0,5.57,1.36,6.88,6.88,0,0,1,4.59,3.14c1.69,3.37-1.45,7.53-.26,11.11,1,3.17,4.13,4.38,5.86,7.23a6.85,6.85,0,0,1,.81,4.15,20,20,0,0,1-1.75,7,50.28,50.28,0,0,1-3.85,6.31C89.08,305.5,68.33,317.46,68.15,317.56Z" transform="translate(-4.57 -3.98)"/><path class="cls-5" d="M80.44,311h0a.54.54,0,0,1-.52-.56c.89-21.42-9.21-45.08-16.55-51.95a.54.54,0,0,1,.74-.79c7.49,7,17.79,31.06,16.89,52.79A.54.54,0,0,1,80.44,311Z" transform="translate(-4.57 -3.98)"/><path class="cls-5" d="M77.23,285.7l-.16,0a72.23,72.23,0,0,0-15.55-2.51.54.54,0,0,1-.52-.56.53.53,0,0,1,.56-.52,74.35,74.35,0,0,1,15.83,2.56.54.54,0,0,1-.16,1.05Z" transform="translate(-4.57 -3.98)"/></g><path class="cls-8" d="M70.79,309.61l109.13,63a9.57,9.57,0,0,0,8.66,0L395.21,253.3c2.39-1.38,2.39-3.62,0-5l-109.14-63a9.57,9.57,0,0,0-8.66,0L70.79,304.61C68.4,306,68.4,308.23,70.79,309.61Z" transform="translate(-4.57 -3.98)"/><path class="cls-9" d="M129.77,338.88a13.28,13.28,0,0,0,12,0c3.32-1.92,3.32-5,0-6.94a13.28,13.28,0,0,0-12,0C126.45,333.86,126.45,337,129.77,338.88Z" transform="translate(-4.57 -3.98)"/><path class="cls-10" d="M179.92,372.62l-109.13-63c-2.14-1.23-2.36-3.15-.68-4.53a9.67,9.67,0,0,0-3.65,7v4.07a9.56,9.56,0,0,0,4.33,7.5l109.13,63a8.89,8.89,0,0,0,4.33,1V373.65A8.88,8.88,0,0,1,179.92,372.62Z" transform="translate(-4.57 -3.98)"/><path class="cls-9" d="M395.21,267.37a9.58,9.58,0,0,0,4.33-7.5V255.8a9.69,9.69,0,0,0-3.66-7c1.69,1.38,1.47,3.3-.67,4.54L188.58,372.62a8.83,8.83,0,0,1-4.33,1v14.08a8.83,8.83,0,0,0,4.33-1Z" transform="translate(-4.57 -3.98)"/><path class="cls-11" d="M197.91,359.56l-103-59.48c-1.44-.83-1.44-2.17,0-3l169.42-97.87a5.74,5.74,0,0,1,5.2,0l103.05,59.47c1.44.82,1.44,2.17,0,3L203.1,359.56A5.72,5.72,0,0,1,197.91,359.56Z" transform="translate(-4.57 -3.98)"/><path class="cls-12" d="M171.12,279.53l60.93,35.17-38.46,22.21a4.85,4.85,0,0,1-4.33,0l-56.6-32.68a1.32,1.32,0,0,1,0-2.5Z" transform="translate(-4.57 -3.98)"/><path class="cls-13" d="M232,314.7l-7.18-28.54a3.25,3.25,0,0,0-1.08-1.74h0a3.47,3.47,0,0,0-1.93-.81l-50.73-4.08Z" transform="translate(-4.57 -3.98)"/><path class="cls-13" d="M232,314.7l-54.53-2.25a2.75,2.75,0,0,1-2.62-2.42l-3.78-30.51Z" transform="translate(-4.57 -3.98)"/><path class="cls-11" d="M232,314.7l-54.53-2.25a2.75,2.75,0,0,1-2.62-2.42l-3.78-30.51,6.73,30a1.29,1.29,0,0,0,1.15,1Z" transform="translate(-4.57 -3.98)"/><polygon class="cls-11" points="178.74 308.37 186.86 334.17 189.03 332.92 178.74 308.37"/><polygon class="cls-11" points="125.93 298.99 128.1 297.74 170.61 303.68 125.93 298.99"/><path class="cls-12" d="M205.78,266.7l48.47,28a4.79,4.79,0,0,0,4.33,0L327.37,255a1.32,1.32,0,0,0,0-2.5l-48.47-28a4.79,4.79,0,0,0-4.33,0L205.78,264.2A1.32,1.32,0,0,0,205.78,266.7Z" transform="translate(-4.57 -3.98)"/><path class="cls-11" d="M244.32,263a6.35,6.35,0,0,1-.43-6.09c.9-2,2.86-3.92,5.87-5.65a29.82,29.82,0,0,1,10.73-3.79,31.17,31.17,0,0,1,11.1.4,36.53,36.53,0,0,1,10.69,4.17q4.82,2.77,6.56,5.72a5.82,5.82,0,0,1,.44,5.75c-.88,1.87-2.73,3.62-5.53,5.24a20.52,20.52,0,0,1-8.83,2.88,13,13,0,0,1-7.51-1.54,3.17,3.17,0,0,1-1.75-1.92,2.11,2.11,0,0,1,.73-2,16.16,16.16,0,0,1-4.81-.33,15.13,15.13,0,0,1-4.4-1.7q-3.47-2-3.62-4.34t3.31-4.3a17.3,17.3,0,0,1,9.22-2.37,19.32,19.32,0,0,1,9.38,2.67,11.23,11.23,0,0,1,3.1,2.55,5.23,5.23,0,0,1,1.3,2.73l-9,5.22c-.73.42-1.13.79-1.19,1.11s.2.66.77,1a5.59,5.59,0,0,0,4,.34,19,19,0,0,0,5.55-2.27c2.26-1.3,3.69-2.7,4.29-4.17a4.57,4.57,0,0,0-.47-4.4,13.06,13.06,0,0,0-4.68-4.1,27.09,27.09,0,0,0-12.63-3.75,23.6,23.6,0,0,0-12.85,3.38q-3.69,2.13-4.74,4.5a4.73,4.73,0,0,0,.32,4.64,13,13,0,0,0,4.76,4.23,22.17,22.17,0,0,0,4,1.79,18.43,18.43,0,0,0,4,.9,1.23,1.23,0,0,1,.42.11c.07,0,.07.13,0,.26l-1.32,1.85a1,1,0,0,1-.19.19.93.93,0,0,1-.6,0,23.55,23.55,0,0,1-4.84-1.14,25.93,25.93,0,0,1-4.72-2.11C247.65,267,245.51,265.05,244.32,263Zm20.85.87a6.64,6.64,0,0,0,4-.75l5.23-3a6.22,6.22,0,0,0-2.63-2.43,11.14,11.14,0,0,0-5.5-1.53,10.49,10.49,0,0,0-5.49,1.44q-2.19,1.26-2.13,2.49c0,.82.82,1.67,2.35,2.55A10.09,10.09,0,0,0,265.17,263.88Z" transform="translate(-4.57 -3.98)"/><path class="cls-9" d="M332.26,221.9a2.9,2.9,0,0,0,2.66,0,.81.81,0,0,0,0-1.53,3,3,0,0,0-2.66,0A.81.81,0,0,0,332.26,221.9Z" transform="translate(-4.57 -3.98)"/><path class="cls-9" d="M336.5,233.94a5.85,5.85,0,0,0,5.31,0c1.47-.84,1.47-2.22,0-3.06a5.85,5.85,0,0,0-5.31,0C335,231.72,335,233.1,336.5,233.94Z" transform="translate(-4.57 -3.98)"/><path class="cls-9" d="M332.76,228.61c1-.57.93-1.51-.12-2.11l-17.46-10.09a4,4,0,0,0-3.66-.06c-1,.56-.92,1.51.12,2.11l17.46,10.08A4.07,4.07,0,0,0,332.76,228.61Z" transform="translate(-4.57 -3.98)"/><g id="Letter-2" data-name="Letter"><path class="cls-14" d="M106.38,101.44a6.81,6.81,0,0,1,3.09-5.36L267.7,4.73a6.82,6.82,0,0,1,6.19,0l3.48,2a6.81,6.81,0,0,1,3.09,5.35V133.38a6.89,6.89,0,0,1-3.09,5.36L119.14,230.09a6.86,6.86,0,0,1-6.18,0l-3.49-2a6.89,6.89,0,0,1-3.09-5.36Z" transform="translate(-4.57 -3.98)"/><path class="cls-15" d="M107.28,98.39l8.78,5.06,163.5-94.4a6.4,6.4,0,0,0-2.18-2.31l-3.5-2a6.8,6.8,0,0,0-6.18,0L109.48,96.08A6.2,6.2,0,0,0,107.28,98.39Z" transform="translate(-4.57 -3.98)"/><path class="cls-15" d="M106.38,101.43V222.71a6.82,6.82,0,0,0,3.1,5.36l3.48,2a4.39,4.39,0,0,0,.85.38,6.94,6.94,0,0,0,1.27.29,7.4,7.4,0,0,0,2.44-.09,5.25,5.25,0,0,0,.6-.16,2,2,0,0,0,.37-.14,1.88,1.88,0,0,1-1.48,0,2.16,2.16,0,0,1-1-2V107a2.71,2.71,0,0,1,1.61-2.63l-1.61-.94-8.78-5.06A6.38,6.38,0,0,0,106.38,101.43Z" transform="translate(-4.57 -3.98)"/><path class="cls-15" d="M116.06,103.45l73.28,27.38a11.91,11.91,0,0,0,14.13-4.66l11.77-18,64.9-99.44L217.58,108.82l62.88,24.61a6.44,6.44,0,0,1-1,3.09L217.41,109.1,203.73,131a11.9,11.9,0,0,1-14.91,4.58l-9.73-4.3L117,230.34a2.16,2.16,0,0,1-1-2v-2l62.73-95.14Z" transform="translate(-4.57 -3.98)"/></g><path class="cls-8" d="M134.19,75.13,123.37,68.9h0l-.1-.06v0c-4.8-2.71-11.38-2.3-18.67,1.9C89.91,79.22,78,99.82,78,116.77c0,8.45,3,14.4,7.75,17.18h0l9.84,5.61L98,135.65a27.14,27.14,0,0,0,7.62-3c14.67-8.47,26.56-29.07,26.56-46a28.22,28.22,0,0,0-.83-6.78Z" transform="translate(-4.57 -3.98)"/><path class="cls-16" d="M114.86,76.65c-14.68,8.47-26.57,29.07-26.57,46s11.89,23.81,26.56,15.34,26.57-29.08,26.57-46S129.53,68.17,114.86,76.65Z" transform="translate(-4.57 -3.98)"/><path class="cls-11" d="M106.6,109.34a.82.82,0,0,1-.21-.75,2.25,2.25,0,0,1,.4-1L115,95.4c.21-.29.41-.58.63-.86a2.33,2.33,0,0,1,.69-.65l2.95-1.7a.63.63,0,0,1,1,.59v28.14a2.07,2.07,0,0,1-.31,1,2,2,0,0,1-.71.76l-3.06,1.76a.69.69,0,0,1-.72.07.71.71,0,0,1-.3-.66V102.34l-5.35,7.93a1.76,1.76,0,0,1-.74.67.67.67,0,0,1-.7-.06Z" transform="translate(-4.57 -3.98)"/><g id="MailBox-2" data-name="MailBox"><path class="cls-9" d="M351.61,206.33v-1.79h.44a7,7,0,0,1,2.9-2.85,17.86,17.86,0,0,1,16.14,0,7,7,0,0,1,2.9,2.85h.44v1.73c0,1.71-1.08,3.43-3.34,4.74A17.86,17.86,0,0,1,355,211C352.71,209.72,351.6,208,351.61,206.33Z" transform="translate(-4.57 -3.98)"/><path class="cls-10" d="M371.09,199.88a17.8,17.8,0,0,0-16.14,0c-4.46,2.57-4.46,6.74,0,9.32a17.86,17.86,0,0,0,16.14,0C375.55,206.62,375.55,202.45,371.09,199.88Z" transform="translate(-4.57 -3.98)"/><path class="cls-8" d="M366,136v67.78a1.46,1.46,0,0,1-.86,1.2,4.56,4.56,0,0,1-4.16,0,1.46,1.46,0,0,1-.86-1.2V136Z" transform="translate(-4.57 -3.98)"/><polygon class="cls-9" points="355.52 139.4 355.52 141.52 361.39 144.9 361.39 142.79 355.52 139.4"/><path class="cls-10" d="M397.59,118.05h0l-.5,1-5.38,10.78L389.16,135l-8.64,17.33-.95,1.91h-.17a2,2,0,0,1-1-.23l-38.51-22.26a2.16,2.16,0,0,1-1-1.68V115.19c0-7.42,4.89-16.26,10.92-19.74,2.86-1.65,5.45-1.78,7.4-.69v0Z" transform="translate(-4.57 -3.98)"/><path class="cls-8" d="M390.32,118.84c-2.44.9-11.29,8.21-11.29,19.73,0,9.68,0,14.7,0,15.61l.36,0h.17l.95-1.91L389.16,135l2.55-5.12.59-1.17Z" transform="translate(-4.57 -3.98)"/><path class="cls-8" d="M400.76,142h0a1.07,1.07,0,0,1-.4.39l-.1.06L380.37,154a1.9,1.9,0,0,1-.8.22h-.17V138.57a22.35,22.35,0,0,1,1.73-8.24l1,.56,7.05,4.07,10.94,6.33.56.32A.29.29,0,0,1,400.76,142Z" transform="translate(-4.57 -3.98)"/><path class="cls-10" d="M397.59,118.05c-1.93-1-4.48-.83-7.27.79a22.08,22.08,0,0,0-8,8.82,26.8,26.8,0,0,0-1.23,2.67,22.35,22.35,0,0,0-1.73,8.24v15.64h.17a1.9,1.9,0,0,0,.8-.22l19.88-11.49.1-.06a1.48,1.48,0,0,0,.4-.39h0a2.11,2.11,0,0,0,.46-1.23V126C401.22,122,399.82,119.23,397.59,118.05Zm2.22,23.4-19,11c-.16.09-.29,0-.29-.17V138.57a21.33,21.33,0,0,1,1.59-7.68.47.47,0,0,1,.06-.15,25.86,25.86,0,0,1,1.32-2.82,20.59,20.59,0,0,1,7.39-8.11,8.2,8.2,0,0,1,4.07-1.27,4.46,4.46,0,0,1,2.14.52c1.9,1,3,3.47,3,6.9v15A.63.63,0,0,1,399.81,141.45Z" transform="translate(-4.57 -3.98)"/><path class="cls-9" d="M400.1,126v15.33l-18-10.4a.47.47,0,0,1,.06-.15c1.93-4.82,5.18-8.91,8.71-10.93a8.2,8.2,0,0,1,4.07-1.27C398.13,118.54,400.1,121.39,400.1,126Z" transform="translate(-4.57 -3.98)"/><path class="cls-13" d="M367.16,133.6l1.59-.92h0a2.12,2.12,0,0,1,2.11.21,6.64,6.64,0,0,1,3,5.2A2.1,2.1,0,0,1,373,140h0l-1.47.85-.27-.45a3.08,3.08,0,0,1-.86-.33,6.64,6.64,0,0,1-3-5.2,3.62,3.62,0,0,1,.09-.77Z" transform="translate(-4.57 -3.98)"/><path class="cls-11" d="M369.35,133.77a6.63,6.63,0,0,1,3,5.19c0,1.92-1.35,2.69-3,1.74a6.65,6.65,0,0,1-3-5.2C366.34,133.59,367.69,132.81,369.35,133.77Z" transform="translate(-4.57 -3.98)"/><path class="cls-17" d="M369.35,138.06a.87.87,0,0,1-.87-.87V112.58a.87.87,0,1,1,1.74,0v24.61A.87.87,0,0,1,369.35,138.06Z" transform="translate(-4.57 -3.98)"/><polygon class="cls-14" points="363.91 111.03 355.19 106 357.92 111.25 355.19 113.35 363.91 118.38 363.91 111.03"/></g><g class="cls-18"><g id="Letter-3" data-name="Letter"><path class="cls-19" d="M395.56,131a.85.85,0,0,0-.38-.67l-19.72-11.38a.87.87,0,0,0-.77,0l-.44.25a.85.85,0,0,0-.38.67V135a.88.88,0,0,0,.38.67L394,147a.87.87,0,0,0,.77,0l.44-.25a.85.85,0,0,0,.38-.67Z" transform="translate(-4.57 -3.98)"/><path class="cls-13" d="M395.45,130.6l-1.09.63L374,119.47a.84.84,0,0,1,.27-.29l.44-.25a.81.81,0,0,1,.77,0l19.72,11.38A.84.84,0,0,1,395.45,130.6Z" transform="translate(-4.57 -3.98)"/><path class="cls-13" d="M395.56,131v15.11a.85.85,0,0,1-.38.67l-.44.25-.1.05-.16,0a.81.81,0,0,1-.31,0l-.07,0-.05,0a.21.21,0,0,0,.19,0,.27.27,0,0,0,.12-.25V131.67a.33.33,0,0,0-.21-.32l.21-.12,1.09-.63A.79.79,0,0,1,395.56,131Z" transform="translate(-4.57 -3.98)"/><path class="cls-13" d="M394.36,131.23l-9.14,3.41a1.49,1.49,0,0,1-1.76-.58L382,131.82l-8.09-12.4,7.79,12.48L373.87,135a.8.8,0,0,0,.12.38l7.74-3.42,1.7,2.73a1.48,1.48,0,0,0,1.86.57l1.21-.53L394.24,147a.27.27,0,0,0,.12-.25v-.25l-7.82-11.86Z" transform="translate(-4.57 -3.98)"/></g></g><path class="cls-10" d="M413.23,128.52l-2.09,1.74a22.41,22.41,0,0,1-1.79,2.3l-6,6.93-2.12,2.45-13.64,7.88-6.52,5.41H381a.92.92,0,0,1-.57-.09l-.61-.35a0,0,0,0,1,0,0,.4.4,0,0,1-.1-.61,0,0,0,0,0,0,0l4.76-5.5h0l3-3.49a88.63,88.63,0,0,1,19-15.69c2.82-1.62,4.58-2.18,5.21-1.79h0l1.43.83S413.22,128.52,413.23,128.52Z" transform="translate(-4.57 -3.98)"/><path class="cls-8" d="M410.82,133.42l-4,4.57-.08.1L403,142.42a3.54,3.54,0,0,1-.76.63l-21,12.1a.63.63,0,0,1-.23.08H381l7.56-8.73h0L389,146a88.88,88.88,0,0,1,19-15.68c2.75-1.59,4.51-2.16,5.18-1.83,0,0,0,0,0,0C414,128.94,413.24,130.63,410.82,133.42Z" transform="translate(-4.57 -3.98)"/></g></svg>